<svg width="36" height="36" viewBox="0 0 36 36" fill="none" xmlns="http://www.w3.org/2000/svg">
<g clip-path="url(#clip0_5130_77406)">
<path d="M0.566284 9.74219V36.009H11.1764V9.74219H0.566284ZM8.99773 27.0018H5.59447V23.6133H7.26096C7.72807 23.6133 8.19514 23.5989 8.66045 23.6259C8.77768 23.6259 8.98148 23.779 8.98328 23.8655C9.00493 24.8995 8.99773 25.9335 8.99773 27.0018ZM8.98513 17.8757C8.97453 17.9194 8.95746 17.9613 8.93458 18H5.60891V14.5971C6.31228 14.5971 7.01388 14.5971 7.71545 14.5971C8.11944 14.5971 8.6911 14.4764 8.87866 14.6853C9.09689 14.9267 8.99055 15.4726 8.99596 15.8869C9.00498 16.5534 8.99235 17.2128 8.98513 17.8721V17.8757Z" fill="#F5A75B"/>
<path d="M13.5391 0H35.9982V35.991H13.5391V0ZM34.8999 34.8831V1.13311H14.6572V34.8831H34.8999Z" fill="#174176"/>
<path d="M-6.98079e-05 9.02344H11.1817V10.0863H1.12176V34.9065H11.18V36.009H-0.00183105L-6.98079e-05 9.02344Z" fill="#174176"/>
<path d="M4.50515 13.5146C4.49072 13.6714 4.47275 13.8029 4.47275 13.9326C4.47275 15.5088 4.47274 17.0851 4.46191 18.6596C4.46191 19.0523 4.6044 19.1333 4.96149 19.1297C6.52334 19.1135 8.08699 19.1297 9.65064 19.1297C9.79492 19.1297 9.93738 19.1081 10.0835 19.0973V13.5146H4.50515ZM8.98515 17.8723C8.97455 17.916 8.95748 17.9579 8.9346 17.9966H5.60893V14.5973C6.3123 14.5973 7.0139 14.5973 7.71547 14.5973C8.11945 14.5973 8.69112 14.4766 8.87868 14.6856C9.09691 14.927 8.99057 15.4728 8.99598 15.8871C9.005 16.5537 8.99236 17.213 8.98515 17.8723Z" fill="#174176"/>
<path d="M4.52865 22.5322C4.50688 22.5806 4.49109 22.6314 4.48171 22.6836C4.48171 24.3949 4.48174 26.1063 4.46912 27.8159C4.46912 28.1311 4.64943 28.1401 4.87667 28.1383C6.49983 28.1383 8.123 28.1383 9.74616 28.1383C9.86436 28.1301 9.9819 28.1139 10.0979 28.0897V22.5322H4.52865ZM8.99772 27.0016H5.59447V23.6131H7.26096C7.72807 23.6131 8.19514 23.5987 8.66044 23.6257C8.77767 23.6257 8.98148 23.7788 8.98328 23.8653C9.00492 24.8993 8.99772 25.9333 8.99772 27.0016Z" fill="#174176"/>
<path d="M34.8998 34.8833H14.6571V1.1333H34.8998V34.8833ZM23.6314 5.06044C23.4511 5.04963 23.3375 5.03341 23.2184 5.03341C21.6404 5.03341 20.0604 5.04422 18.4824 5.03341C18.0982 5.03341 18.0008 5.16492 18.0044 5.52701C18.0213 7.08826 18.0213 8.64951 18.0044 10.2108C18.0044 10.571 18.0964 10.7098 18.4824 10.7062C20.0604 10.6863 21.6386 10.7062 23.2184 10.6953C23.3483 10.6953 23.48 10.6755 23.6314 10.6611V5.06044ZM25.9255 5.03341V10.6449C25.9909 10.6639 26.058 10.6772 26.1257 10.6845C27.8102 10.6845 29.4947 10.6845 31.1756 10.6935C31.502 10.6935 31.5363 10.5314 31.5363 10.272C31.5363 8.67953 31.5218 7.08886 31.5363 5.49639C31.5363 5.10547 31.392 5.02261 31.0367 5.02621C29.7129 5.04243 28.3891 5.02621 27.069 5.02621L25.9255 5.03341ZM18.0459 13.5146C18.0333 13.6713 18.0135 13.801 18.0135 13.9325C18.0135 15.5088 18.0243 17.0851 18.0044 18.6595C18.0044 19.0504 18.1452 19.1333 18.5023 19.1297C20.0641 19.1135 21.6278 19.1297 23.1914 19.1297C23.3357 19.1297 23.4781 19.1081 23.626 19.0973V13.5146H18.0459ZM31.5363 13.5146H25.9255V19.0757C25.9758 19.0963 26.0286 19.1108 26.0824 19.1189C27.7957 19.1189 29.5091 19.1189 31.2224 19.1315C31.5434 19.1315 31.5363 18.9387 31.5363 18.7172C31.5363 17.2448 31.5363 15.7742 31.5363 14.3054V13.5146ZM18.0442 22.5218C18.0333 22.6785 18.0135 22.81 18.0135 22.9415C18.0135 24.516 18.0243 26.0923 18.0044 27.6685C18.0044 28.0612 18.1488 28.1387 18.5023 28.1351C20.0659 28.1207 21.6296 28.1351 23.1914 28.1351C23.3357 28.1351 23.4781 28.1135 23.6242 28.1009V22.5308L18.0442 22.5218ZM25.9201 28.0901C26.0143 28.1074 26.1095 28.1194 26.2051 28.1261C27.8589 28.1261 29.5127 28.1261 31.1647 28.1351C31.5254 28.1351 31.5398 27.955 31.538 27.6829C31.538 26.0923 31.538 24.5016 31.538 22.9109C31.538 22.783 31.511 22.6551 31.4984 22.5254H25.9237L25.9201 28.0901Z" fill="#F5A75B"/>
<path d="M23.6315 5.06039V10.6449C23.48 10.6593 23.3483 10.6791 23.2185 10.6791C21.6386 10.6791 20.0605 10.6701 18.4824 10.6899C18.0965 10.6899 18.0009 10.5566 18.0045 10.1945C18.0213 8.63325 18.0213 7.072 18.0045 5.51075C18.0045 5.15046 18.0983 5.01356 18.4824 5.01716C20.0605 5.03697 21.6404 5.01716 23.2185 5.01716C23.3393 5.03337 23.4548 5.04958 23.6315 5.06039ZM19.1461 6.16287V9.52796H22.5097V6.16287H19.1461Z" fill="#174176"/>
<path d="M25.9255 5.0332H27.0744C28.3964 5.0332 29.7202 5.04221 31.0421 5.0332C31.4028 5.0332 31.5471 5.11246 31.5417 5.50338C31.5219 7.09585 31.5309 8.68652 31.5417 10.279C31.5417 10.5384 31.5074 10.7041 31.181 10.7005C29.4983 10.6897 27.8138 10.7005 26.1312 10.6915C26.0634 10.6842 25.9964 10.6709 25.931 10.6519L25.9255 5.0332ZM30.4073 6.16451C29.3432 6.16451 28.3243 6.16451 27.3053 6.16451C27.0582 6.16451 27.0022 6.278 27.004 6.49417C27.004 7.16971 27.004 7.84346 27.004 8.5172C27.004 9.56383 27.0041 9.56383 28.0699 9.56383H30.4055L30.4073 6.16451Z" fill="#174176"/>
<path d="M18.046 13.5146H23.6243V19.0883C23.4764 19.0991 23.3339 19.1207 23.1896 19.1207C21.6277 19.1207 20.0641 19.1207 18.5004 19.1207C18.1397 19.1207 17.9973 19.0415 18.0027 18.6506C18.0226 17.0761 18.0027 15.4998 18.0117 13.9236C18.0135 13.8011 18.0333 13.6714 18.046 13.5146ZM22.5385 17.9948C22.5385 16.914 22.5385 15.8817 22.5241 14.8495C22.5241 14.763 22.3185 14.6117 22.2049 14.6063C21.6332 14.5811 21.0615 14.5955 20.4898 14.5955H19.1515V17.9948H22.5385Z" fill="#174176"/>
<path d="M31.5363 13.5215V14.2979C31.5363 15.7679 31.5363 17.2385 31.5363 18.7096C31.5363 18.9312 31.5363 19.1258 31.2225 19.124C29.5091 19.1132 27.7958 19.124 26.0825 19.1114C26.0286 19.1033 25.9759 19.0888 25.9255 19.0681V13.5215H31.5363ZM30.4073 14.6023C29.3252 14.6023 28.3098 14.6023 27.289 14.6023C27.0275 14.6023 27.0041 14.7537 27.0059 14.9626C27.0059 15.6688 27.0059 16.375 27.0059 17.0811V17.9819H30.4073V14.6023Z" fill="#174176"/>
<path d="M18.0441 22.5308H23.6242V28.1026C23.4781 28.1152 23.3357 28.1368 23.1914 28.1368C21.6295 28.1368 20.0659 28.1368 18.5022 28.1368C18.1415 28.1368 17.999 28.063 18.0044 27.6703C18.0243 26.094 18.0045 24.5177 18.0135 22.9433C18.0135 22.819 18.0333 22.6875 18.0441 22.5308ZM19.1461 27.0055H22.5366C22.5366 25.9373 22.5367 24.8906 22.5277 23.844C22.5134 23.7929 22.4864 23.7463 22.4492 23.7085C22.412 23.6707 22.3657 23.643 22.3148 23.6278C21.267 23.6152 20.2174 23.6278 19.1461 23.6278V27.0055Z" fill="#174176"/>
<path d="M25.9202 28.0988V22.5342H31.4949C31.5075 22.6639 31.5327 22.7918 31.5345 22.9197C31.5345 24.5104 31.5345 26.101 31.5345 27.6917C31.5345 27.9601 31.5201 28.1457 31.1612 28.1439C29.5092 28.1295 27.8554 28.1439 26.2015 28.1349C26.1071 28.1281 26.0132 28.116 25.9202 28.0988ZM30.4091 23.6132H28.2088C27.0041 23.6132 27.004 23.6132 27.004 24.804V27.0018H30.4073L30.4091 23.6132Z" fill="#174176"/>
</g>
<defs>
<clipPath id="clip0_5130_77406">
<rect width="36" height="36" fill="white"/>
</clipPath>
</defs>
</svg>
