<svg width="20" height="21" viewBox="0 0 20 21" fill="none" xmlns="http://www.w3.org/2000/svg">
<path d="M19.9847 7.0432C19.9847 7.38673 19.9918 7.73025 19.9847 8.07377C19.9661 8.73308 19.4835 9.20249 18.8162 9.21174C18.2799 9.216 17.7423 9.20036 17.206 9.216C16.5888 9.2345 16.1872 8.94645 15.9537 8.40165C15.711 7.83267 15.459 7.27151 15.2471 6.6947C15.0659 6.19684 14.7216 5.89742 14.2254 5.79927C13.2001 5.59585 12.1741 5.37253 11.1381 5.25518C9.32885 5.04608 7.55109 5.28932 5.80411 5.78006C5.22202 5.94365 4.82896 6.27081 4.64137 6.86682C4.47885 7.38459 4.24543 7.88103 4.03923 8.38529C3.8137 8.93649 3.41634 9.22952 2.79988 9.216C2.25145 9.20391 1.7023 9.216 1.15315 9.216C0.521658 9.20889 0.0326491 8.76082 0.0133178 8.13209C-0.0081614 7.4102 -0.000285688 6.68688 0.0133178 5.96427C0.0197616 5.58092 0.237417 5.28789 0.531682 5.06955C2.13689 3.86899 3.88387 2.93373 5.817 2.3868C7.16193 2.01354 8.55246 1.82732 9.94888 1.83346C12.7992 1.83346 15.4676 2.5262 17.9026 4.02689C18.368 4.31138 18.8205 4.62147 19.2766 4.92303C19.7828 5.25731 20.0513 5.70538 19.9868 6.33269C19.9739 6.56933 19.9732 6.80648 19.9847 7.0432ZM0.577505 7.02756H0.581801C0.581801 7.3469 0.573209 7.66766 0.581801 7.987C0.595404 8.41374 0.824517 8.63137 1.25911 8.63635C1.74812 8.64204 2.23856 8.61857 2.72614 8.64347C3.13496 8.6648 3.37768 8.4934 3.52302 8.12996C3.75142 7.56098 4.00558 6.99199 4.21823 6.41803C4.3094 6.1467 4.46792 5.90256 4.67914 5.70815C4.89037 5.51373 5.1475 5.37531 5.42679 5.30567C6.12487 5.11222 6.82509 4.90596 7.5382 4.79217C9.93957 4.4081 12.3102 4.54537 14.6263 5.32701C14.8894 5.40796 15.1295 5.54958 15.327 5.74031C15.5245 5.93104 15.6737 6.16546 15.7626 6.42444C15.9709 6.99342 16.2158 7.5432 16.4406 8.10364C16.5903 8.47633 16.8459 8.66054 17.2647 8.64204C17.7408 8.62213 18.2191 8.64204 18.6966 8.63635C19.1742 8.63066 19.3983 8.40734 19.4069 7.93864C19.4155 7.41731 19.3768 6.89313 19.4198 6.37394C19.4606 5.87963 19.2601 5.54251 18.8606 5.31208C17.7802 4.68904 16.7377 3.97354 15.5965 3.4892C12.9553 2.3683 10.1844 2.19548 7.35562 2.63146C5.13611 2.97285 3.18937 3.9202 1.35004 5.14992C0.785852 5.52829 0.44362 5.96569 0.574643 6.67265C0.586352 6.79063 0.587309 6.90941 0.577505 7.02756Z" fill="#134076"/>
<path d="M9.96209 19.1668H3.23981C2.14437 19.1668 1.42625 18.6149 1.2895 17.5431C1.20632 16.9216 1.22081 16.291 1.33246 15.674C1.42983 15.1683 1.70548 14.6825 1.96753 14.2252C3.13886 12.1776 4.33382 10.1442 5.51947 8.10436C6.02925 7.22813 6.7803 6.79285 7.81059 6.80423C9.2769 6.82035 10.7437 6.82035 12.211 6.80423C13.2577 6.79357 14.0238 7.26084 14.5314 8.13494C15.834 10.3786 17.123 12.632 18.3984 14.8952C18.5824 15.223 18.6633 15.6284 18.7077 16.0075C18.76 16.452 18.727 16.9065 18.7184 17.3589C18.6984 18.4022 17.9144 19.1675 16.8669 19.1682C14.5648 19.1682 12.2632 19.1677 9.96209 19.1668ZM9.96209 18.5943C12.2761 18.5943 14.5911 18.5943 16.907 18.5943C17.5013 18.5943 18.0082 18.2806 18.0948 17.7173C18.2294 16.8446 18.3426 15.9456 17.8686 15.1178C16.5798 12.8632 15.2851 10.611 13.9844 8.36111C13.605 7.7082 13.0043 7.37891 12.2367 7.37819C10.794 7.37819 9.35064 7.39242 7.90724 7.37179C6.98936 7.35899 6.34141 7.74305 5.89536 8.52825C4.8751 10.3213 3.86414 12.12 2.80593 13.8902C2.1816 14.9343 1.66037 15.9648 1.80357 17.2458C1.89593 18.0886 2.3205 18.5935 3.17036 18.5935C5.43236 18.5954 7.69627 18.5957 9.96209 18.5943Z" fill="#134076"/>
<path d="M0.577527 7.02758C0.588327 6.90928 0.588327 6.79026 0.577527 6.67197C0.446504 5.96501 0.79232 5.5276 1.35293 5.14923C3.19226 3.91951 5.14186 2.97216 7.35851 2.63077C10.1837 2.19479 12.9581 2.36761 15.5994 3.48993C16.7406 3.97428 17.7831 4.68977 18.8635 5.31281C19.263 5.54325 19.4635 5.88179 19.4227 6.37467C19.3797 6.89245 19.4184 7.41662 19.4098 7.93937C19.4012 8.40807 19.1685 8.63282 18.6995 8.63709C18.2306 8.64136 17.7444 8.62286 17.2676 8.64278C16.8487 8.66127 16.5931 8.47706 16.4435 8.10438C16.2187 7.54393 15.9738 6.99131 15.7655 6.42517C15.6766 6.16619 15.5274 5.93177 15.3299 5.74104C15.1324 5.55031 14.8923 5.40869 14.6292 5.32775C12.3138 4.54539 9.94318 4.40884 7.54108 4.7929C6.82511 4.9067 6.12775 5.11295 5.42968 5.30641C5.15039 5.37605 4.89326 5.51447 4.68203 5.70888C4.4708 5.90329 4.31229 6.14744 4.22112 6.41877C4.00632 6.99629 3.7543 7.55673 3.5259 8.13069C3.38271 8.49413 3.13785 8.66554 2.72903 8.6442C2.24145 8.61931 1.75101 8.6442 1.262 8.63709C0.827402 8.63211 0.598289 8.41305 0.584685 7.98774C0.574662 7.6684 0.584685 7.34763 0.584685 7.02829L0.577527 7.02758Z" fill="#F39132" fill-opacity="0.9"/>
<path d="M9.9622 18.595C7.69591 18.595 5.42985 18.595 3.16404 18.595C2.31418 18.595 1.8896 18.09 1.79724 17.2472C1.65405 15.967 2.17814 14.9357 2.7996 13.8916C3.85781 12.1214 4.86877 10.3227 5.88903 8.52969C6.33508 7.74734 6.98304 7.36043 7.90091 7.37323C9.34432 7.39386 10.7877 7.3775 12.2304 7.37963C12.9979 7.37963 13.5986 7.70964 13.9781 8.36255C15.2836 10.6086 16.5783 12.8608 17.8623 15.1192C18.3362 15.9471 18.2202 16.8461 18.0885 17.7188C18.0019 18.282 17.495 18.595 16.9007 18.5957C14.5886 18.5966 12.2758 18.5964 9.9622 18.595ZM10.0052 9.8988C8.4694 9.8988 7.19138 11.1484 7.18494 12.6648C7.1785 14.1811 8.4515 15.4649 9.97724 15.4734C11.503 15.4819 12.7767 14.2174 12.7867 12.6939C12.7881 11.9577 12.4965 11.2508 11.9755 10.7273C11.4544 10.2037 10.7462 9.90593 10.0052 9.8988Z" fill="#F39132" fill-opacity="0.9"/>
<path d="M10.005 9.89881C10.7457 9.9065 11.4534 10.2045 11.9739 10.728C12.4945 11.2515 12.7858 11.9581 12.7844 12.6939C12.7744 14.2174 11.4957 15.4827 9.97492 15.4734C8.4542 15.4642 7.17833 14.1825 7.18263 12.6648C7.18692 11.147 8.46637 9.89596 10.005 9.89881ZM9.98566 10.4628C8.53009 10.5105 7.7819 11.6719 7.7597 12.7053C7.73536 13.8582 8.84655 14.9101 9.99998 14.9044C11.1534 14.8987 12.2668 13.8376 12.2267 12.6911C12.1894 11.6178 11.4205 10.5048 9.98566 10.4628Z" fill="#134076"/>
</svg>
