<svg width="21" height="21" viewBox="0 0 21 21" fill="none" xmlns="http://www.w3.org/2000/svg">
<g clip-path="url(#clip0_1170_11759)">
<path d="M4.45921 18.9635H0.983398V8.50255C1.5619 8.50255 2.13682 8.48559 2.71054 8.50958C3.02402 8.52304 3.15623 8.42648 3.24597 8.12218C3.75926 6.38297 4.30367 4.65254 4.82773 2.91393C4.88756 2.70852 4.9761 2.61431 5.20463 2.65527C5.35302 2.67346 5.50277 2.67875 5.65211 2.67107H15.5806C16.1023 2.67107 16.1023 2.67107 16.2501 3.15795C16.7544 4.81699 17.2671 6.47251 17.7546 8.13622C17.8414 8.43233 17.9766 8.5166 18.2733 8.50548C18.8482 8.48442 19.4244 8.49904 20.0184 8.49904V18.9553H16.5354V18.029C16.5354 17.5121 16.5354 16.9953 16.5354 16.4788C16.5354 16.0692 16.5354 16.0692 16.1244 16.0692H5.92491C5.55639 16.0692 5.18668 16.0844 4.81876 16.0645C4.54536 16.0498 4.45024 16.14 4.45443 16.4103C4.46759 17.2495 4.45921 18.0881 4.45921 18.9635ZM10.5326 9.06552C7.64228 9.06552 4.75235 9.06376 1.86282 9.06025C1.58165 9.06025 1.49011 9.13106 1.49191 9.41897C1.50507 11.3197 1.49849 13.2228 1.49849 15.1211C1.49849 15.5308 1.50687 15.5436 1.9382 15.5436C7.64787 15.5436 13.3579 15.5436 19.0684 15.5436C19.4788 15.5436 19.4973 15.5214 19.4973 15.1059C19.4973 13.2247 19.4973 11.3433 19.4973 9.46169C19.4973 9.06727 19.4973 9.06552 19.0828 9.06552H10.5326ZM17.2659 8.48032C17.2586 8.39924 17.246 8.31871 17.2282 8.23922C16.7496 6.67147 16.265 5.10607 15.796 3.53599C15.7176 3.27382 15.5908 3.19775 15.3132 3.19833C12.113 3.20887 8.91256 3.20887 5.71194 3.19833C5.37931 3.19833 5.26385 3.31537 5.1801 3.59744C4.75654 5.01713 4.31743 6.43213 3.88549 7.84948C3.82567 8.04961 3.77362 8.25209 3.71021 8.48266L17.2659 8.48032ZM2.71831 16.0703C2.38988 16.0703 2.06024 16.0768 1.7336 16.0703C1.55891 16.0656 1.47994 16.1189 1.48174 16.3044C1.48832 16.9481 1.48712 17.5918 1.48174 18.2315C1.48174 18.3947 1.54156 18.455 1.70967 18.4532C2.37692 18.4482 3.04356 18.4482 3.70961 18.4532C3.87951 18.4532 3.93694 18.3824 3.93634 18.2244C3.93196 17.5823 3.93196 16.9399 3.93634 16.2974C3.93634 16.1353 3.86874 16.0703 3.70362 16.0732C3.37638 16.0744 3.04795 16.0703 2.71831 16.0703ZM17.0511 17.2343C17.0511 17.5462 17.0589 17.8581 17.0511 18.1706C17.0445 18.3637 17.0978 18.4544 17.3173 18.4509C17.964 18.4404 18.6113 18.4433 19.2586 18.4509C19.4309 18.4509 19.5141 18.4047 19.5123 18.2215C19.5057 17.5778 19.5075 16.9341 19.5123 16.2904C19.5123 16.1283 19.4465 16.0662 19.2796 16.0674C18.6215 16.0732 17.9634 16.0744 17.3054 16.0674C17.1055 16.0674 17.0433 16.1441 17.0493 16.329C17.0589 16.6304 17.0523 16.9323 17.0523 17.2343H17.0511Z" fill="#134076"/>
<path d="M10.5329 9.06552H19.083C19.4964 9.06552 19.4976 9.06552 19.4976 9.4617C19.4976 11.3433 19.4976 13.2247 19.4976 15.1059C19.4976 15.5214 19.4791 15.5436 19.0687 15.5436C13.3582 15.5436 7.64815 15.5436 1.93848 15.5436C1.50714 15.5436 1.49937 15.5325 1.49877 15.1211C1.49877 13.2204 1.50535 11.3174 1.49219 9.41898C1.49219 9.13106 1.58193 9.05909 1.8631 9.06026C4.75343 9.06845 7.64336 9.07021 10.5329 9.06552ZM3.34077 11.9915C3.34077 12.6592 3.8439 13.1777 4.52829 13.1496C5.242 13.1204 5.66855 12.7049 5.6829 11.9933C5.69607 11.3291 5.19294 10.8369 4.52829 10.8258C3.86364 10.8147 3.34316 11.325 3.34077 11.9944V11.9915ZM15.3111 11.978C15.3003 12.6411 15.7771 13.1566 16.4478 13.1484C17.1657 13.1402 17.6251 12.7283 17.6496 12.0067C17.6575 11.8527 17.633 11.6987 17.5775 11.5544C17.522 11.41 17.4368 11.2783 17.3271 11.1675C17.2174 11.0568 17.0857 10.9692 16.9399 10.9103C16.7942 10.8514 16.6377 10.8224 16.4801 10.8252C15.8202 10.8264 15.3213 11.3174 15.3111 11.981V11.978Z" fill="#F39132" fill-opacity="0.9"/>
<path d="M3.34083 11.9944C3.34083 11.325 3.85951 10.8176 4.52835 10.8287C5.19719 10.8398 5.69612 11.332 5.68296 11.9962C5.6686 12.7078 5.24206 13.1233 4.52835 13.1525C3.84395 13.1806 3.33844 12.6621 3.34083 11.9944ZM4.50741 12.5972C4.87114 12.5972 5.13856 12.3455 5.13975 11.9979C5.13767 11.835 5.07136 11.6792 4.95466 11.563C4.83795 11.4467 4.67987 11.3791 4.51339 11.3741C4.2017 11.3741 3.87566 11.6866 3.87446 11.9909C3.87378 12.0718 3.88979 12.152 3.92153 12.2267C3.95326 12.3014 4.00007 12.3691 4.05916 12.4257C4.11825 12.4823 4.18841 12.5266 4.26542 12.5561C4.34244 12.5856 4.42475 12.5995 4.50741 12.5972Z" fill="#134076"/>
<path d="M15.3107 11.981C15.3209 11.3173 15.8204 10.8264 16.4815 10.8287C16.6391 10.8259 16.7957 10.8549 16.9414 10.9138C17.0871 10.9727 17.2189 11.0603 17.3286 11.171C17.4382 11.2818 17.5234 11.4135 17.5789 11.5579C17.6344 11.7022 17.659 11.8562 17.6511 12.0102C17.6265 12.7318 17.1665 13.1437 16.4492 13.1519C15.7768 13.1595 15.3 12.644 15.3107 11.981ZM16.4815 12.5972C16.564 12.5992 16.6462 12.5851 16.723 12.5556C16.7999 12.5262 16.87 12.482 16.9292 12.4257C16.9884 12.3694 17.0355 12.3021 17.0677 12.2277C17.0999 12.1533 17.1166 12.0734 17.1168 11.9927C17.1168 11.6901 16.7896 11.3747 16.4767 11.3753C16.3106 11.3797 16.1526 11.4468 16.036 11.5627C15.9195 11.6786 15.8533 11.8342 15.8515 11.9968C15.8527 12.3473 16.1154 12.5978 16.4815 12.5972Z" fill="#134076"/>
</g>
<defs>
<clipPath id="clip0_1170_11759">
<rect width="20.3934" height="20.3934" fill="white" transform="translate(0.303711 0.606628)"/>
</clipPath>
</defs>
</svg>
