<svg width="20" height="20" viewBox="0 0 20 20" fill="none" xmlns="http://www.w3.org/2000/svg">
<g clip-path="url(#clip0_1849_18462)">
<path d="M10.0254 -0.00476819C11.1938 -0.00476819 12.3614 -0.00978077 13.5298 0.00168095C13.6655 0.00799931 13.7947 0.0620374 13.8945 0.154266C15.8831 2.12998 17.865 4.1119 19.8402 6.10004C19.9328 6.20011 19.9866 6.3299 19.9921 6.46609C20.0016 8.82721 20.0016 11.1881 19.9921 13.5487C19.9865 13.6769 19.9358 13.799 19.8488 13.8933C17.8659 15.8872 15.8778 17.875 13.8844 19.857C13.7905 19.9442 13.6686 19.995 13.5406 20.0002C11.1794 20.0088 8.8181 20.0088 6.45651 20.0002C6.32873 19.9948 6.20708 19.944 6.11337 19.857C4.11903 17.8741 2.13066 15.8862 0.148254 13.8933C0.0611878 13.7987 0.0104284 13.6764 0.00498238 13.548C-0.00361392 11.1874 -0.00361392 8.82649 0.00498238 6.46538C0.0108257 6.32934 0.0649265 6.19982 0.157576 6.10004C2.13377 4.11143 4.11569 2.1295 6.10335 0.154266C6.20358 0.0624052 6.33287 0.00865639 6.46868 0.00239801C7.65568 -0.00906372 8.8384 -0.00476819 10.0254 -0.00476819ZM19.376 10.0028C19.376 8.93466 19.3717 7.86729 19.3803 6.7992C19.3844 6.70927 19.3688 6.61952 19.3343 6.53633C19.2999 6.45314 19.2476 6.37854 19.1812 6.31781C17.342 4.48775 15.5072 2.6534 13.6767 0.814745C13.6163 0.74765 13.542 0.69455 13.459 0.659162C13.376 0.623773 13.2862 0.606951 13.196 0.609868C11.0684 0.616077 8.94083 0.616077 6.81325 0.609868C6.72314 0.605776 6.63321 0.621338 6.54971 0.65548C6.46621 0.689622 6.39114 0.741525 6.32971 0.807584C4.49345 2.65244 2.65288 4.49277 0.808017 6.32856C0.745016 6.3871 0.695633 6.45876 0.663329 6.53847C0.631024 6.61817 0.616594 6.704 0.621057 6.78989C0.626311 8.93371 0.626311 11.0775 0.621057 13.2213C0.617257 13.3073 0.632271 13.3931 0.66506 13.4726C0.697849 13.5522 0.747617 13.6236 0.810885 13.682C2.65575 15.5182 4.49655 17.3583 6.3333 19.2022C6.39086 19.2662 6.46172 19.3169 6.54091 19.3507C6.6201 19.3845 6.70571 19.4006 6.79176 19.3978C8.92794 19.3921 11.0639 19.3921 13.1996 19.3978C13.2857 19.4018 13.3717 19.387 13.4515 19.3543C13.5313 19.3217 13.6031 19.272 13.6616 19.2087C15.5041 17.359 17.3506 15.513 19.2012 13.6705C19.2613 13.6145 19.3084 13.5461 19.3392 13.47C19.37 13.3939 19.3838 13.3119 19.3796 13.2299C19.3732 12.1518 19.376 11.0773 19.376 10.0028Z" fill="#174176"/>
<path d="M19.3759 10.0022C19.3759 11.0767 19.3759 12.1513 19.3794 13.2301C19.3836 13.3121 19.3698 13.394 19.339 13.4701C19.3082 13.5462 19.2611 13.6147 19.2011 13.6707C17.351 15.5127 15.5044 17.3587 13.6615 19.2088C13.6029 19.2721 13.5312 19.3218 13.4514 19.3545C13.3716 19.3872 13.2856 19.402 13.1994 19.3979C11.0637 19.3922 8.92779 19.3922 6.79161 19.3979C6.70556 19.4007 6.61995 19.3846 6.54076 19.3508C6.46157 19.3171 6.39071 19.2664 6.33315 19.2024C4.49593 17.3585 2.65512 15.5184 0.810737 13.6821C0.747469 13.6238 0.697702 13.5523 0.664912 13.4728C0.632123 13.3932 0.61711 13.3075 0.62091 13.2215C0.626163 11.0777 0.626163 8.93385 0.62091 6.79003C0.616447 6.70414 0.630877 6.61832 0.663181 6.53861C0.695485 6.4589 0.744868 6.38725 0.807869 6.3287C2.65273 4.49243 4.4933 2.65211 6.32956 0.807731C6.39099 0.741672 6.46606 0.689769 6.54956 0.655627C6.63306 0.621486 6.72299 0.605923 6.8131 0.610015C8.94069 0.615746 11.0683 0.615746 13.1959 0.610015C13.2861 0.607098 13.3758 0.62392 13.4588 0.659309C13.5419 0.694697 13.6162 0.747797 13.6765 0.814893C15.5075 2.65307 17.3424 4.48742 19.181 6.31796C19.2475 6.37868 19.2998 6.45329 19.3342 6.53648C19.3686 6.61967 19.3843 6.70941 19.3802 6.79935C19.3687 7.86314 19.3759 8.92765 19.3759 10.0022ZM10.4859 9.99073L13.1364 7.2836C13.0139 7.12887 12.8878 6.96912 12.741 6.78215L9.94717 9.53225L7.2816 6.8631L6.85179 7.24421L9.53957 9.96135L6.8131 12.7021L7.27228 13.2136C8.21501 12.2867 9.12766 11.3891 10.0539 10.4793L12.7761 13.1685L13.1858 12.7466L10.4859 9.99073Z" fill="#FF4343"/>
<path d="M10.4862 9.9908L13.1833 12.7466L12.7735 13.1686L10.0513 10.4793C9.1251 11.3891 8.21247 12.2867 7.26974 13.2137L6.81055 12.7022L9.53701 9.96142L6.84923 7.24428L7.27905 6.86318L9.94461 9.53233L12.7384 6.78223C12.8817 6.9692 13.0113 7.12894 13.1338 7.28368L10.4862 9.9908Z" fill="#174176"/>
</g>
<defs>
<clipPath id="clip0_1849_18462">
<rect width="20" height="20.0122" fill="white" transform="translate(0 -0.00585938)"/>
</clipPath>
</defs>
</svg>
