<svg width="21" height="21" viewBox="0 0 21 21" fill="none" xmlns="http://www.w3.org/2000/svg">
<g clip-path="url(#clip0_1170_11774)">
<path d="M20.62 7.8039C20.026 8.15403 19.3574 8.35836 18.6691 8.40014C17.9152 8.34304 17.1866 8.103 16.5464 7.70082C15.7775 7.21354 14.8977 6.92913 13.989 6.87417C13.3107 6.8992 12.6456 7.06871 12.0381 7.37138V2.13054C12.6322 1.78056 13.3007 1.57623 13.989 1.5343C14.743 1.59108 15.4717 1.83114 16.1117 2.23362C16.8806 2.7209 17.7604 3.00531 18.6691 3.06027C19.3474 3.03525 20.0125 2.86573 20.62 2.56307V7.8039Z" fill="#F5A75B"/>
<path d="M20.5037 2.01433L20.4926 2.00827C20.4573 1.98902 20.4176 1.97894 20.3774 1.97896C20.3291 1.97918 20.282 1.99359 20.2419 2.0204C19.6658 2.39263 19.0054 2.61432 18.3214 2.66514H18.3062C17.6224 2.61293 16.9624 2.39135 16.3856 2.0204C15.7275 1.59451 14.9714 1.34403 14.1891 1.29278C13.6076 1.31673 13.038 1.46563 12.5192 1.72935L12.3726 1.80515V1.52421C12.3726 1.2779 12.2748 1.04167 12.1005 0.867504C11.9263 0.693335 11.6901 0.59549 11.4437 0.59549C11.1973 0.59549 10.961 0.693335 10.7868 0.867504C10.6126 1.04167 10.5148 1.2779 10.5148 1.52421V10.2151H9.39274C9.35963 10.213 9.32644 10.2177 9.29521 10.2289C9.26398 10.2401 9.23536 10.2575 9.21116 10.2802C9.18695 10.3029 9.16769 10.3303 9.1545 10.3607C9.14131 10.3912 9.13451 10.424 9.13451 10.4572C9.13451 10.4903 9.14131 10.5232 9.1545 10.5536C9.16769 10.584 9.18695 10.6114 9.21116 10.6341C9.23536 10.6568 9.26398 10.6743 9.29521 10.6855C9.32644 10.6967 9.35963 10.7013 9.39274 10.6992H12.9701C13.1251 10.699 13.275 10.7545 13.3925 10.8556C13.5099 10.9567 13.5871 11.0967 13.6099 11.25C13.619 11.3358 13.6099 11.4227 13.5832 11.5048C13.5566 11.587 13.513 11.6626 13.4552 11.7268C13.3975 11.791 13.3269 11.8424 13.248 11.8776C13.1691 11.9128 13.0837 11.931 12.9974 11.9311H12.1391C12.106 11.929 12.0728 11.9336 12.0416 11.9448C12.0104 11.956 11.9818 11.9735 11.9576 11.9962C11.9334 12.0189 11.9141 12.0463 11.9009 12.0767C11.8877 12.1071 11.8809 12.14 11.8809 12.1731C11.8809 12.2063 11.8877 12.2391 11.9009 12.2695C11.9141 12.3 11.9334 12.3274 11.9576 12.3501C11.9818 12.3728 12.0104 12.3902 12.0416 12.4014C12.0728 12.4126 12.106 12.4173 12.1391 12.4152H12.9974C13.0804 12.4118 13.1632 12.4252 13.2409 12.4547C13.3186 12.4841 13.3894 12.5289 13.4494 12.5865C13.5093 12.644 13.557 12.713 13.5895 12.7894C13.6221 12.8659 13.6389 12.948 13.6389 13.0311C13.6389 13.1142 13.6221 13.1964 13.5895 13.2728C13.557 13.3492 13.5093 13.4182 13.4494 13.4757C13.3894 13.5333 13.3186 13.5781 13.2409 13.6075C13.1632 13.637 13.0804 13.6504 12.9974 13.647H12.1391C12.106 13.6449 12.0728 13.6496 12.0416 13.6608C12.0104 13.672 11.9818 13.6894 11.9576 13.7121C11.9334 13.7348 11.9141 13.7622 11.9009 13.7927C11.8877 13.8231 11.8809 13.8559 11.8809 13.8891C11.8809 13.9222 11.8877 13.9551 11.9009 13.9855C11.9141 14.0159 11.9334 14.0433 11.9576 14.066C11.9818 14.0887 12.0104 14.1062 12.0416 14.1174C12.0728 14.1286 12.106 14.1332 12.1391 14.1311H12.9974C13.0804 14.1277 13.1632 14.1412 13.2409 14.1706C13.3186 14.2001 13.3894 14.2449 13.4494 14.3024C13.5093 14.36 13.557 14.429 13.5895 14.5054C13.6221 14.5818 13.6389 14.664 13.6389 14.7471C13.6389 14.8301 13.6221 14.9123 13.5895 14.9887C13.557 15.0651 13.5093 15.1342 13.4494 15.1917C13.3894 15.2492 13.3186 15.294 13.2409 15.3235C13.1632 15.3529 13.0804 15.3664 12.9974 15.363H12.1391C12.106 15.3609 12.0728 15.3655 12.0416 15.3767C12.0104 15.3879 11.9818 15.4054 11.9576 15.4281C11.9334 15.4508 11.9141 15.4782 11.9009 15.5086C11.8877 15.539 11.8809 15.5719 11.8809 15.605C11.8809 15.6382 11.8877 15.671 11.9009 15.7015C11.9141 15.7319 11.9334 15.7593 11.9576 15.782C11.9818 15.8047 12.0104 15.8221 12.0416 15.8333C12.0728 15.8445 12.106 15.8492 12.1391 15.8471H12.9974C13.0804 15.8437 13.1632 15.8571 13.2409 15.8866C13.3186 15.916 13.3894 15.9609 13.4494 16.0184C13.5093 16.0759 13.557 16.1449 13.5895 16.2214C13.6221 16.2978 13.6389 16.38 13.6389 16.463C13.6389 16.5461 13.6221 16.6283 13.5895 16.7047C13.557 16.7811 13.5093 16.8501 13.4494 16.9076C13.3894 16.9652 13.3186 17.01 13.2409 17.0394C13.1632 17.0689 13.0804 17.0823 12.9974 17.079H9.27043C8.84332 17.0805 8.43413 17.2509 8.13222 17.5529L7.67434 18.0107L3.21053 13.548L6.83942 9.91904C7.43878 9.32175 8.25028 8.98602 9.09655 8.98527H9.39274C9.45708 8.98527 9.51881 8.95972 9.5643 8.91423C9.6098 8.86875 9.63533 8.80706 9.63533 8.74273C9.63533 8.67841 9.6098 8.61672 9.5643 8.57123C9.51881 8.52575 9.45708 8.5002 9.39274 8.5002H9.08949C8.11828 8.50311 7.18768 8.89002 6.50079 9.57646L2.87194 13.2044L2.80116 13.1438C2.62844 12.9963 2.40871 12.9153 2.18154 12.9154H2.15627C1.92175 12.9211 1.69769 13.0137 1.52751 13.1751L0.295325 14.406C0.261761 14.4399 0.239035 14.4831 0.229977 14.5299C0.220918 14.5768 0.225943 14.6253 0.244438 14.6693C0.262933 14.7133 0.294049 14.7509 0.333872 14.7772C0.373696 14.8035 0.420425 14.8175 0.468172 14.8173C0.499449 14.8175 0.530464 14.8116 0.559432 14.7998C0.588401 14.788 0.614745 14.7706 0.636971 14.7486L1.86916 13.5167C1.95364 13.4358 2.06607 13.3907 2.18302 13.3907C2.29997 13.3907 2.4124 13.4358 2.49688 13.5167L7.70568 18.7242C7.78828 18.8079 7.83455 18.9208 7.83455 19.0385C7.83455 19.1561 7.78828 19.269 7.70568 19.3527L6.47349 20.5846C6.45063 20.607 6.43244 20.6338 6.42004 20.6633C6.40764 20.6928 6.40128 20.7244 6.40128 20.7564C6.40128 20.7884 6.40764 20.8201 6.42004 20.8496C6.43244 20.8791 6.45063 20.9058 6.47349 20.9282C6.49589 20.9507 6.5225 20.9685 6.55182 20.9807C6.58114 20.9928 6.61258 20.999 6.64432 20.999C6.67636 20.9989 6.70804 20.9924 6.73755 20.9799C6.76706 20.9674 6.79377 20.9492 6.81613 20.9262L8.04733 19.6953C8.21449 19.5279 8.3111 19.3028 8.31731 19.0663C8.32351 18.8298 8.23885 18.6 8.08069 18.424L8.01702 18.3523L8.4749 17.8955C8.57984 17.7905 8.70451 17.7072 8.84172 17.6505C8.97894 17.5938 9.12601 17.5648 9.27448 17.565H12.9974C13.216 17.5648 13.4295 17.4996 13.6109 17.3776C13.7923 17.2555 13.9332 17.0823 14.0157 16.8799C14.0982 16.6775 14.1186 16.4552 14.0742 16.2412C14.0299 16.0272 13.9228 15.8312 13.7666 15.6783L13.6928 15.6065L13.7666 15.5338C13.8712 15.4314 13.9543 15.3092 14.011 15.1742C14.0678 15.0393 14.097 14.8944 14.097 14.7481C14.097 14.6017 14.0678 14.4568 14.011 14.3219C13.9543 14.187 13.8712 14.0647 13.7666 13.9623L13.6928 13.8906L13.7666 13.8178C13.8712 13.7154 13.9543 13.5932 14.011 13.4583C14.0678 13.3234 14.097 13.1785 14.097 13.0321C14.097 12.8857 14.0678 12.7409 14.011 12.6059C13.9543 12.471 13.8712 12.3488 13.7666 12.2464L13.6928 12.1746L13.7666 12.1019C13.7828 12.0867 13.7979 12.0706 13.8131 12.0544C13.9157 11.94 13.9934 11.8056 14.0414 11.6597C14.0895 11.5137 14.1067 11.3594 14.0921 11.2065C14.0561 10.9327 13.9218 10.6812 13.7144 10.4989C13.5069 10.3166 13.2402 10.2157 12.964 10.2151H12.3807V7.84939L12.4293 7.82008C12.9642 7.49773 13.5688 7.30882 14.1921 7.26932H14.2063C14.8901 7.3217 15.55 7.54327 16.1269 7.91406C16.7611 8.38643 17.5309 8.64157 18.3219 8.64157C19.1128 8.64157 19.8826 8.38643 20.5168 7.91406C20.55 7.89178 20.5771 7.86168 20.5958 7.82643C20.6145 7.79117 20.6241 7.75185 20.624 7.71195V2.2215C20.6236 2.17951 20.6123 2.13835 20.5912 2.10204C20.5701 2.06572 20.54 2.0355 20.5037 2.01433ZM11.7944 10.1161H11.1111V1.52623C11.1117 1.4808 11.1216 1.43596 11.14 1.39442C11.1584 1.35288 11.185 1.3155 11.2182 1.28453C11.2515 1.25356 11.2907 1.22963 11.3334 1.21421C11.3761 1.19878 11.4216 1.19216 11.467 1.19476C11.5547 1.19503 11.6388 1.23007 11.7008 1.2922C11.7627 1.35433 11.7975 1.43849 11.7975 1.52623L11.7944 10.1161ZM20.0347 7.51994C19.5134 7.83439 18.9239 8.01847 18.3163 8.05655C17.6505 8.00503 17.0079 7.78904 16.4462 7.42798C15.7728 6.99031 14.9978 6.73377 14.1962 6.68318C13.5977 6.70595 13.0113 6.85872 12.4778 7.13087V2.41452C12.999 2.09992 13.5885 1.91583 14.1962 1.87791C14.8618 1.92948 15.5041 2.14585 16.0652 2.50749C16.7393 2.94431 17.5145 3.20044 18.3163 3.25128C18.9148 3.22838 19.5011 3.07562 20.0347 2.80359V7.51994Z" fill="#174176"/>
</g>
<defs>
<clipPath id="clip0_1170_11774">
<rect width="20.3934" height="20.3934" fill="white" transform="translate(0.225586 0.606628)"/>
</clipPath>
</defs>
</svg>
