<svg width="39" height="31" viewBox="0 0 39 31" fill="none" xmlns="http://www.w3.org/2000/svg">
<g clip-path="url(#clip0_5130_77396)">
<path d="M13.6005 31.001C6.42409 31.0825 -0.0967431 25.2328 0.000962107 17.3112C0.093782 9.82165 6.08897 3.89817 13.6738 3.92244C21.0926 3.94574 27.2431 9.77117 27.2441 17.5005C27.2441 25.2726 20.8337 31.0845 13.6005 31.001ZM13.5956 30.1145C20.4897 30.1611 26.3853 24.5542 26.3735 17.453C26.3618 10.3226 20.4487 4.84383 13.6474 4.81956C6.71037 4.79431 0.857817 10.5188 0.860749 17.4724C0.86368 24.426 6.72207 30.165 13.5956 30.1126V30.1145Z" fill="#134076"/>
<path d="M33.6321 2.7293V4.6711C33.6321 5.342 33.6321 5.34297 34.3327 5.34297C35.7328 5.34297 37.1339 5.35559 38.534 5.33423C38.915 5.32841 38.9971 5.46239 38.999 5.81094C39.001 6.1595 38.8935 6.28086 38.5223 6.27504C37.1544 6.25174 35.7865 6.26533 34.4186 6.26533C33.6321 6.26533 33.6321 6.26533 33.6321 7.02457C33.6321 8.38384 33.6253 9.74311 33.637 11.1024C33.637 11.448 33.5832 11.6276 33.1612 11.6335C32.7117 11.6403 32.7049 11.4111 32.7059 11.0907C32.7118 9.66738 32.6961 8.24209 32.7157 6.81874C32.7215 6.39446 32.574 6.2527 32.15 6.25853C30.8475 6.27795 29.5442 6.26533 28.2417 6.26533C28.1279 6.27213 28.0137 6.27213 27.8998 6.26533C27.6223 6.23134 27.3243 6.12358 27.4112 5.80803C27.4601 5.62162 27.7298 5.40899 27.9349 5.3653C28.2769 5.29248 28.6472 5.34491 29.0097 5.34491C30.0522 5.34491 31.0947 5.32647 32.1363 5.35365C32.5779 5.3653 32.7372 5.24297 32.7284 4.78179C32.701 3.35844 32.7284 1.93413 32.7157 0.509809C32.7157 0.14475 32.829 -0.0183645 33.2276 0.0039663C33.55 0.0224135 33.6507 0.146692 33.6458 0.449614C33.6233 1.20789 33.6321 1.97102 33.6321 2.7293Z" fill="#134076"/>
<path d="M13.5957 30.1124C6.72216 30.1649 0.863772 24.4365 0.860841 17.4703C0.85791 10.5041 6.70265 4.79222 13.6475 4.81747C20.4488 4.84174 26.3619 10.3205 26.3736 17.4509C26.3854 24.5521 20.4898 30.159 13.5957 30.1124ZM13.8977 26.191C14.3119 26.1094 14.9861 26.0065 15.6446 25.8385C18.0872 25.2171 19.5528 23.4734 20.7468 21.418C20.8865 21.1782 20.821 21.0219 20.565 20.9325C20.3335 20.8519 20.1283 20.6772 19.9055 21.017C19.448 21.7398 18.9475 22.4349 18.4067 23.0986C16.4947 25.3569 12.9685 25.922 10.4115 24.4123C9.07101 23.621 8.11934 22.4704 7.41391 21.1112C7.23218 20.7626 7.04459 20.7966 6.75636 20.9102C6.41634 21.0442 6.40073 21.2549 6.58051 21.5131C7.0788 22.2267 7.53995 22.9695 8.0998 23.6375C9.53607 25.3433 11.4511 26.0735 13.8977 26.191ZM9.62792 14.5624C9.62792 13.9799 9.29767 13.6391 8.74075 13.6265C8.61895 13.6258 8.49825 13.6493 8.38567 13.6955C8.27308 13.7417 8.17087 13.8097 8.08501 13.8955C7.99916 13.9814 7.93137 14.0834 7.88559 14.1955C7.83982 14.3077 7.81699 14.4278 7.81842 14.5488C7.81466 14.6698 7.83578 14.7903 7.88049 14.9028C7.9252 15.0154 7.99259 15.1177 8.07848 15.2035C8.16436 15.2893 8.26695 15.3568 8.37999 15.4018C8.49303 15.4468 8.61414 15.4685 8.73589 15.4654C9.3231 15.4595 9.63379 15.1479 9.62792 14.5624ZM18.5191 15.4693C19.0672 15.4693 19.4454 15.1042 19.4405 14.5731C19.4356 14.0226 19.033 13.6187 18.4966 13.6274C18.2516 13.6375 18.0199 13.7411 17.8499 13.9167C17.6798 14.0924 17.5846 14.3265 17.5841 14.5702C17.5847 14.6902 17.6094 14.8088 17.6568 14.9192C17.7042 15.0296 17.7732 15.1294 17.86 15.2129C17.9467 15.2964 18.0493 15.3618 18.1619 15.4053C18.2744 15.4488 18.3945 15.4696 18.5152 15.4663L18.5191 15.4693Z" fill="#F39132" fill-opacity="0.9"/>
<path d="M13.8975 26.191C11.4549 26.0735 9.534 25.3434 8.09968 23.6395C7.53983 22.9754 7.07868 22.2287 6.58039 21.5151C6.40061 21.2569 6.41622 21.0462 6.75624 20.9122C7.04447 20.7986 7.23206 20.7646 7.41379 21.1132C8.11922 22.4724 9.0748 23.6201 10.4114 24.4143C12.9683 25.924 16.4945 25.3589 18.4066 23.1006C18.9474 22.437 19.4479 21.7418 19.9054 21.019C20.1282 20.6792 20.3334 20.8539 20.5649 20.9345C20.8209 21.0248 20.8864 21.1811 20.7467 21.42C19.5557 23.4754 18.0871 25.2191 15.6445 25.8405C14.986 26.0065 14.3118 26.1095 13.8975 26.191Z" fill="#134076"/>
<path d="M9.6278 14.5624C9.6278 15.145 9.32297 15.4595 8.73576 15.4654C8.61402 15.4685 8.49291 15.4468 8.37986 15.4018C8.26682 15.3568 8.16424 15.2893 8.07835 15.2035C7.99247 15.1177 7.92508 15.0154 7.88037 14.9028C7.83565 14.7903 7.81454 14.6698 7.8183 14.5488C7.81687 14.4278 7.8397 14.3077 7.88547 14.1955C7.93124 14.0834 7.99903 13.9814 8.08489 13.8955C8.17074 13.8097 8.27296 13.7417 8.38554 13.6955C8.49813 13.6493 8.61883 13.6258 8.74063 13.6265C9.29755 13.6391 9.62389 13.9847 9.6278 14.5624Z" fill="#134076"/>
<path d="M18.5151 15.4665C18.3938 15.4702 18.273 15.4498 18.1599 15.4063C18.0467 15.3628 17.9434 15.2972 17.8563 15.2134C17.7691 15.1296 17.6997 15.0292 17.6523 14.9182C17.6048 14.8073 17.5803 14.688 17.5801 14.5674C17.5806 14.3237 17.6758 14.0896 17.8459 13.9139C18.0159 13.7383 18.2476 13.6347 18.4926 13.6247C19.029 13.6159 19.4316 14.0198 19.4365 14.5703C19.4414 15.1043 19.0632 15.4723 18.5151 15.4665Z" fill="#134076"/>
</g>
<defs>
<clipPath id="clip0_5130_77396">
<rect width="39" height="31" fill="white"/>
</clipPath>
</defs>
</svg>
