<svg width="22" height="21" viewBox="0 0 22 21" fill="none" xmlns="http://www.w3.org/2000/svg">
<g clip-path="url(#clip0_1170_11762)">
<path d="M0.886941 21C0.813889 20.4799 0.82338 20.4661 1.30114 20.4639C2.13979 20.4602 2.13979 20.4602 2.13979 19.6161V1.76822C2.13979 1.18305 2.13978 1.18305 1.56851 1.17866C1.44651 1.17866 1.32524 1.17866 1.20325 1.17866C1.01623 1.18305 0.842367 1.20792 0.837984 0.916062C0.833601 0.624205 0.984089 0.609576 1.20325 0.609576C4.16139 0.613964 7.11931 0.613964 10.077 0.609576C13.6556 0.609576 17.2352 0.609576 20.8157 0.609576C20.9757 0.609576 21.2043 0.519605 21.227 0.822434C21.2438 1.05138 21.2043 1.17573 20.9209 1.17939C19.9435 1.19036 19.9442 1.20207 19.9442 2.19686C19.9442 8.12079 19.9442 14.0457 19.9442 19.9716C19.9442 20.4573 19.9442 20.4573 20.4212 20.4573H20.7865C21.2577 20.4573 21.2737 20.4814 21.1817 20.9934L0.886941 21ZM19.3693 10.8516C19.3693 7.79261 19.3693 4.73385 19.3693 1.67533C19.3693 1.21304 19.3539 1.19768 18.8995 1.19768H3.20198C2.72713 1.19768 2.70814 1.21523 2.70814 1.68996C2.70814 7.7831 2.70594 13.876 2.70156 19.9687C2.70156 20.3256 2.79289 20.4602 3.17276 20.4565C5.00979 20.44 6.84731 20.44 8.68531 20.4565C9.03231 20.4565 9.15576 20.3549 9.15138 20.0008C9.13457 18.7822 9.15138 17.5636 9.13896 16.3435C9.13531 16.0509 9.22662 15.9697 9.51372 15.9741C10.5116 15.9909 11.5102 15.9938 12.5089 15.9741C12.8362 15.9675 12.9508 16.0472 12.9472 16.3954C12.9253 17.5892 12.9377 18.7837 12.9392 19.9796C12.9392 20.4375 12.9545 20.4507 13.4125 20.4507H18.852C19.3736 20.4507 19.3758 20.4507 19.3758 19.9196C19.3744 16.8967 19.3732 13.874 19.3722 10.8516H19.3693ZM12.3642 18.532C12.3642 17.9849 12.3547 17.4348 12.3686 16.8906C12.3752 16.6317 12.2729 16.5505 12.0253 16.5549C11.3817 16.5666 10.7374 16.5695 10.0938 16.5549C9.81178 16.5476 9.7095 16.6361 9.71315 16.9287C9.72727 17.9864 9.72727 19.0443 9.71315 20.1025C9.70877 20.3951 9.81981 20.4778 10.0974 20.4682C10.741 20.4529 11.3853 20.4543 12.0289 20.4682C12.281 20.4734 12.3759 20.3951 12.3694 20.1354C12.3577 19.6022 12.3679 19.0668 12.3672 18.5313L12.3642 18.532Z" fill="#174176"/>
<path d="M19.372 10.8517C19.372 13.8751 19.372 16.897 19.372 19.9175C19.372 20.4478 19.372 20.4485 18.8482 20.4485H13.4102C12.9522 20.4485 12.9376 20.4354 12.9368 19.9775C12.9368 18.783 12.9229 17.5885 12.9449 16.3933C12.9507 16.0451 12.836 15.9654 12.5065 15.9719C11.5094 15.9924 10.5107 15.9895 9.51138 15.9719C9.22428 15.9676 9.13298 16.0451 9.13663 16.3413C9.15124 17.56 9.13224 18.7786 9.14904 19.9987C9.15343 20.3527 9.02998 20.4573 8.68298 20.4544C6.84595 20.4412 5.00843 20.4412 3.17043 20.4544C2.79055 20.458 2.69849 20.3235 2.69922 19.9665C2.70799 13.8734 2.71019 7.78046 2.7058 1.68781C2.7058 1.21308 2.7248 1.19553 3.19964 1.19553H18.8994C19.3538 1.19553 19.3691 1.21089 19.3691 1.67318C19.372 4.73364 19.373 7.79314 19.372 10.8517ZM11.028 11.7806C11.4531 11.7806 11.879 11.777 12.3035 11.7806C12.527 11.7806 12.6424 11.7002 12.6417 11.4617C12.6363 10.6112 12.6363 9.76006 12.6417 8.90814C12.6417 8.6887 12.5343 8.60093 12.329 8.60093C11.4665 8.60093 10.604 8.60093 9.74151 8.60093C9.53185 8.60093 9.43833 8.70553 9.43979 8.91912C9.44417 9.75884 9.44417 10.5981 9.43979 11.4368C9.43979 11.6892 9.54645 11.7857 9.79118 11.7799C10.2025 11.7748 10.6152 11.7814 11.028 11.7806ZM11.0163 6.62888C11.4422 6.62888 11.8688 6.61864 12.294 6.63254C12.5453 6.64132 12.6453 6.54842 12.6432 6.29606C12.6359 5.46707 12.6359 4.63807 12.6432 3.80907C12.6432 3.57719 12.5599 3.47771 12.3239 3.47917C11.4721 3.48503 10.6198 3.48503 9.76707 3.47917C9.54206 3.47917 9.43396 3.55232 9.43615 3.79736C9.44419 4.63782 9.44273 5.47974 9.43615 6.31947C9.43615 6.56232 9.54718 6.63547 9.77292 6.63035C10.1886 6.62157 10.6028 6.62888 11.0163 6.62888ZM8.13654 10.1999C8.13654 9.78591 8.12559 9.37116 8.14093 8.95642C8.1497 8.71357 8.07882 8.59507 7.8173 8.59727C6.97792 8.60531 6.13709 8.60239 5.29844 8.59727C5.08951 8.59727 4.9887 8.67042 4.99016 8.89717C4.99747 9.75006 4.99747 10.6034 4.99016 11.4573C4.99016 11.6899 5.07636 11.785 5.31232 11.7836C6.14025 11.7762 6.96818 11.7762 7.79611 11.7836C8.04229 11.7836 8.1497 11.6994 8.14093 11.442C8.12632 11.0287 8.13654 10.6139 8.13654 10.1999ZM8.13654 6.62742C8.13654 5.61946 8.14165 4.65904 8.12704 3.70154C8.12704 3.6284 7.98678 3.49746 7.90788 3.49673C7.01956 3.48161 6.13124 3.48161 5.24292 3.49673C5.15891 3.49673 5.00696 3.64302 5.0055 3.72056C4.98845 4.61003 4.98845 5.49949 5.0055 6.38896C5.0055 6.47015 5.15161 6.61791 5.23489 6.61937C6.178 6.63327 7.12768 6.62742 8.13435 6.62742H8.13654ZM17.087 10.1597C17.087 9.74641 17.0782 9.3324 17.087 8.91985C17.0943 8.68066 16.9964 8.59654 16.7662 8.598C15.9281 8.60483 15.0902 8.60483 14.2525 8.598C14.0217 8.598 13.9347 8.68358 13.9384 8.9235C13.9501 9.76274 13.9501 10.6015 13.9384 11.4398C13.9347 11.695 14.0268 11.7865 14.2766 11.7836C15.1021 11.7757 15.9278 11.7757 16.7538 11.7836C17.0117 11.7836 17.095 11.6789 17.0884 11.4346C17.0767 11.0111 17.0848 10.5847 17.0848 10.1597H17.087ZM13.9457 6.62596C14.9575 6.62596 15.9276 6.63181 16.897 6.61352C16.9613 6.61352 17.0753 6.43285 17.0767 6.3341C17.0913 5.48121 17.0826 4.62758 17.0877 3.77396C17.0877 3.58377 17.0387 3.48137 16.8225 3.48137C15.9459 3.48722 15.0692 3.48722 14.1926 3.48137C14.0019 3.48137 13.9406 3.55817 13.942 3.7447C13.9479 4.68171 13.945 5.62019 13.945 6.62596H13.9457ZM10.9995 13.403C10.8431 13.4198 10.6496 13.4389 10.4567 13.463C9.61466 13.5551 8.82894 13.9312 8.22859 14.5295C8.1044 14.6531 7.97437 14.7745 8.15554 14.9567C8.33671 15.1388 8.46674 15.103 8.65011 14.942C10.0381 13.7073 12.0251 13.711 13.438 14.9523C13.6221 15.1139 13.7572 15.1344 13.9347 14.964C14.1444 14.7636 13.9822 14.6429 13.8529 14.5149C13.0727 13.7395 12.0953 13.4615 10.9995 13.403Z" fill="#F39132" fill-opacity="0.9"/>
<path d="M11.0278 11.7812C10.6151 11.7812 10.2024 11.7746 9.78595 11.7812C9.54123 11.7871 9.43312 11.6905 9.43458 11.4382C9.4414 10.5994 9.4414 9.76018 9.43458 8.92045C9.43458 8.70686 9.52662 8.60226 9.73628 8.60226C10.5988 8.60226 11.4613 8.60226 12.3238 8.60226C12.5291 8.60226 12.6372 8.69004 12.6365 8.90948C12.6331 9.76091 12.6331 10.6121 12.6365 11.463C12.6365 11.7015 12.5218 11.7849 12.2982 11.782C11.876 11.7768 11.453 11.7805 11.0278 11.7812ZM12.0214 10.1874C12.0214 9.95621 12.0155 9.72507 12.0214 9.49393C12.0279 9.2957 11.9483 9.20134 11.7452 9.20134C11.2711 9.20134 10.7956 9.1889 10.3244 9.2145C10.2323 9.21962 10.0891 9.37104 10.0745 9.46979C10.0387 9.71995 10.0621 9.98182 10.0621 10.2342C10.0621 11.1968 10.0621 11.1968 11.0278 11.1968C12.0221 11.1982 12.0221 11.1983 12.0221 10.1874H12.0214Z" fill="#174176"/>
<path d="M11.0171 6.62882C10.6037 6.62882 10.1895 6.62151 9.77525 6.62882C9.54952 6.63394 9.43703 6.56079 9.43849 6.31795C9.44433 5.47749 9.4458 4.63557 9.43849 3.79584C9.43849 3.55372 9.5444 3.47619 9.7694 3.47765C10.6212 3.48253 11.4735 3.48253 12.3262 3.47765C12.5622 3.47765 12.6477 3.57567 12.6455 3.80754C12.6382 4.63654 12.6382 5.46554 12.6455 6.29454C12.6455 6.5469 12.5476 6.63979 12.2963 6.63102C11.8697 6.61858 11.443 6.62882 11.0171 6.62882ZM10.0675 5.0152C10.0675 5.25805 10.0733 5.50163 10.0675 5.74667C10.0609 5.95733 10.1405 6.06047 10.3597 6.05608C10.8199 6.0473 11.2809 6.05023 11.7418 6.05608C11.9413 6.05608 12.0267 5.97123 12.0245 5.77154C12.0202 5.29755 12.037 4.82063 12.0114 4.35102C12.007 4.25813 11.8609 4.11183 11.7637 4.0972C11.5139 4.05917 11.256 4.08111 11.0011 4.08111C10.0638 4.07672 10.0638 4.07746 10.0653 5.0152H10.0675Z" fill="#174176"/>
<path d="M8.13737 10.1999C8.13737 10.6139 8.12714 11.0286 8.14102 11.4434C8.14979 11.7009 8.04238 11.7872 7.7962 11.785C6.96827 11.7772 6.14034 11.7772 5.31241 11.785C5.07645 11.785 4.98879 11.6914 4.99025 11.4587C4.99756 10.6059 4.99756 9.75247 4.99025 8.8986C4.99025 8.67331 5.0896 8.59797 5.29853 8.5987C6.13864 8.60236 6.97874 8.60528 7.81739 8.5987C8.07891 8.5987 8.14979 8.715 8.14102 8.95785C8.12641 9.37113 8.13737 9.78953 8.13737 10.1999ZM7.56682 10.2101C7.56682 9.20143 7.56681 9.20143 6.5565 9.20143C5.58197 9.20143 5.58199 9.20143 5.58199 10.1736C5.58199 11.1976 5.58197 11.1976 6.59302 11.1976C7.56681 11.1983 7.56682 11.1983 7.56682 10.2101Z" fill="#174176"/>
<path d="M8.1348 6.62738C7.12886 6.62738 6.18138 6.63323 5.23461 6.61714C5.15352 6.61714 5.00668 6.47084 5.00522 6.38672C4.98915 5.49725 4.98915 4.60779 5.00522 3.71832C5.00522 3.63859 5.15863 3.49888 5.24264 3.49449C6.13096 3.4784 7.01928 3.4784 7.9076 3.49449C7.9843 3.49449 8.12676 3.62689 8.12676 3.6993C8.1399 4.65899 8.1348 5.62014 8.1348 6.62738ZM7.56645 5.07154C7.56645 4.84113 7.55476 4.60925 7.56645 4.37957C7.57814 4.14989 7.48243 4.07528 7.26985 4.0782C6.79744 4.08406 6.32455 4.08406 5.85117 4.0782C5.64882 4.0782 5.57357 4.16379 5.57723 4.36421C5.58526 4.82577 5.58745 5.28732 5.57723 5.74815C5.57138 5.99465 5.68608 6.06488 5.91035 6.05317C6.13462 6.04147 6.37058 6.05317 6.60142 6.05317C7.56645 6.05098 7.56645 6.05098 7.56645 5.07154Z" fill="#174176"/>
<path d="M17.0847 10.1597C17.0847 10.5847 17.0767 11.0112 17.0847 11.4361C17.0913 11.6805 17.0117 11.788 16.7501 11.7851C15.9222 11.7758 15.0965 11.7758 14.2729 11.7851C14.0231 11.7851 13.931 11.6965 13.9347 11.4413C13.9473 10.603 13.9473 9.76425 13.9347 8.92501C13.931 8.68509 14.018 8.59804 14.2488 8.59951C15.0865 8.60438 15.9244 8.60438 16.7625 8.59951C16.9927 8.59951 17.0906 8.68216 17.0833 8.92135C17.076 9.33244 17.0847 9.74645 17.0847 10.1597ZM14.5191 10.1685C14.5191 11.1984 14.5191 11.1984 15.5258 11.1984C16.5105 11.1984 16.5105 11.1984 16.5105 10.2139C16.5105 9.20151 16.5105 9.20151 15.4987 9.20151C14.5191 9.20443 14.5191 9.20443 14.5191 10.1685Z" fill="#174176"/>
<path d="M13.9453 6.62595C13.9453 5.61944 13.9453 4.6817 13.9453 3.74396C13.9453 3.55743 14.0052 3.47989 14.1959 3.48063C15.0725 3.4855 15.9491 3.4855 16.8258 3.48063C17.0449 3.48063 17.0924 3.5845 17.0909 3.77321C17.0858 4.62611 17.0946 5.47973 17.08 6.33336C17.08 6.43211 16.9646 6.61205 16.9003 6.61278C15.9272 6.6318 14.9571 6.62595 13.9453 6.62595ZM15.4882 6.05101C16.5109 6.05101 16.5109 6.05101 16.5109 5.05109C16.5109 4.07751 16.5109 4.07751 15.5371 4.07751C14.5195 4.07751 14.5195 4.07751 14.5195 5.07669C14.5195 6.05101 14.5195 6.05101 15.4882 6.05101Z" fill="#174176"/>
<path d="M10.9998 13.4029C12.0956 13.4614 13.0731 13.7423 13.8533 14.5147C13.9826 14.6427 14.1455 14.7634 13.9351 14.9638C13.7576 15.1343 13.6224 15.1138 13.4383 14.9521C12.0255 13.7086 10.0407 13.7086 8.65046 14.9419C8.4671 15.105 8.33049 15.1321 8.1559 14.9565C7.9813 14.781 8.10476 14.6529 8.22895 14.5293C8.8293 13.931 9.61502 13.5549 10.4571 13.4628C10.6499 13.4387 10.8435 13.4197 10.9998 13.4029Z" fill="#174176"/>
</g>
<defs>
<clipPath id="clip0_1170_11762">
<rect width="20.3934" height="20.3934" fill="white" transform="translate(0.841797 0.606628)"/>
</clipPath>
</defs>
</svg>
