<svg width="20" height="20" viewBox="0 0 20 20" fill="none" xmlns="http://www.w3.org/2000/svg">
<g clip-path="url(#clip0_1849_18443)">
<path d="M10.0152 20.0002C8.86899 20.0002 7.72282 20.0103 6.57665 19.9895C6.36946 19.9799 6.17211 19.8983 6.0186 19.7588C4.07488 17.8366 2.14072 15.9043 0.216103 13.962C0.0912167 13.8254 0.018439 13.6491 0.0105173 13.4642C-0.00285472 11.1608 -0.00285472 8.85728 0.0105173 6.55347C0.0199777 6.36897 0.0946059 6.19381 0.221122 6.05919C2.15481 4.10926 4.09686 2.1684 6.04727 0.236626C6.20097 0.0961003 6.39936 0.0144047 6.60745 0.00596053C8.86397 -0.00979934 11.1205 -0.00979934 13.377 0.00596053C13.5964 0.0137233 13.8059 0.098714 13.9687 0.245939C15.9134 2.16721 17.8476 4.09971 19.7712 6.04342C19.9046 6.18705 19.9826 6.37342 19.9912 6.56923C20.0065 8.86158 20.0065 11.1539 19.9912 13.4463C19.9805 13.6532 19.8967 13.8497 19.7548 14.0007C17.8571 15.9184 15.9437 17.8204 14.0418 19.7316C13.9589 19.8231 13.8567 19.8952 13.7426 19.9426C13.6286 19.99 13.5054 20.0117 13.382 20.006C12.2559 19.9916 11.1341 19.9995 10.0152 20.0002ZM19.4231 10.0149C19.4231 8.96473 19.436 7.91312 19.4116 6.86294C19.4009 6.64415 19.3142 6.43595 19.1666 6.27409C17.3629 4.44738 15.5481 2.63261 13.7223 0.829772C13.5517 0.673766 13.3315 0.58295 13.1005 0.573315C11.0355 0.554212 8.96977 0.554212 6.90331 0.573315C6.6724 0.582692 6.45219 0.673257 6.2815 0.829055C4.45383 2.63141 2.63906 4.44619 0.83718 6.27338C0.689486 6.43533 0.6033 6.64397 0.593625 6.86294C0.576432 8.96425 0.576432 11.0656 0.593625 13.1669C0.605676 13.3856 0.694454 13.5931 0.84435 13.7529C2.6405 15.57 4.44763 17.3764 6.26574 19.1721C6.42577 19.3226 6.63384 19.4116 6.85317 19.4236C8.95449 19.4422 11.0558 19.4422 13.1571 19.4236C13.3654 19.4167 13.5645 19.3365 13.7195 19.1972C15.5457 17.3929 17.3605 15.5781 19.1638 13.7529C19.3165 13.5807 19.4048 13.361 19.4138 13.1311C19.4338 12.0931 19.4195 11.0536 19.4195 10.0149H19.4231Z" fill="#134076"/>
<path d="M19.4196 10.0151C19.4196 11.0539 19.4339 12.0926 19.4081 13.1313C19.3991 13.3612 19.3108 13.5809 19.1581 13.7531C17.3558 15.5803 15.541 17.3951 13.7138 19.1974C13.5588 19.3367 13.3597 19.4169 13.1515 19.4238C11.0501 19.4395 8.94882 19.4395 6.84751 19.4238C6.62817 19.4119 6.42012 19.3228 6.2601 19.1723C4.44198 17.3772 2.63483 15.5707 0.838685 13.7531C0.688789 13.5933 0.600011 13.3859 0.58796 13.1671C0.570289 11.0658 0.570289 8.96448 0.58796 6.86316C0.597635 6.64419 0.683838 6.43555 0.831532 6.2736C2.6358 4.44689 4.45057 2.63211 6.27585 0.82928C6.44654 0.673481 6.66673 0.582916 6.89765 0.573539C8.96362 0.554914 11.0294 0.554914 13.0949 0.573539C13.3259 0.583175 13.546 0.67399 13.7167 0.829997C15.5438 2.63283 17.3586 4.4476 19.161 6.27432C19.3086 6.43618 19.3952 6.64438 19.406 6.86316C19.4325 7.91334 19.4196 8.96496 19.4196 10.0151ZM14.2933 7.32665C14.1658 7.2457 14.0512 7.12248 13.9223 7.10601C13.8127 7.0924 13.6601 7.17263 13.5734 7.25859C12.0695 8.76008 10.5699 10.2659 9.07467 11.7759C8.74944 12.1033 8.74586 12.1033 8.4106 11.7652C7.73818 11.0875 7.06695 10.4084 6.39691 9.72788C6.25364 9.57887 6.13473 9.50724 5.95349 9.68991C5.78658 9.85969 5.7565 9.9829 5.9406 10.1649C6.79068 11.0025 7.63502 11.8464 8.47363 12.6965C8.66992 12.8949 8.82394 12.8842 9.01521 12.6915C10.6922 11.0051 14.1321 7.49499 14.2933 7.32665Z" fill="#32F372" fill-opacity="0.9"/>
<path d="M14.2933 7.32665C14.1708 7.46204 10.6922 11.008 9.01522 12.6915C8.82395 12.8842 8.66993 12.8949 8.47365 12.6965C7.63456 11.8478 6.79022 11.004 5.94062 10.1649C5.75651 9.9829 5.7866 9.85969 5.95351 9.68991C6.13475 9.50724 6.25151 9.57887 6.39693 9.72788C7.06553 10.4098 7.73677 11.089 8.41062 11.7652C8.74588 12.1033 8.74946 12.1033 9.07468 11.7759C10.5733 10.2697 12.0729 8.7639 13.5734 7.25859C13.6601 7.17263 13.8127 7.0924 13.9223 7.10601C14.0512 7.12248 14.1658 7.2457 14.2933 7.32665Z" fill="#134076"/>
</g>
<defs>
<clipPath id="clip0_1849_18443">
<rect width="20" height="20.0122" fill="white" transform="translate(0 -0.00585938)"/>
</clipPath>
</defs>
</svg>
