<svg width="25" height="16" viewBox="0 0 25 16" fill="none" xmlns="http://www.w3.org/2000/svg">
<g clip-path="url(#clip0_1170_11768)">
<path d="M5.91966 4.27075C9.27209 4.07418 10.846 7.98777 11.2112 9.84718L13.3321 9.92492C13.5146 11.2947 13.7369 8.64898 13.4005 9.84718C13.3734 6.14713 16.802 4.52898 18.6574 4.20284L18.4173 3.48803L17.3227 2.60703H9.02108L6.46658 2.99838L5.91884 4.0706C4.52241 4.1403 4.19611 4.37172 5.91966 4.27075Z" fill="#F39132" fill-opacity="0.9"/>
<path d="M4.36634 13.936C4.32002 13.9352 4.27434 13.9245 4.23195 13.9048C4.19009 13.8887 4.15181 13.8636 4.11952 13.8312C4.08723 13.7987 4.06161 13.7596 4.04428 13.7162C4.02899 13.6678 4.02321 13.6166 4.02728 13.5658C4.03135 13.5149 4.04521 13.4655 4.06797 13.4205C4.23111 13.0479 4.37567 12.7432 4.5219 12.4617C4.57442 12.3787 4.60243 12.2811 4.60243 12.1812C4.60243 12.0813 4.57442 11.9836 4.5219 11.9006C4.45865 11.7973 4.40217 11.6895 4.35285 11.578C4.3258 11.5209 4.2979 11.461 4.26832 11.3993L4.19221 11.2439L3.99525 11.662C3.82027 12.0328 3.65713 12.384 3.48807 12.7343C3.41115 12.8987 3.33085 12.98 3.22012 13.0068C3.19375 13.013 3.16686 13.0163 3.13984 13.0166C3.09154 13.016 3.044 13.0037 3.00092 12.9806C2.95783 12.9575 2.92034 12.9243 2.89133 12.8835C2.84618 12.8277 2.81914 12.7581 2.81427 12.6849C2.8094 12.6117 2.82693 12.5388 2.86426 12.4769C3.15447 11.8652 3.44328 11.2531 3.73068 10.6407C3.75604 10.5898 3.77972 10.5362 3.80423 10.4835C3.82875 10.4308 3.8524 10.3789 3.87692 10.328C3.90172 10.2627 3.94424 10.2065 3.99913 10.1666C4.05402 10.1267 4.11883 10.1048 4.18544 10.1037C4.25523 10.102 4.32381 10.1232 4.38178 10.1643C4.43975 10.2054 4.48426 10.2645 4.50919 10.3334C4.64613 10.6184 4.7814 10.9025 4.93778 11.2269L5.01385 11.3868L5.08909 11.2269C5.44242 10.4728 5.77799 9.76063 6.11273 9.05029L6.16259 8.94307C6.19133 8.8832 6.21922 8.82155 6.24712 8.7599C6.27501 8.69824 6.30122 8.63927 6.33165 8.58119C6.40772 8.42662 6.50069 8.35603 6.63679 8.35245H6.64611C6.71445 8.35141 6.78148 8.37228 6.83837 8.41232C6.89526 8.45236 6.93934 8.50968 6.96479 8.57672C7.22345 9.12653 7.48295 9.67545 7.7433 10.2235C8.09269 10.9615 8.44124 11.6996 8.78894 12.4376C8.89967 12.6726 8.8557 12.8665 8.66974 12.9684C8.6228 12.9956 8.57028 13.0103 8.51674 13.0112C8.39163 13.0112 8.28003 12.9219 8.20058 12.753C7.90867 12.1413 7.61847 11.528 7.32994 10.9133C7.18286 10.6005 7.03524 10.2881 6.88703 9.97597C6.84223 9.88215 6.79571 9.78923 6.72978 9.66056L6.65288 9.51045L6.3993 10.0358C6.26912 10.3039 6.14567 10.5648 6.02395 10.8239L5.43224 12.0748C5.18035 12.6109 4.92819 13.145 4.67573 13.6769C4.62586 13.794 4.52272 13.936 4.36634 13.936Z" fill="#134076"/>
<path d="M9.15086 8.69023C9.11406 8.69084 9.07756 8.68319 9.04376 8.66778C9.00995 8.65238 8.97962 8.62958 8.95477 8.60088C8.89796 8.53399 8.85015 8.45912 8.81275 8.37839C8.49579 7.73306 7.99689 7.20786 7.38508 6.8755L7.35548 6.85852C7.31582 6.83805 7.27767 6.81446 7.24136 6.78793C7.17154 6.74007 7.12214 6.6653 7.10367 6.57953C7.0852 6.49376 7.09913 6.40376 7.14247 6.32867C7.16781 6.27579 7.20632 6.23121 7.25383 6.19973C7.30134 6.16824 7.35605 6.15104 7.41211 6.14996C7.4629 6.1507 7.51289 6.16353 7.55835 6.18749C8.39836 6.60545 9.0734 7.32118 9.4662 8.21041C9.4778 8.23909 9.48629 8.26907 9.49154 8.29976C9.49154 8.31227 9.49746 8.32389 9.5 8.33371C9.48648 8.5008 9.42559 8.60177 9.31063 8.65449C9.26025 8.67782 9.20587 8.68998 9.15086 8.69023Z" fill="#134076"/>
<path d="M9.94189 10.0206C9.9401 10.1069 9.91403 10.1906 9.86697 10.2611C9.81992 10.3315 9.75404 10.3855 9.67777 10.4162C9.60151 10.4469 9.5183 10.4528 9.43884 10.4332C9.35938 10.4135 9.28727 10.3693 9.23173 10.3061C9.17618 10.243 9.13974 10.1637 9.12705 10.0785C9.11437 9.99329 9.12602 9.90602 9.16053 9.82786C9.19504 9.74971 9.25083 9.68421 9.32075 9.63976C9.39068 9.59531 9.47155 9.57393 9.55304 9.57836C9.60618 9.57996 9.65853 9.59273 9.70695 9.61591C9.75538 9.6391 9.79896 9.67224 9.83515 9.7134C9.87134 9.75457 9.89941 9.80293 9.91774 9.85568C9.93607 9.90843 9.94426 9.96451 9.94189 10.0206Z" fill="#134076"/>
<path d="M23.2532 5.95519C22.2786 4.80471 20.9254 4.09077 19.4697 3.95908C19.5068 3.97212 19.5451 3.98139 19.5838 3.98677C20.993 4.14838 22.2979 4.84835 23.2532 5.95519Z" fill="white"/>
<path d="M17.8785 15.9796L17.7939 15.9617C17.8227 15.9671 17.8497 15.9733 17.8785 15.9796Z" fill="white"/>
<path d="M24.3418 7.8378C24.3553 7.87354 24.368 7.91107 24.3807 7.94591C24.3697 7.91107 24.357 7.87533 24.3418 7.8378Z" fill="white"/>
<path d="M17.5638 15.9044C17.5528 15.9044 17.5402 15.899 17.5283 15.8946C17.5398 15.899 17.5517 15.9023 17.5638 15.9044Z" fill="white"/>
<path d="M23.626 6.44571C23.6725 6.51272 23.719 6.58331 23.7612 6.65211C23.7198 6.58152 23.6733 6.51272 23.626 6.44571Z" fill="white"/>
<path d="M24.1338 7.32397C24.1524 7.36508 24.171 7.4035 24.1887 7.4446C24.1667 7.4035 24.1482 7.3624 24.1338 7.32397Z" fill="white"/>
<path d="M23.3066 6.0213C23.3717 6.09993 23.4343 6.18213 23.496 6.26434C23.4368 6.18213 23.3726 6.10172 23.3066 6.0213Z" fill="white"/>
<path d="M23.8799 6.84241C23.9052 6.88798 23.9297 6.93176 23.956 6.97822C23.9297 6.93444 23.9052 6.88798 23.8799 6.84241Z" fill="white"/>
<path d="M18.9288 16C18.8797 16 18.8307 16 18.7817 15.9955L18.6388 15.9902L18.5399 15.983L18.4765 15.9777C18.4376 15.9777 18.3971 15.9705 18.3573 15.9652C18.3032 15.9589 18.2483 15.9518 18.195 15.9437L18.0784 15.9259C18.0395 15.9193 18.0006 15.9122 17.9618 15.9044L17.8104 15.874C17.7352 15.8579 17.66 15.8392 17.5847 15.8195L17.5661 15.8142H17.5569C16.6746 15.5717 15.8606 15.1081 15.1838 14.4626C14.507 13.8172 13.9872 13.0088 13.6685 12.1061C13.6508 12.0551 13.6339 12.0051 13.6178 11.9542L13.5924 11.872C13.5038 11.5772 13.4363 11.2759 13.3904 10.9704C13.3868 10.9442 13.3817 10.9182 13.3752 10.8927C13.3347 10.6018 13.3141 10.3083 13.3135 10.0144C13.313 9.01752 13.5477 8.03631 13.9965 7.15957L14.0176 7.12026C14.0582 7.04431 14.1021 6.96746 14.1427 6.8933L14.1613 6.86292C14.2331 6.74141 14.2991 6.63597 14.3659 6.53947C14.4327 6.44297 14.5518 6.30984 14.6896 6.30984C14.7588 6.31214 14.8254 6.33782 14.8798 6.38311C15.1072 6.55555 14.9905 6.81289 14.9001 6.95049C14.5092 7.53009 14.2333 8.18737 14.0892 8.88271C13.9451 9.57805 13.9357 10.297 14.0616 10.9963C14.4741 13.4562 16.5805 15.3111 18.9643 15.3111C19.2291 15.3109 19.4935 15.2873 19.7546 15.2405C20.4426 15.1279 21.1006 14.8646 21.6868 14.4676C22.2729 14.0706 22.7742 13.5486 23.1585 12.935C23.5428 12.3215 23.8017 11.6298 23.9186 10.9044C24.0355 10.179 24.0078 9.43579 23.8374 8.72233C23.3116 6.40366 21.2753 4.72027 18.9947 4.72027C18.6949 4.72091 18.3958 4.75082 18.1012 4.80962C17.3671 4.95288 16.6712 5.26293 16.0615 5.71833C15.983 5.78068 15.8883 5.81621 15.7902 5.82019C15.7206 5.81988 15.6533 5.79433 15.5994 5.74781C15.5456 5.70129 15.5085 5.63663 15.4943 5.56465C15.4495 5.40113 15.507 5.27783 15.6921 5.14201C15.9736 4.93128 16.2717 4.74653 16.5831 4.58982L16.6676 4.54782C16.7217 4.52191 16.7766 4.49689 16.8299 4.47366C16.8832 4.45043 16.9525 4.42095 17.015 4.39593L17.0615 4.37806C17.2709 4.29921 17.4846 4.23357 17.7014 4.18148H17.72C17.7868 4.1654 17.851 4.15021 17.9178 4.1377L17.9457 4.13234C18.0699 4.1109 18.1815 4.09392 18.288 4.08141C18.3165 4.07824 18.3448 4.07287 18.3726 4.06533C18.5733 4.04266 18.775 4.03133 18.9769 4.03137C19.1375 4.03137 19.2973 4.03852 19.4537 4.05282C19.4931 4.0671 19.534 4.0767 19.5754 4.08141C20.9642 4.24151 22.2503 4.93077 23.1932 6.02034L23.2178 6.05072C23.2271 6.06323 23.2372 6.07574 23.2474 6.08735C23.3023 6.15347 23.3615 6.23031 23.4325 6.32592L23.5593 6.50462C23.6049 6.57074 23.6489 6.63776 23.6928 6.70745C23.7368 6.77715 23.7672 6.82629 23.8078 6.89688C23.834 6.94066 23.8593 6.98623 23.883 7.03001C23.9473 7.14885 24.0056 7.26233 24.0521 7.36955C24.0707 7.40797 24.0884 7.44907 24.107 7.49017C24.1603 7.60722 24.211 7.73321 24.2625 7.87617L24.3014 7.98339C24.3285 8.0656 24.3555 8.15137 24.3817 8.23626C24.3831 8.24386 24.3851 8.25133 24.3876 8.25859C24.6266 9.0793 24.6958 9.94475 24.5904 10.7962C24.485 11.6477 24.2077 12.4652 23.777 13.1933C23.3464 13.9214 22.7726 14.5431 22.0946 15.0161C21.4166 15.4891 20.6502 15.8025 19.8476 15.9348H19.8408H19.8298C19.7588 15.9464 19.6912 15.9562 19.6227 15.9634L19.5196 15.975C19.4697 15.9804 19.4173 15.9848 19.3666 15.9884H19.3472L19.2229 15.9964C19.1697 15.9964 19.1223 16.0009 19.0758 16.0009C19.0293 16.0009 18.9778 16.0009 18.9313 16.0009L18.9288 16Z" fill="#134076"/>
<path d="M12.4041 2.20154C11.241 2.20154 10.0804 2.20154 8.91644 2.206C8.75161 2.206 8.70343 2.1658 8.70512 1.98531C8.71273 1.46885 8.83106 1.33304 9.32894 1.33304H15.4835C15.9772 1.33304 16.0963 1.47064 16.1056 1.98977C16.1056 2.17652 16.0499 2.20779 15.8918 2.206C14.7287 2.19796 13.5673 2.20154 12.4041 2.20154Z" fill="#F39132" fill-opacity="0.9"/>
<path d="M19.2452 3.94747C19.044 3.27734 18.569 2.61435 17.9198 2.38471C17.7326 2.32 17.5367 2.288 17.3399 2.29C17.2849 2.29 17.2283 2.29 17.1708 2.29626H17.1057C17.063 2.30469 17.0189 2.30063 16.9781 2.28452C16.9374 2.26841 16.9015 2.24086 16.8745 2.20484C16.8474 2.16881 16.8302 2.12567 16.8246 2.08006C16.8191 2.03446 16.8254 1.9881 16.8428 1.946C16.8441 1.93382 16.8441 1.92154 16.8428 1.90936C16.8411 1.88945 16.8411 1.86941 16.8428 1.8495C16.8553 1.68676 16.8352 1.52307 16.7838 1.36912C16.7324 1.21516 16.6508 1.07438 16.5445 0.955982C16.4284 0.823615 16.2877 0.718114 16.1312 0.64614C15.9746 0.574166 15.8056 0.537283 15.6349 0.537817H15.596C15.2258 0.550326 14.8294 0.555687 14.3484 0.555687C14.0255 0.555687 13.7026 0.555687 13.3797 0.550326C13.0568 0.544965 12.7347 0.545858 12.4127 0.545858H9.20562C8.44486 0.545858 7.97656 1.03997 7.97487 1.8352C7.97487 2.23996 7.93348 2.28196 7.53535 2.28196C6.64441 2.28196 6.00788 2.71174 5.69428 3.52395C5.52522 3.96624 5.28349 4.03325 4.96228 4.07971C4.06992 4.21309 3.22366 4.58183 2.50161 5.15193C2.32494 5.28953 2.2886 5.46824 2.40271 5.64426C2.43054 5.69026 2.46894 5.72807 2.51432 5.75416C2.55969 5.78025 2.61059 5.79378 2.66224 5.79348C2.73787 5.79158 2.81151 5.76778 2.87522 5.72468C2.9048 5.70502 2.93354 5.68357 2.95975 5.66123L3.04007 5.60226C3.85302 5.01396 4.81392 4.69624 5.79911 4.68998C6.61942 4.69175 7.42732 4.90174 8.15487 5.30228C8.88241 5.70282 9.50832 6.2822 9.97992 6.99168C10.353 7.56927 10.6126 8.22017 10.7433 8.90578C10.874 9.5914 10.8731 10.2978 10.7407 10.983C10.3375 13.156 9.05769 14.5821 7.03998 15.1066C6.60041 15.2231 6.14914 15.2831 5.69597 15.2853C4.19304 15.2853 2.90653 14.583 1.87527 13.1963C0.518579 11.3771 0.469534 8.92078 1.751 6.94164C1.86596 6.76294 1.95641 6.51722 1.73494 6.35192C1.68342 6.3101 1.62067 6.28663 1.55573 6.28491C1.43739 6.28491 1.31737 6.37426 1.20833 6.53956C0.258218 8.00135 -0.0444086 9.60521 0.308923 11.3074C0.872733 14.0183 3.20321 15.9858 5.85066 15.9858C6.19342 15.9856 6.53545 15.9527 6.87261 15.8875C9.26056 15.4238 11.1836 13.2811 11.4431 10.7945C11.4428 10.7137 11.4716 10.6359 11.5238 10.5769C11.576 10.5179 11.6475 10.4823 11.7238 10.4773C11.9637 10.4248 12.2075 10.3949 12.4524 10.3879C12.672 10.3935 12.8907 10.4177 13.1066 10.4603C13.2009 10.4801 13.2918 10.5147 13.3763 10.5631C13.3611 10.3844 13.3535 10.2057 13.3535 10.027C13.3535 9.95547 13.3535 9.88488 13.3577 9.81429C13.3234 9.81255 13.2896 9.80563 13.2571 9.79375C12.9914 9.71914 12.718 9.67894 12.4431 9.67401C12.1713 9.6787 11.9015 9.72413 11.6418 9.80893L11.5454 9.83842L11.5344 9.73388C11.2318 6.99347 9.94949 5.22431 7.61311 4.32364C7.25999 4.18522 6.88994 4.10097 6.51423 4.07346C6.47325 4.07584 6.43232 4.06746 6.39515 4.04906C6.35798 4.03067 6.32572 4.00282 6.30121 3.96802C6.28767 3.92711 6.28404 3.88326 6.29069 3.84049C6.29733 3.79771 6.31406 3.75739 6.33927 3.7232C6.61145 3.22819 7.03491 2.97801 7.59957 2.97801H17.2182C17.353 2.97711 17.4875 2.99301 17.6188 3.02536C17.9764 3.11472 18.295 3.53646 18.5131 3.89565C18.5481 3.94723 18.5708 4.00702 18.5791 4.06988C18.7245 4.05827 18.8715 4.05201 19.0195 4.05201C19.104 4.05201 19.1885 4.05201 19.2883 4.06006C19.2713 4.02373 19.2568 3.9861 19.2452 3.94747ZM15.8919 2.20601C14.7288 2.19797 13.5657 2.20154 12.4042 2.20154C11.2428 2.20154 10.0805 2.20154 8.91654 2.20601C8.75171 2.20601 8.70353 2.1658 8.70522 1.98531C8.71282 1.46886 8.83116 1.33305 9.32903 1.33305H15.4836C15.9773 1.33305 16.0964 1.47065 16.1057 1.98978C16.1091 2.17652 16.05 2.2078 15.8919 2.20601Z" fill="#134076"/>
<path fill-rule="evenodd" clip-rule="evenodd" d="M3.37213 8.69467C3.58726 8.92345 3.87945 9.05267 4.18461 9.05397H4.1939C4.49906 9.05267 4.79129 8.92345 5.00642 8.69467C5.22155 8.46589 5.34202 8.15623 5.3414 7.83366C5.34078 7.51109 5.21912 7.20195 5.00312 6.97409C4.78712 6.74623 4.49444 6.61826 4.18928 6.61826C3.88411 6.61826 3.59139 6.74623 3.37539 6.97409C3.15939 7.20195 3.03773 7.51109 3.03711 7.83366C3.0365 8.15623 3.157 8.46589 3.37213 8.69467ZM3.91183 8.15307C3.98982 8.23283 4.09459 8.27657 4.2031 8.27468C4.25682 8.27374 4.30982 8.26162 4.35911 8.23902C4.40841 8.21642 4.45304 8.18378 4.49041 8.14296C4.52777 8.10214 4.55714 8.05393 4.57688 8.00111C4.59662 7.94828 4.60632 7.89186 4.60544 7.83507C4.60455 7.77828 4.5931 7.72222 4.57172 7.67012C4.55034 7.61801 4.51945 7.57086 4.48083 7.53137C4.44221 7.49187 4.39663 7.4608 4.34665 7.43994C4.29667 7.41907 4.24329 7.40881 4.18956 7.40975C4.08105 7.41165 3.97771 7.45903 3.90225 7.54147C3.82679 7.62392 3.78539 7.73467 3.78718 7.84936C3.78897 7.96406 3.83383 8.0733 3.91183 8.15307Z" fill="#134076"/>
<path d="M4.20308 8.27459C4.09458 8.27649 3.98981 8.23274 3.91181 8.15298C3.83382 8.07322 3.78896 7.96397 3.78717 7.84928C3.78537 7.73458 3.82678 7.62383 3.90224 7.54139C3.97769 7.45894 4.08104 7.41156 4.18955 7.40967C4.24327 7.40873 4.29666 7.41899 4.34663 7.43985C4.39661 7.46072 4.4422 7.49178 4.48082 7.53128C4.51943 7.57077 4.55032 7.61792 4.5717 7.67003C4.59308 7.72214 4.60453 7.77819 4.60542 7.83498C4.60631 7.89177 4.5966 7.94819 4.57686 8.00102C4.55712 8.05385 4.52775 8.10205 4.49039 8.14287C4.45303 8.18369 4.4084 8.21633 4.3591 8.23894C4.3098 8.26154 4.25681 8.27365 4.20308 8.27459Z" fill="#F39132" fill-opacity="0.9"/>
<path d="M17.501 13.9359C17.4492 13.935 17.3984 13.9216 17.3523 13.8966C17.1655 13.8072 17.1097 13.6285 17.1993 13.4257L17.2263 13.3632C17.3539 13.0728 17.485 12.7717 17.6397 12.4929C17.7003 12.3991 17.732 12.2876 17.7302 12.174C17.7284 12.0603 17.6932 11.9501 17.6295 11.8585C17.5789 11.7699 17.5338 11.678 17.4943 11.5833C17.4681 11.5243 17.4402 11.4618 17.4098 11.3939L17.3337 11.2348L17.0488 11.8415C16.9051 12.148 16.7699 12.4384 16.6321 12.7279C16.5695 12.8592 16.463 13.0156 16.3024 13.0156C16.2495 13.0139 16.1975 12.9999 16.1502 12.9745C16.1118 12.9575 16.0769 12.9324 16.0479 12.9008C16.0188 12.8691 15.9961 12.8316 15.9812 12.7904C15.9512 12.6582 15.9719 12.5188 16.0387 12.4026C16.1869 12.0881 16.3359 11.7733 16.4858 11.4582C16.6549 11.1008 16.8254 10.7401 16.9972 10.3761C17.086 10.1867 17.1807 10.1081 17.3252 10.1036H17.3362C17.4858 10.1036 17.583 10.1831 17.6743 10.3788C17.7656 10.5745 17.8434 10.7434 17.9398 10.9355L18.0826 11.2312L18.1578 11.3894L18.6109 10.4351C18.7952 10.0491 18.9744 9.67206 19.1527 9.2941C19.2085 9.17884 19.2626 9.06268 19.3167 8.94742C19.3708 8.83215 19.4274 8.71153 19.4858 8.59001C19.5091 8.52419 19.5508 8.46738 19.6053 8.42703C19.6597 8.38669 19.7244 8.3647 19.7909 8.36395H19.8036C19.8712 8.36438 19.9372 8.38624 19.9929 8.42669C20.0487 8.46715 20.0917 8.52435 20.1164 8.5909L20.6185 9.65419C21.0592 10.5876 21.4987 11.5216 21.9371 12.4563C21.9639 12.5053 21.9811 12.5595 21.9878 12.6156C21.9944 12.6718 21.9905 12.7288 21.976 12.7833C21.9602 12.826 21.9362 12.865 21.9057 12.8977C21.8752 12.9304 21.8387 12.9562 21.7985 12.9736C21.7536 12.9973 21.7042 13.0101 21.654 13.0111C21.5001 13.0111 21.4004 12.8744 21.3471 12.7592C21.0301 12.0971 20.7114 11.4189 20.4029 10.7693L20.0319 9.98211C20.0099 9.93565 19.9871 9.89276 19.9634 9.84183L19.8924 9.6935L19.8501 9.60415L19.7715 9.65776C19.6935 9.71447 19.6357 9.79722 19.6075 9.89276C19.5999 9.91152 19.5932 9.92939 19.5847 9.94726C19.0099 11.1544 18.4359 12.3696 17.8814 13.5446C17.8518 13.6098 17.8223 13.6732 17.7901 13.7331C17.7638 13.7914 17.723 13.841 17.6721 13.8767C17.6212 13.9124 17.562 13.9329 17.501 13.9359Z" fill="#134076"/>
<path d="M12.6269 3.93576C13.1298 3.95095 13.708 4.2753 14.1188 4.91863C14.2879 5.18668 14.2557 5.45474 14.0427 5.60395C13.8297 5.75317 13.6201 5.6808 13.4307 5.4181C12.8661 4.61394 11.9405 4.62019 11.3724 5.42793C11.1898 5.68526 10.9616 5.74781 10.7596 5.59859C10.5576 5.44938 10.5255 5.19383 10.681 4.93203C11.0419 4.32265 11.708 3.93755 12.6269 3.93576Z" fill="#134076"/>
<path d="M22.2934 8.68487C22.2275 8.6811 22.164 8.65736 22.1105 8.61649C22.057 8.57561 22.0157 8.51932 21.9916 8.45434C21.6576 7.73534 21.104 7.15641 20.4202 6.81117C20.3551 6.7771 20.3023 6.72138 20.27 6.65255C20.2377 6.58373 20.2276 6.5056 20.2413 6.43015C20.255 6.3547 20.2918 6.28608 20.3459 6.23483C20.4001 6.18357 20.4686 6.15251 20.5411 6.14639C20.6179 6.14744 20.693 6.17061 20.7583 6.21341L20.7719 6.22055C21.5455 6.63399 22.1735 7.29845 22.5639 8.11659C22.622 8.21882 22.6396 8.34115 22.6129 8.45702C22.5991 8.49799 22.5777 8.53557 22.5498 8.56752C22.5219 8.59946 22.4881 8.6251 22.4506 8.64288C22.402 8.6696 22.3482 8.68398 22.2934 8.68487Z" fill="#134076"/>
<path d="M22.6611 9.57826C22.7429 9.57667 22.8233 9.60093 22.8919 9.64795C22.9606 9.69496 23.0144 9.76259 23.0465 9.84215C23.0786 9.92171 23.0875 10.0096 23.072 10.0945C23.0566 10.1795 23.0175 10.2576 22.9597 10.3189C22.902 10.3801 22.8283 10.4218 22.748 10.4385C22.6677 10.4552 22.5845 10.4462 22.5091 10.4126C22.4337 10.379 22.3695 10.3224 22.3248 10.25C22.28 10.1776 22.2567 10.0927 22.2579 10.0063C22.2572 9.95 22.2671 9.89417 22.2871 9.84204C22.3071 9.78991 22.3368 9.74252 22.3743 9.70266C22.4119 9.66279 22.4566 9.63126 22.5058 9.6099C22.5551 9.58853 22.6078 9.57778 22.6611 9.57826Z" fill="#134076"/>
<path fill-rule="evenodd" clip-rule="evenodd" d="M18.0157 6.75622C17.8122 6.61397 17.5732 6.5388 17.3292 6.54021C17.1675 6.53961 17.0072 6.57298 16.8578 6.63838C16.7083 6.70378 16.5726 6.79991 16.4586 6.92119C16.3446 7.04247 16.2545 7.18649 16.1935 7.34488C16.1326 7.50326 16.102 7.67287 16.1036 7.84385C16.1037 8.10177 16.1763 8.35384 16.3122 8.56811C16.448 8.78238 16.6409 8.94921 16.8665 9.04746C17.0921 9.14571 17.3403 9.17096 17.5794 9.12001C17.8186 9.06906 18.0382 8.94421 18.2102 8.76126C18.3822 8.57832 18.4989 8.34552 18.5456 8.09237C18.5924 7.83922 18.5669 7.5771 18.4726 7.33924C18.3782 7.10137 18.2193 6.89846 18.0157 6.75622ZM17.5646 7.48644C17.498 7.4377 17.4193 7.41093 17.3384 7.4095C17.2316 7.41322 17.13 7.4587 17.0532 7.53711C16.9763 7.61552 16.9298 7.72129 16.9225 7.83392C16.921 7.91947 16.9436 8.00357 16.9873 8.07557C17.031 8.14757 17.094 8.20424 17.1682 8.2384C17.2424 8.27256 17.3246 8.28268 17.4042 8.26749C17.4839 8.25229 17.5575 8.21246 17.6157 8.15303C17.674 8.09359 17.7142 8.01724 17.7314 7.93362C17.7486 7.85 17.7419 7.76288 17.7122 7.68328C17.6825 7.60368 17.6311 7.53517 17.5646 7.48644Z" fill="#134076"/>
<path d="M17.3378 7.40982C17.4188 7.41125 17.4975 7.43803 17.564 7.48676C17.6305 7.53549 17.6819 7.604 17.7116 7.6836C17.7413 7.7632 17.748 7.85032 17.7308 7.93394C17.7137 8.01756 17.6734 8.09392 17.6152 8.15335C17.5569 8.21278 17.4833 8.25261 17.4037 8.26781C17.324 8.28301 17.2419 8.27288 17.1676 8.23872C17.0934 8.20456 17.0305 8.14789 16.9867 8.07589C16.943 8.00389 16.9205 7.91979 16.9219 7.83424C16.9292 7.72161 16.9758 7.61584 17.0526 7.53743C17.1295 7.45902 17.2311 7.41354 17.3378 7.40982Z" fill="#F39132" fill-opacity="0.9"/>
</g>
<defs>
<clipPath id="clip0_1170_11768">
<rect width="24.4721" height="15.456" fill="white" transform="translate(0.166016 0.543976)"/>
</clipPath>
</defs>
</svg>
