<svg width="30" height="41" viewBox="0 0 30 41" fill="none" xmlns="http://www.w3.org/2000/svg">
<g clip-path="url(#clip0_5130_77391)">
<path d="M20.2735 28.1088C19.026 27.708 17.8725 28.2284 16.7856 29.0491C16.405 29.3362 15.9531 29.5276 15.5773 29.8195C15.1766 30.1293 14.8543 30.1222 14.4404 29.8327C13.7745 29.3685 13.0419 28.9952 12.3819 28.5251C11.8395 28.1316 11.1711 27.9551 10.5066 28.0298C9.65033 28.0968 8.78698 28.0741 7.92838 28.1159C7.60135 28.1315 7.41346 28.0358 7.2553 27.7343C6.76773 26.7988 6.25834 25.8752 5.72716 24.9636C5.58538 24.7194 5.38611 24.514 5.14685 24.3655C4.22759 23.8223 3.29169 23.3079 2.35222 22.8007C2.09773 22.6631 1.99546 22.5112 1.99546 22.2025C2.0347 21.0815 2.05016 19.9594 2.04778 18.8372C2.04404 18.6023 1.98102 18.3722 1.86464 18.1685C1.31404 17.2318 0.750348 16.301 0.164071 15.3858C-0.0107413 15.1131 0.00591803 14.9205 0.174785 14.6573C0.748773 13.7537 1.30652 12.8397 1.848 11.9153C1.97377 11.6969 2.04212 11.4499 2.04659 11.1975C2.05134 10.0921 2.0351 8.98631 1.99784 7.88011C1.98023 7.74758 2.00671 7.61291 2.07318 7.49713C2.13966 7.38134 2.24237 7.29095 2.36529 7.24008C3.29167 6.7424 4.21451 6.23636 5.11831 5.69921C5.37041 5.54411 5.58137 5.32983 5.73311 5.07473C6.26588 4.16473 6.77563 3.24117 7.26241 2.30405C7.41225 2.01932 7.58589 1.92721 7.89746 1.94515C8.97963 1.99061 10.063 2.02052 11.1464 2.0265C11.3969 2.02506 11.6427 1.95828 11.8599 1.8327C12.7779 1.28837 13.6901 0.732078 14.5808 0.142291C14.9007 -0.0694587 15.1242 -0.0455351 15.4299 0.154251C16.3107 0.729284 17.2046 1.28398 18.1115 1.81833C18.3413 1.9506 18.6008 2.02183 18.8655 2.0253C19.9167 2.0253 20.9692 2.00138 22.018 1.94156C22.42 1.91883 22.6126 2.07794 22.7851 2.40932C23.2512 3.30178 23.7293 4.18945 24.2442 5.0544C24.4169 5.333 24.6529 5.56632 24.9328 5.73511C25.8068 6.26029 26.7011 6.75197 27.6001 7.2317C27.8903 7.38603 28.0069 7.56189 27.9938 7.90284C27.9533 9.00825 27.9415 10.1148 27.9438 11.2202C27.9488 11.4553 28.0126 11.6853 28.1294 11.889C28.6621 12.7994 29.1996 13.7074 29.78 14.5891C30.0023 14.9277 29.975 15.1609 29.7669 15.4828C29.2032 16.3549 28.6657 17.2449 28.1424 18.1434C28.0174 18.362 27.9495 18.609 27.945 18.8612C27.9403 19.9666 27.9565 21.072 27.9938 22.1774C28.0107 22.31 27.9837 22.4445 27.9168 22.56C27.8499 22.6756 27.747 22.7656 27.624 22.8162C26.6976 23.3139 25.7759 23.8211 24.8721 24.3583C24.6195 24.5127 24.4084 24.7271 24.2573 24.9828C23.7333 25.88 23.2318 26.79 22.753 27.7128C22.5888 28.0298 22.3962 28.1363 22.0394 28.1159C21.5055 28.0812 20.962 28.1088 20.2735 28.1088ZM3.30239 19.9654C3.27861 20.4786 3.26789 20.9918 3.22746 21.5027C3.20486 21.7826 3.30475 21.9357 3.55211 22.0661C4.39882 22.5088 5.24079 22.9634 6.06729 23.4431C6.2945 23.5768 6.484 23.7666 6.61787 23.9946C7.09355 24.832 7.53476 25.679 7.97239 26.5308C8.09131 26.7701 8.23281 26.8897 8.52298 26.8682C9.1259 26.8299 9.74429 26.91 10.3353 26.8131C11.4532 26.6301 12.3879 26.9531 13.2762 27.6051C13.8137 27.9999 14.4143 28.5909 14.9815 28.5849C15.5702 28.5789 16.1814 27.9987 16.732 27.5979C17.6228 26.9483 18.5634 26.611 19.6741 26.8203C20.0142 26.8837 20.3805 26.8024 20.7218 26.861C21.5412 27.0022 22.0299 26.7198 22.3546 25.9183C22.6685 25.1371 23.0099 24.2877 23.5819 23.7123C24.1539 23.1368 25.0172 22.7743 25.8009 22.4346C26.5846 22.0948 26.8866 21.6211 26.7368 20.7502C26.4371 19.0155 26.801 17.4256 27.9403 16.045C28.1103 15.8381 28.2102 15.5725 28.3696 15.3535C28.5289 15.1346 28.5289 14.9456 28.3696 14.7063C27.8701 13.9251 27.3813 13.1368 26.9259 12.3292C26.781 12.0677 26.7022 11.7744 26.6964 11.4751C26.6892 10.5455 26.7214 9.61598 26.763 8.68763C26.7761 8.39453 26.6999 8.21987 26.4348 8.07512C25.6653 7.65521 24.9209 7.18863 24.1467 6.7771C23.7356 6.57129 23.4063 6.2308 23.2132 5.81166C22.8766 5.10464 22.4497 4.44187 22.1168 3.73365C21.917 3.30656 21.6613 3.16899 21.1999 3.20368C20.3579 3.26727 19.5133 3.28844 18.6693 3.26709C18.2952 3.25537 17.9288 3.15668 17.599 2.97877C16.8189 2.5457 16.0673 2.05999 15.3252 1.56471C15.0683 1.39484 14.8959 1.41159 14.6497 1.57309C13.9362 2.05162 13.1858 2.47871 12.4676 2.95365C12.0954 3.20223 11.6511 3.31768 11.2058 3.28144C10.3734 3.23598 9.54925 3.25034 8.72276 3.20607C8.36599 3.18693 8.18405 3.31613 8.01757 3.62239C7.5074 4.5639 7.11972 5.64897 6.38718 6.37394C5.65463 7.09891 4.56176 7.45063 3.62823 7.96505C3.61506 7.97455 3.60113 7.98295 3.5866 7.99017C3.27265 8.08827 3.20724 8.30481 3.2227 8.62064C3.26789 9.54779 3.30476 10.4785 3.29049 11.4069C3.27952 11.7524 3.18699 12.0903 3.02054 12.3926C2.58886 13.1774 2.11437 13.9383 1.63156 14.6908C1.55253 14.7887 1.5101 14.9113 1.51162 15.0374C1.51314 15.1635 1.55853 15.2851 1.63989 15.3811C1.90746 15.7782 2.10842 16.2185 2.39383 16.6049C3.15135 17.6086 3.54975 18.6949 3.30239 19.9654Z" fill="#134076"/>
<path d="M20 40.2625C18.8714 37.5229 17.7774 34.8683 16.6702 32.1718L17.7405 31.5569L20.4126 38.017C21.1666 37.1927 21.9122 36.4618 22.5532 35.6555C23.1656 34.8719 23.8482 34.513 24.8662 34.6075C25.9365 34.7068 27.0258 34.629 28.196 34.629C28.1151 34.4149 28.0604 34.257 27.9974 34.1038C27.2351 32.2759 26.4859 30.4419 25.6951 28.6259C25.5084 28.1952 25.5024 27.8554 25.77 27.4798C25.9377 27.2172 26.0917 26.9461 26.2314 26.6675C27.5027 29.7432 28.7442 32.746 30.019 35.8265H29.4422C27.8333 35.8265 26.2314 35.8361 24.6165 35.8194C24.4594 35.8091 24.3022 35.8362 24.1576 35.8986C24.0129 35.9609 23.8849 36.0568 23.784 36.1783C22.5461 37.5325 21.3081 38.8568 20 40.2625Z" fill="#134076"/>
<path d="M3.78759 26.6685C4.0191 27.0483 4.23068 27.44 4.42144 27.8421C4.47818 28.0307 4.46594 28.2335 4.38695 28.4139C3.61397 30.2909 2.82434 32.1608 2.04066 34.0366C1.97288 34.1969 1.91341 34.362 1.82184 34.6001C2.02162 34.612 2.18456 34.6312 2.34748 34.6312C3.57355 34.6312 4.8008 34.6156 6.02687 34.6467C6.30088 34.6609 6.56113 34.7719 6.76179 34.9602C7.70245 35.9364 8.60743 36.9473 9.58971 38.0156L12.3392 31.5554L13.3333 32.1536C12.2238 34.8453 11.1238 37.5119 9.96076 40.3353C9.7907 40.096 9.70388 39.9548 9.58971 39.8304C8.44451 38.5826 7.30288 37.3313 6.14103 36.1027C5.96109 35.9364 5.72763 35.8408 5.48339 35.8335C3.85894 35.8108 2.23449 35.8215 0.607666 35.8215H0C1.26769 32.7661 2.50682 29.7669 3.78759 26.6685Z" fill="#134076"/>
<path d="M3.30241 19.9653C3.54976 18.6948 3.15137 17.6086 2.3986 16.6037C2.11319 16.2221 1.91221 15.777 1.64464 15.3798C1.56328 15.2839 1.51792 15.1623 1.5164 15.0362C1.51488 14.9101 1.55731 14.7875 1.63633 14.6896C2.11915 13.9371 2.59363 13.1762 3.02531 12.3914C3.19176 12.089 3.28429 11.7511 3.29526 11.4056C3.30953 10.4773 3.27266 9.54657 3.22747 8.61941C3.21201 8.30358 3.27743 8.08705 3.59137 7.98895C3.60591 7.98173 3.61984 7.97333 3.63301 7.96383C4.56653 7.44822 5.65465 7.09529 6.39195 6.37271C7.12926 5.65013 7.51218 4.56387 8.02234 3.62117C8.18883 3.31491 8.3791 3.18571 8.72753 3.20485C9.55403 3.24911 10.3841 3.23476 11.2106 3.28022C11.6551 3.31821 12.0995 3.20488 12.4723 2.95841C13.1858 2.47988 13.9362 2.0516 14.6545 1.57785C14.9007 1.41635 15.0731 1.3996 15.33 1.56948C16.072 2.06476 16.8236 2.55046 17.6038 2.98353C17.9336 3.16145 18.2999 3.26012 18.674 3.27184C19.5181 3.2932 20.3627 3.27204 21.2046 3.20844C21.666 3.17375 21.9182 3.31133 22.1215 3.73841C22.4545 4.44664 22.8814 5.1094 23.218 5.81643C23.4111 6.23556 23.7403 6.57605 24.1515 6.78186C24.9256 7.1934 25.6701 7.65996 26.4395 8.07987C26.7047 8.22463 26.7808 8.39929 26.7677 8.69239C26.7261 9.62074 26.694 10.5503 26.7011 11.4798C26.707 11.7792 26.7858 12.0725 26.9307 12.334C27.3861 13.1415 27.8749 13.9299 28.3743 14.7111C28.5277 14.9504 28.5337 15.1322 28.3743 15.3583C28.215 15.5844 28.1151 15.8368 27.945 16.0498C26.8058 17.4303 26.4419 19.0203 26.7416 20.7549C26.8914 21.6258 26.5977 22.0972 25.8057 22.4394C25.0137 22.7815 24.1693 23.1308 23.5866 23.717C23.0039 24.3032 22.6733 25.1418 22.3594 25.923C22.0371 26.7246 21.546 27.0069 20.7266 26.8657C20.3853 26.8071 20.0131 26.8885 19.6789 26.8251C18.5682 26.6157 17.6275 26.9531 16.7368 27.6027C16.1862 28.0034 15.575 28.5837 14.9863 28.5896C14.4191 28.5896 13.8185 28.0046 13.281 27.6099C12.3927 26.9579 11.4579 26.6349 10.3401 26.8179C9.7455 26.9148 9.13068 26.8346 8.52775 26.8729C8.23759 26.8909 8.102 26.7772 7.97714 26.5356C7.53951 25.6838 7.09595 24.832 6.62265 23.9994C6.48878 23.7714 6.29925 23.5815 6.07203 23.4478C5.23959 22.9693 4.40716 22.5135 3.55688 22.0709C3.30953 21.9405 3.20964 21.7873 3.23223 21.5074C3.26791 20.9918 3.27862 20.4786 3.30241 19.9653ZM21.873 14.7482C21.6411 10.8242 18.4992 7.95306 14.7473 8.11098C10.3044 8.29641 7.731 12.2622 8.15198 15.7782C8.57414 19.3229 11.5329 22.1379 15.2967 21.9333C19.6955 21.6952 22.0478 17.9507 21.873 14.7482Z" fill="#F39132" fill-opacity="0.9"/>
<path d="M21.873 14.7484C22.0478 17.951 19.6955 21.6954 15.2967 21.9335C11.5328 22.1381 8.57412 19.3231 8.15195 15.7784C7.73336 12.2624 10.3044 8.29662 14.7473 8.11119C18.4992 7.95328 21.6411 10.8245 21.873 14.7484ZM14.9756 9.34938C11.8991 9.36015 9.31617 11.9741 9.32806 15.0678C9.33877 18.1328 11.93 20.7169 14.9934 20.7181C18.0568 20.7192 20.6421 18.1472 20.6647 15.0738C20.6897 11.9705 18.0746 9.33981 14.978 9.34938H14.9756Z" fill="#134076"/>
</g>
<defs>
<clipPath id="clip0_5130_77391">
<rect width="30" height="41" fill="white"/>
</clipPath>
</defs>
</svg>
