<svg width="21" height="19" viewBox="0 0 21 19" fill="none" xmlns="http://www.w3.org/2000/svg">
<g clip-path="url(#clip0_1170_11765)">
<path d="M17.9414 12.7118V6.20075H18.1606C18.4015 6.20255 18.6403 6.15706 18.8634 6.06686C19.0866 5.97667 19.2897 5.84354 19.4612 5.6751C19.6327 5.50665 19.7692 5.30618 19.8629 5.08516C19.9566 4.86413 20.0056 4.62688 20.0072 4.38696V0.910016C20.0029 0.814752 19.9618 0.724822 19.8926 0.658936C19.8234 0.59305 19.7314 0.556282 19.6357 0.556282C19.54 0.556282 19.4479 0.59305 19.3787 0.658936C19.3095 0.724822 19.2685 0.814752 19.2641 0.910016V2.93836C19.2641 3.15204 19.1789 3.35698 19.0273 3.50808C18.8756 3.65918 18.6699 3.74406 18.4554 3.74406C18.2409 3.74406 18.0352 3.65918 17.8835 3.50808C17.7319 3.35698 17.6467 3.15204 17.6467 2.93836V0.910016C17.6467 0.81195 17.6076 0.7179 17.538 0.648557C17.4684 0.579214 17.3739 0.540258 17.2755 0.540258C17.1771 0.540258 17.0827 0.579214 17.0131 0.648557C16.9435 0.7179 16.9044 0.81195 16.9044 0.910016V2.93836C16.9044 3.15204 16.8192 3.35698 16.6675 3.50808C16.5158 3.65918 16.3101 3.74406 16.0956 3.74406C15.8811 3.74406 15.6754 3.65918 15.5238 3.50808C15.3721 3.35698 15.2869 3.15204 15.2869 2.93836V0.910016C15.2826 0.814752 15.2415 0.724822 15.1723 0.658936C15.1031 0.59305 15.0111 0.556282 14.9154 0.556282C14.8196 0.556282 14.7276 0.59305 14.6584 0.658936C14.5892 0.724822 14.5482 0.814752 14.5438 0.910016V4.38696C14.5454 4.62688 14.5945 4.86413 14.6881 5.08516C14.7818 5.30618 14.9183 5.50665 15.0898 5.6751C15.2613 5.84354 15.4644 5.97667 15.6876 6.06686C15.9108 6.15706 16.1496 6.20255 16.3904 6.20075H16.6088V10.1045H16.172V6.6192L16.1048 6.61083C15.5568 6.54651 15.0512 6.28503 14.683 5.87553C14.3149 5.46602 14.1095 4.93668 14.1055 4.38696V0.910016C14.1119 0.700714 14.1999 0.50214 14.3508 0.356364C14.5017 0.210588 14.7036 0.129064 14.9138 0.129064C15.124 0.129064 15.326 0.210588 15.4769 0.356364C15.6277 0.50214 15.7157 0.700714 15.7222 0.910016V2.93836C15.7265 3.03362 15.7676 3.12355 15.8368 3.18944C15.906 3.25532 15.998 3.29209 16.0937 3.29209C16.1894 3.29209 16.2815 3.25532 16.3507 3.18944C16.4199 3.12355 16.4609 3.03362 16.4652 2.93836V0.910016C16.4652 0.696329 16.5505 0.491394 16.7021 0.340294C16.8538 0.189195 17.0595 0.104309 17.274 0.104309C17.4885 0.104309 17.6942 0.189195 17.8458 0.340294C17.9975 0.491394 18.0827 0.696329 18.0827 0.910016V2.93836C18.0827 3.03642 18.1218 3.13047 18.1914 3.19982C18.261 3.26916 18.3554 3.30812 18.4539 3.30812C18.5523 3.30812 18.6467 3.26916 18.7163 3.19982C18.7859 3.13047 18.825 3.03642 18.825 2.93836V0.910016C18.825 0.696329 18.9102 0.491394 19.0619 0.340294C19.2136 0.189195 19.4193 0.104309 19.6338 0.104309C19.8483 0.104309 20.054 0.189195 20.2056 0.340294C20.3573 0.491394 20.4425 0.696329 20.4425 0.910016V4.38696C20.4385 4.93645 20.2334 5.4656 19.8655 5.87507C19.4977 6.28454 18.9924 6.54616 18.4447 6.61083L18.3775 6.6192V12.7118H17.9414Z" fill="#134076"/>
<path fill-rule="evenodd" clip-rule="evenodd" d="M2.16523 18.9999H18.3301C18.6077 19.0015 18.8745 18.8934 19.0722 18.6993C19.2699 18.5052 19.3823 18.2409 19.3847 17.9644V17.2744C19.3823 16.9978 19.2699 16.7336 19.0722 16.5394C18.8745 16.3453 18.6077 16.2373 18.3301 16.2389H2.16523C1.88774 16.2373 1.6209 16.3454 1.42333 16.5395C1.22575 16.7336 1.11355 16.9979 1.11133 17.2744V17.9644C1.11355 18.2409 1.22575 18.5051 1.42333 18.6993C1.6209 18.8934 1.88774 19.0015 2.16523 18.9999ZM2.166 16.5844H18.3309C18.5159 16.5832 18.6939 16.6552 18.8258 16.7845C18.9577 16.9139 19.0326 17.0901 19.0342 17.2745V17.9653C19.0326 18.1497 18.9577 18.3259 18.8258 18.4552C18.6939 18.5846 18.5159 18.6566 18.3309 18.6554H2.166C1.98101 18.6566 1.8031 18.5846 1.67136 18.4552C1.53962 18.3258 1.46485 18.1496 1.46343 17.9653V17.2745C1.46485 17.0902 1.53962 16.914 1.67136 16.7846C1.8031 16.6552 1.98101 16.5832 2.166 16.5844Z" fill="#134076"/>
<path d="M18.3303 16.5843H2.16546C1.98046 16.5831 1.80255 16.6551 1.67082 16.7845C1.53908 16.9139 1.4643 17.0901 1.46289 17.2744V17.9652C1.4643 18.1495 1.53908 18.3257 1.67082 18.4551C1.80255 18.5845 1.98046 18.6565 2.16546 18.6553H18.3303C18.5154 18.6565 18.6934 18.5845 18.8253 18.4551C18.9571 18.3258 19.0321 18.1496 19.0337 17.9652V17.2744C19.0321 17.09 18.9571 16.9138 18.8253 16.7844C18.6934 16.6551 18.5154 16.5831 18.3303 16.5843Z" fill="#F39132" fill-opacity="0.9"/>
<path d="M11.302 8.99216H9.19349C5.50643 8.99216 2.5166 11.9282 2.5166 15.5489H17.9789C17.9789 11.9282 14.9891 8.99216 11.302 8.99216Z" fill="#F39132" fill-opacity="0.9"/>
<path d="M17.7045 15.549C17.6625 12.1169 14.8071 9.26159 11.3025 9.26159H9.19401C5.69023 9.26159 2.83406 12.1169 2.79205 15.549H2.24219C2.28419 11.821 5.38703 8.72369 9.1917 8.72369H11.3002C15.1079 8.72369 18.21 11.821 18.2497 15.549H17.7045Z" fill="#134076"/>
<path d="M13.1354 9.26154V6.92203C13.1345 6.8097 13.0891 6.70226 13.0089 6.62326C12.9287 6.54426 12.8204 6.50013 12.7077 6.50053H7.78805C7.67529 6.50013 7.56698 6.54426 7.48682 6.62326C7.40666 6.70226 7.36118 6.8097 7.36038 6.92203V9.26154H6.81055V6.92203C6.81277 6.66576 6.91692 6.42083 7.10017 6.24097C7.28343 6.06111 7.53081 5.96101 7.78805 5.96264H12.7077C12.965 5.96101 13.2125 6.06109 13.3959 6.24092C13.5792 6.42076 13.6835 6.66569 13.686 6.92203V9.26154H13.1354Z" fill="#134076"/>
<path d="M11.7295 8.91612V7.88064H8.76567V8.91612H8.21582V7.34274H12.2794V8.91612H11.7295Z" fill="#134076"/>
<path d="M4.27292 15.5489H3.57032C3.57002 15.3029 3.58664 15.0571 3.61999 14.8132L4.31644 14.9045C4.2874 15.1181 4.27287 15.3334 4.27292 15.5489Z" fill="#134076"/>
<path d="M3.87207 14.0234C4.43567 12.1267 6.04858 10.6484 8.0143 10.2277L8.12274 10.7549C7.25447 10.9437 6.45227 11.3593 5.79843 11.9589C5.14459 12.5586 4.66263 13.3207 4.40206 14.1672L3.87207 14.0234Z" fill="#134076"/>
<path d="M2.11578 12.7118V7.09622L2.05776 7.08176C0.744226 6.76146 0.0507812 5.83097 0.0507812 4.39075C0.0507812 2.61728 1.03366 0.121033 3.21932 0.121033C5.40498 0.121033 6.38782 2.61728 6.38782 4.39075C6.38782 5.83097 5.69439 6.76146 4.38162 7.08176L4.32282 7.09622V10.1083H3.88601V6.74015L4.0647 6.7082C5.33394 6.47995 5.95101 5.71913 5.95101 4.38694C5.95101 2.83715 5.0827 0.544048 3.21932 0.544048C1.35593 0.544048 0.487605 2.83715 0.487605 4.38694C0.487605 5.71989 1.10466 6.47919 2.3739 6.7082L2.55337 6.74015V12.7118H2.11578Z" fill="#134076"/>
</g>
<defs>
<clipPath id="clip0_1170_11765">
<rect width="20.3934" height="18.8828" fill="white" transform="translate(0.0507812 0.117249)"/>
</clipPath>
</defs>
</svg>
