<svg width="20" height="21" viewBox="0 0 20 21" fill="none" xmlns="http://www.w3.org/2000/svg">
<g clip-path="url(#clip0_1120_10562)">
<path d="M0 10.4343V5.53526H3.49583C3.37521 5.36742 3.32495 5.28063 3.25961 5.20818C2.47486 4.34744 2.29466 3.35257 2.69888 2.28023C3.07438 1.28321 3.82467 0.702209 4.88943 0.54871C6.10066 0.375128 7.09577 0.756005 7.78216 1.77742C8.45562 2.78161 9.07452 3.81522 9.7207 4.83663C9.99138 5.267 10.0151 5.267 10.2779 4.84882C10.863 3.91635 11.4553 2.99034 12.029 2.05142C12.5675 1.17131 13.3049 0.616852 14.3574 0.513563C15.8652 0.370107 17.1891 1.33485 17.4447 2.74575C17.6185 3.71121 17.3837 4.53896 16.7088 5.24978C16.6437 5.33628 16.5854 5.42764 16.5343 5.52307H20V10.4723C19.72 10.4723 19.4579 10.4881 19.1994 10.4687C18.8886 10.4458 18.7809 10.5591 18.7852 10.8769C18.8003 12.0962 18.7916 13.3156 18.7916 14.535V20.4971H1.21769V20.0753C1.21769 17.0393 1.21769 14.0028 1.21769 10.9658C1.21769 10.4745 1.21769 10.4745 0.715103 10.4723C0.511198 10.4723 0.30801 10.4723 0.104822 10.4666C0.0687791 10.4598 0.0336191 10.449 0 10.4343ZM18.2007 15.2329C18.2007 13.8228 18.2007 12.4121 18.2007 11.001C18.2007 10.5039 18.1878 10.4895 17.7046 10.4895C15.3956 10.4895 13.0866 10.4895 10.7776 10.4895C10.3008 10.4895 10.2965 10.4946 10.2965 10.9694C10.2965 13.8012 10.2965 16.6331 10.2965 19.4649C10.2965 19.9505 10.2965 19.9519 10.7668 19.9519C13.0873 19.9519 15.4088 19.9519 17.7312 19.9519C18.1928 19.9519 18.2022 19.9426 18.2029 19.4606C18.2029 18.0518 18.2022 16.6426 18.2007 15.2329ZM9.69413 15.2329C9.69413 13.7984 9.68409 12.3638 9.70132 10.9292C9.70132 10.5835 9.59506 10.4781 9.25258 10.4795C6.91987 10.4917 4.58572 10.4852 2.25516 10.4867C1.82438 10.4867 1.79709 10.5139 1.79709 10.9644C1.79709 13.8077 1.7971 16.651 1.79063 19.4943C1.79063 19.8257 1.8775 19.9584 2.23506 19.9562C4.58045 19.9433 6.92585 19.9433 9.27124 19.9562C9.59936 19.9562 9.70777 19.8637 9.70203 19.5309C9.6848 18.1028 9.69413 16.6689 9.69413 15.2351V15.2329ZM5.11559 9.90782C6.50345 9.90782 7.89202 9.90065 9.27987 9.91356C9.58429 9.91356 9.70491 9.83681 9.69916 9.51188C9.68193 8.50768 9.68193 7.50349 9.69916 6.49929C9.70491 6.17077 9.57639 6.09905 9.27627 6.10048C6.50009 6.10909 3.72391 6.10909 0.947728 6.10048C0.655511 6.10048 0.54925 6.18225 0.553558 6.48494C0.569354 7.50062 0.569354 8.51677 0.553558 9.5334C0.548533 9.84039 0.66413 9.91499 0.951321 9.91212C2.33845 9.90351 3.72702 9.90997 5.11559 9.90997V9.90782ZM14.8743 9.90782C16.2737 9.90782 17.6745 9.90208 19.0724 9.91284C19.3445 9.91284 19.4565 9.84542 19.4522 9.5542C19.4378 8.52705 19.4378 7.49894 19.4522 6.46988C19.4522 6.18799 19.3588 6.09976 19.0788 6.10048C16.2802 6.10813 13.4815 6.10813 10.6828 6.10048C10.3805 6.10048 10.2893 6.20879 10.2922 6.49857C10.3044 7.50277 10.3066 8.50696 10.2922 9.51116C10.2872 9.8325 10.4092 9.91714 10.7144 9.91499C12.0994 9.9028 13.4865 9.90997 14.8743 9.90997V9.90782ZM9.49669 5.4994C9.22458 5.06903 9.00631 4.71684 8.77871 4.36968C8.23233 3.52902 7.73334 2.6482 7.1209 1.85919C6.41082 0.943933 5.02871 0.801194 4.0336 1.43958C3.14833 2.00623 2.81303 3.24498 3.28044 4.26854C3.68753 5.15367 4.45002 5.50729 5.36832 5.53024C6.57595 5.55965 7.78432 5.53885 8.99268 5.5367C9.11976 5.54028 9.24755 5.52163 9.49669 5.50155V5.4994ZM10.532 5.49438C10.7754 5.51446 10.9248 5.53813 11.0748 5.53813C12.1755 5.54172 13.2754 5.54745 14.3775 5.53813C14.6873 5.5353 14.9958 5.49948 15.298 5.43126C16.8919 5.06544 17.5072 3.01401 16.3929 1.80898C15.3317 0.661324 13.4894 0.848535 12.5998 2.20922C12.0182 3.09865 11.4625 4.00243 10.896 4.90405C10.7876 5.0719 10.6864 5.24333 10.532 5.49653V5.49438Z" fill="#134076"/>
<path d="M18.2003 15.233C18.2003 16.6432 18.2003 18.0538 18.2003 19.465C18.2003 19.947 18.1903 19.9563 17.7286 19.9563C15.4081 19.9563 13.0866 19.9563 10.7642 19.9563C10.2954 19.9563 10.2939 19.9563 10.2939 19.4693C10.2939 16.6374 10.2939 13.8056 10.2939 10.9738C10.2939 10.4989 10.2983 10.4939 10.775 10.4939C13.084 10.4939 15.393 10.4939 17.702 10.4939C18.1852 10.4939 18.1975 10.5082 18.1982 11.0053C18.201 12.4136 18.2018 13.8228 18.2003 15.233Z" fill="#F39132" fill-opacity="0.9"/>
<path d="M9.69401 15.2351C9.69401 16.6697 9.68468 18.1043 9.70047 19.5388C9.70047 19.8716 9.59565 19.9656 9.26969 19.9642C6.92429 19.9517 4.5789 19.9517 2.2335 19.9642C1.87451 19.9642 1.78835 19.8336 1.78907 19.5022C1.7984 16.6589 1.79409 13.8156 1.79553 10.9723C1.79553 10.5219 1.81922 10.4953 2.2536 10.4946C4.58559 10.4946 6.92046 10.4996 9.25102 10.4874C9.59349 10.4874 9.70334 10.5914 9.69975 10.9372C9.68396 12.3681 9.69401 13.802 9.69401 15.2351Z" fill="#F39132" fill-opacity="0.9"/>
<path d="M5.1159 9.91003C3.72733 9.91003 2.33876 9.90358 0.95163 9.91505C0.664439 9.91505 0.548842 9.84333 0.553868 9.53633C0.569663 8.52018 0.569663 7.50403 0.553868 6.48788C0.54956 6.18518 0.65582 6.10198 0.948037 6.10341C3.72422 6.11202 6.5004 6.11202 9.27658 6.10341C9.5767 6.10341 9.70737 6.17514 9.69947 6.50222C9.68224 7.50642 9.68224 8.51061 9.69947 9.51481C9.70522 9.83974 9.5846 9.91936 9.28018 9.91649C7.89233 9.90286 6.50376 9.91003 5.1159 9.91003Z" fill="#F39132" fill-opacity="0.9"/>
<path d="M14.874 9.91003C13.4861 9.91003 12.099 9.90286 10.7097 9.91577C10.4046 9.91577 10.2789 9.83328 10.2875 9.51194C10.3033 8.50775 10.3012 7.50355 10.2875 6.49935C10.2875 6.21244 10.3758 6.10054 10.6781 6.10126C13.4768 6.10987 16.2755 6.10987 19.0741 6.10126C19.3542 6.10126 19.4511 6.18877 19.4475 6.47066C19.4351 7.49781 19.4351 8.52592 19.4475 9.55498C19.4518 9.84763 19.3398 9.91721 19.0677 9.91362C17.6726 9.90429 16.2755 9.91003 14.874 9.91003Z" fill="#F39132" fill-opacity="0.9"/>
</g>
<defs>
<clipPath id="clip0_1120_10562">
<rect width="20" height="20" fill="white" transform="translate(0 0.5)"/>
</clipPath>
</defs>
</svg>
