<svg width="1920" height="326" viewBox="0 0 1920 326" fill="none" xmlns="http://www.w3.org/2000/svg">
<g opacity="0.15" clip-path="url(#clip0_1378_27775)">
<mask id="mask0_1378_27775" style="mask-type:luminance" maskUnits="userSpaceOnUse" x="0" y="240" width="1449" height="89">
<path d="M969.4 328.62H998.23C1026.43 327.8 1054.5 327.78 1083.05 328.62H1111.71C1063.31 326.27 1016.84 326.34 969.4 328.62ZM885.92 328.62H898.65C988.13 321.02 1069.58 320.62 1161.32 328.62H1173.67C1072.48 319.08 984.48 319.6 885.92 328.62ZM826.35 328.62H836.35C965.14 314.31 1070.71 313.32 1201.88 328.62H1211.36C1072.4 311.78 962.8 312.9 826.35 328.62ZM774.71 328.62H783.36C864 318.29 934 312.61 1003.79 312.22C1076.13 311.82 1148.38 317.08 1232.29 328.62H1240.42C1153.11 316.34 1078.5 310.74 1003.74 311.16C931.38 311.56 858.93 317.59 774.71 328.62ZM727.17 328.62H735.17C835.64 314.52 918.03 306.99 1000.17 306.89C1080.43 306.79 1160.59 313.77 1257.28 328.62H1264.68C1164.79 313.04 1082.57 305.73 1000.15 305.83C915.73 305.93 831.13 313.84 727.17 328.62ZM682.11 328.62H689.72C810.22 310.62 903.57 301.27 996.63 301.57C1083.57 301.84 1170.39 310.57 1279.02 328.62H1286C1174.29 309.84 1085.61 300.78 996.7 300.5C901.48 300.2 806.14 309.97 682.11 328.62ZM638.64 328.62H646C787.08 306.69 890.24 295.46 993 296.24C1085.74 296.94 1178.33 307.42 1298.38 328.62H1305C1182 306.71 1087.65 295.89 993.08 295.17C888.31 294.38 783.33 305.98 638.64 328.62ZM596.29 328.62H603.46C765.79 302.62 877.84 289.56 989.46 290.91C1087.31 292.09 1185.01 304.35 1316.15 328.62H1322.52C1188.41 303.62 1089.13 291.05 989.52 289.85C876.05 288.47 762.31 301.89 596.29 328.62ZM554.71 328.62H561.71C746.05 298.41 866.2 283.62 985.85 285.62C1088.29 287.33 1190.55 301.38 1332.62 328.62H1338.79C1193.79 300.62 1090.05 286.26 985.96 284.52C864.54 282.49 742.82 297.68 554.71 328.62ZM513.71 328.62H520.64C727.74 294.1 855.29 277.54 982.28 280.25C1088.86 282.53 1195.28 298.4 1348.15 328.62H1354.15C1198.34 297.72 1090.55 281.51 982.39 279.19C853.73 276.44 724.68 293.37 513.74 328.62H513.71ZM473.19 328.62H480.05C710.67 289.67 845 271.43 978.73 274.93C1089.08 277.81 1199.24 295.52 1362.94 328.62H1368.88C1202.26 294.85 1090.8 276.79 978.88 273.86C843.51 270.29 707.77 288.93 473.22 328.62H473.19ZM433.05 328.62H439.86C694.69 285.13 835.25 265.26 975.11 269.62C1088.93 273.15 1202.54 292.72 1377.11 328.62H1383C1205.53 292.04 1090.68 272.11 975.37 268.54C833.84 264.15 691.94 284.38 433.08 328.62H433.05ZM391.48 328.62H398.87C408.037 327.16 417.303 325.637 426.67 324.05C907.09 241.82 982.28 243.42 1390.83 328.62H1396.63C983.12 242.29 909 240.34 425.58 323.08C414.05 325.05 402.73 326.87 391.51 328.62H391.48ZM344.76 328.62H353.21C376.63 325.38 400.757 321.64 425.59 317.4C913.5 233.89 979.15 239.12 1404.23 328.62H1410C979.9 238.01 915.32 232.42 424.49 316.43C397.037 321.13 370.47 325.193 344.79 328.62H344.76ZM288.95 328.62H298.95C338.61 324.16 380.41 318.31 424.5 310.76C919.65 226.01 975.5 235 1417.37 328.62H1423.11C976.16 233.9 921.41 224.55 423.39 309.79C376 317.9 331.25 324.07 289 328.62H288.95ZM211.39 328.62H226.84C286.69 324.16 352.09 316.33 423.42 304.12C917.55 219.54 969.77 230.65 1408.65 324.01L1430.35 328.62H1436.06L1410 323.08C970.06 229.49 917.72 218.35 422.33 303.14C345.22 316.34 275.07 324.41 211.42 328.62H211.39ZM0 328.38V328.62H3.09L0 328.38ZM0 321.65V322.75C108.35 331.1 247.71 327.37 422.37 297.47C908.27 214.31 962.59 225.92 1381.1 315.36C1401.02 319.613 1421.74 324.033 1443.26 328.62H1449C1425.69 323.67 1403.61 318.95 1382.46 314.43C962.89 224.76 908.46 213.12 421.28 296.5C246.92 326.34 107.94 330.02 0 321.65Z" fill="white"/>
</mask>
<g mask="url(#mask0_1378_27775)">
<path d="M1448.97 213.12H0V331.1H1448.97V213.12Z" fill="#F39132"/>
</g>
<mask id="mask1_1378_27775" style="mask-type:luminance" maskUnits="userSpaceOnUse" x="1200" y="266" width="721" height="63">
<path d="M1691 328.62H1713.11C1753.3 326.99 1795.37 327.01 1841.27 328.62H1867.36C1802.36 325.62 1745.29 325.56 1691 328.62ZM1920 293.57V292.46C1596.82 254.61 1494.71 252.57 1200.48 328.62H1205.48C1496.29 253.67 1598.54 255.91 1920 293.57ZM1920 296.31V295.2C1611.4 259.86 1503.64 259.14 1229.84 328.62H1234.89C1505.31 260.29 1613.24 261.16 1920 296.29V296.31ZM1920 299.08V297.97C1626.13 265.14 1513.61 265.53 1259.59 328.62H1264.71C1515.45 266.63 1628 266.45 1920 299.08ZM1920 301.9V300.79C1641.12 270.49 1524.74 271.71 1289.75 328.62H1295C1526.75 272.81 1643.14 271.8 1920 301.9ZM1920 304.75V303.64C1656.36 275.86 1537.11 277.72 1320.49 328.64H1325.86C1539.32 278.82 1658.49 277.18 1920 304.75ZM1920 307.64V306.54C1788.55 293.15 1692.75 287.54 1602 291.86C1521.59 295.72 1445.28 307.45 1351.81 328.62H1357.27C1448.57 308.1 1523.53 296.69 1602.35 292.91C1692.82 288.56 1788.51 294.23 1920 307.64ZM1920 310.59V309.49C1792.15 296.94 1697.79 292.05 1608.32 296.79C1535.38 300.65 1465.78 310.91 1384.03 328.62H1389.68C1469.27 311.55 1537.42 301.62 1608.68 297.85C1697.9 293.12 1792.15 298.02 1920 310.59ZM1920 313.59V312.49C1795.71 300.79 1702.8 296.64 1614.6 301.74C1549.75 305.49 1487.51 314.23 1417.26 328.63H1423.17C1491.26 314.85 1551.93 306.44 1615.02 302.79C1703 297.7 1795.73 301.86 1920 313.58V313.59ZM1920 316.59V315.5C1799.2 304.63 1707.78 301.2 1620.89 306.64C1564.89 310.15 1510.74 317.34 1451.89 328.59H1458.13C1514.81 317.93 1567.2 311.08 1621.34 307.69C1708 302.29 1799.24 305.74 1920 316.62V316.59ZM1920 319.69V318.6C1802.63 308.6 1712.73 305.82 1627.17 311.6C1580.64 314.786 1534.31 320.461 1488.38 328.6H1495.14C1539.01 320.992 1583.23 315.652 1627.65 312.6C1713 306.91 1802.7 309.66 1920 319.72V319.69ZM1920 322.84V321.75C1806 312.52 1717.65 310.46 1633.45 316.52C1597.95 319.07 1563.2 323.08 1527.6 328.59H1535.11C1568.3 323.59 1600.81 319.95 1633.96 317.59C1717.9 311.55 1806.09 313.63 1920 322.87V322.84ZM1920 326.05V324.99C1809.32 316.56 1722.55 315.14 1639.74 321.49C1616.65 323.26 1593.87 325.63 1570.97 328.62H1579.77C1599.9 326.11 1619.97 324.09 1640.28 322.53C1722.83 316.21 1809.43 317.64 1920 326.08V326.05ZM1920 328.59V328.29C1812.58 320.66 1727.41 319.85 1646 326.46C1637.91 327.127 1629.85 327.857 1621.82 328.65H1633.21C1637.66 328.243 1642.12 327.86 1646.57 327.5C1725.07 321.12 1807.18 321.69 1909.57 328.65L1920 328.59Z" fill="white"/>
</mask>
<g mask="url(#mask1_1378_27775)">
<path d="M1919.99 252.57H1200.48V328.63H1919.99V252.57Z" fill="#F39132"/>
</g>
<mask id="mask2_1378_27775" style="mask-type:luminance" maskUnits="userSpaceOnUse" x="0" y="-1" width="1697" height="151">
<path d="M1188 -0.0399878H1162.85C1121.22 1.50001 1081.09 1.44001 1041.35 -0.0399878H1016.73C1073.78 2.94081 1130.95 2.94081 1188 -0.0399878ZM1246.57 -0.0399878H1233.67C1139.49 8.06015 1044.79 8.06015 950.61 -0.0399878H937.76C1038.18 9.02001 1134.93 10.03 1246.55 -0.0399878H1246.57ZM1284.26 -0.0399878H1274.08C1131.78 15.61 1015.83 13.72 889.63 -0.0399878H879.43C1012.59 15.06 1133.42 17.29 1284.24 -0.0399878H1284.26ZM1313.53 -0.0399878H1304.82C1127.36 22.96 993.74 19.7 837.82 -0.0399878H828.9C991.16 21.01 1128.33 24.56 1313.51 -0.0399878H1313.53ZM1338.23 -0.0399878H1330.23C1120.45 30.29 974.75 25.63 790.63 -0.0399878H782.54C972.77 26.92 1121.09 31.98 1338.21 -0.0399878H1338.23ZM1359.76 -0.0399878H1352.44C1111.9 37.78 958.37 31.54 746.33 -0.0399878H738.65C956.73 32.82 1112.16 39.45 1359.74 -0.0399878H1359.76ZM1379.24 -0.0399878H1372.24C1101.94 45.29 944.14 37.47 703.68 -0.0399878H696.31C942.89 38.74 1102 46.99 1379.22 -0.0399878H1379.24ZM1397.02 -0.0399878H1390.43C1090.89 52.84 932 43.44 662.17 -0.0399878H655C931 44.7 1090.71 54.51 1397 -0.0399878H1397.02ZM1413.62 -0.0399878H1407.22C1078.91 60.38 921.69 49.47 621.38 -0.0399878H614.38C921 50.72 1078.54 62.06 1413.6 -0.0399878H1413.62ZM1429.27 -0.0399878H1423C1066.09 67.9 913.19 55.58 581 -0.0399878H574.06C912.83 56.84 1065.55 69.6 1429.25 -0.0399878H1429.27ZM1444.17 -0.0399878H1438.07C1052.59 75.4 906.52 61.8 540.94 -0.0399878H534.09C906.36 63.06 1051.9 77.09 1444.15 -0.0399878H1444.17ZM1458.47 -0.0399878H1452.47C1038.41 82.84 901.47 68.14 500.98 -0.0399878H494.15C901.64 69.41 1037.58 84.54 1458.45 -0.0399878H1458.47ZM1472.3 -0.0399878H1466.41C1023.65 90.22 898.22 74.64 461.09 -0.0399878H454.29C898.55 75.91 1022.7 91.91 1472.28 -0.0399878H1472.3ZM1485.78 -0.0399878H1479.96C1008.31 97.52 896.53 81.29 421.18 -0.0399878H414.39C897.05 82.57 1007.3 99.19 1485.76 -0.0399878H1485.78ZM1498.99 -0.0399878H1493.22C992.94 104.63 896.59 88.16 382.68 0.190012L381.29 -0.0399878H374.41L377.34 0.440012L381.56 1.16001C898.05 89.57 993.67 105.91 1499 -0.0399878H1498.99ZM1511.99 -0.0399878H1506.24C1247.36 54.59 1096.24 78.58 944.69 77.73C792.69 76.89 639.92 51.06 377.35 6.11001C364.51 3.91001 351.91 1.89001 339.44 -0.0399878H332.07C346.55 2.18001 361.277 4.55668 376.25 7.09001C639.15 52.09 792.09 77.95 944.66 78.8C1097.23 79.65 1249.19 55.47 1510 0.390012L1511.99 -0.0399878ZM1524.92 -0.0399878H1519.18L1502.58 3.46001C1242.23 58.46 1091.87 83.25 941.11 83.06C790.35 82.87 638.85 57.7 376.29 12.76C347.35 7.78001 319.403 3.51335 292.45 -0.0399878H284.08C313.313 3.78001 343.677 8.37001 375.17 13.73C638.07 58.73 789.78 83.93 941.11 84.12C1092.44 84.31 1243.11 59.48 1503.92 4.40001L1524.92 -0.0399878ZM1537.92 -0.0399878H1532.18L1516.66 3.23001L1496.58 7.48001C1236.23 62.48 1087.1 87.92 937.58 88.39C788.06 88.86 637.79 64.39 375.23 19.39C326.33 11.02 280.23 4.64001 236.79 -0.0499878H226.1C272.29 4.71001 321.54 11.37 374.1 20.36C637 65.36 787.48 89.91 937.58 89.44C1087.68 88.97 1237.12 63.44 1497.89 8.44001L1518 4.17001L1537.92 -0.0399878ZM1550.92 -0.0399878H1545.17L1493.27 10.9L1490.51 11.49C1230.15 66.49 1082.25 92.59 933.97 93.72C785.69 94.85 636.67 70.98 374.12 26.04C295.77 12.63 224.62 4.37001 160.17 -0.0399878H143.27C211.77 4.01001 288.14 12.49 373 27.02C635.92 72.02 785.16 95.91 934 94.78C1082.84 93.65 1231 67.5 1491.81 12.42L1494.57 11.84C1514 7.73001 1532.72 3.78001 1550.89 -0.0399878H1550.92ZM1564.01 -0.0399878H1558.23C1534.71 4.90001 1510.13 10.08 1484.49 15.5C1224.13 70.5 1077.49 97.26 930.42 99.04C783.35 100.82 635.57 77.62 373 32.69C223.6 7.11001 100.18 0.190012 0 3.40001V4.48001C99.81 1.29001 222.84 8.14001 371.92 33.66C634.84 78.66 782.85 101.9 930.47 100.11C1078.09 98.32 1225 71.51 1485.79 16.43C1513.09 10.67 1539.1 5.18001 1564 -0.0399878H1564.01ZM1577.23 -0.0399878H1571.42C1542.09 6.08001 1511.09 12.5967 1478.42 19.51C1218.04 74.51 1072.61 101.94 926.81 104.37C781.01 106.8 634.49 84.29 372 39.29C223.08 13.85 100 6.94001 0 10.13V11.21C99.64 8.01001 222.33 14.88 370.84 40.29C633.76 85.29 780.53 107.87 926.92 105.42C1073.31 102.97 1219 75.51 1479.74 20.42C1514.16 13.17 1546.57 6.35001 1577.2 -0.0399878H1577.23ZM1590.64 -0.0399878H1584.8C1549.8 7.21001 1512.45 15.06 1472.4 23.52C1212.02 78.52 1067.82 106.61 923.25 109.7C778.68 112.79 633.4 90.91 370.87 45.97C222.57 20.59 99.83 13.68 0 16.87V17.94C99.46 14.76 221.82 21.63 369.75 46.94C632.69 91.94 778.22 113.86 923.37 110.75C1068.52 107.64 1213 79.53 1473.7 24.46C1515.48 15.63 1554.31 7.46001 1590.61 -0.0399878H1590.64ZM1604.29 -0.0399878H1598.41C1557.8 8.28001 1513.97 17.48 1466.36 27.53C1205.97 82.53 1063 111.28 919.67 115.03C776.34 118.78 632.31 97.55 369.79 52.62C222 27.29 99.66 20.44 0 23.61V24.68C99.28 21.5 221.3 28.37 368.67 53.59C631.61 98.59 775.91 119.86 919.83 116.09C1063.75 112.32 1206.91 83.54 1467.65 28.47C1517.06 18.03 1562.39 8.53001 1604.26 -0.0399878H1604.29ZM1618.29 -0.0399878H1612.35C1566.19 9.30001 1515.82 19.82 1460.35 31.55C1199.95 86.55 1058.21 115.95 916.13 120.36C774.05 124.77 631.22 104.2 368.7 59.29C221.51 34.07 99.48 27.19 0 30.35V31.42C99.11 28.29 220.77 35.1 367.59 60.23C630.53 105.23 773.59 125.84 916.28 121.42C1058.97 117 1200.88 87.55 1461.6 32.48C1519 20.37 1570.84 9.52001 1618.24 -0.0399878H1618.29ZM1632.66 -0.0399878H1626.66C1574.94 10.29 1517.94 22.1 1454.23 35.56L1442.59 38.02C933.01 145.67 888.52 155.02 367.59 65.91C221 40.81 99.31 33.94 0 37.09V38.16C98.94 35.01 220.24 41.84 366.5 66.88C888.65 156.29 933.24 146.83 1443.92 38.95L1455.56 36.49C1521.21 22.62 1579.74 10.45 1632.61 -0.0399878H1632.66ZM1647.53 -0.0399878H1641.41C1584.26 11.09 1520.51 24.29 1448.19 39.57L1409.76 47.69C925.47 150.11 878.15 160.12 366.54 72.55C220.45 47.55 99.13 40.69 0 43.83V44.9C98.76 41.76 219.71 48.58 365.42 73.52C878.29 161.29 925.71 151.29 1411.08 48.63L1449.51 40.5C1523.89 24.79 1589.18 11.29 1647.48 -0.0399878H1647.53ZM1663.03 -0.0399878H1656.78C1594.23 11.85 1523.6 26.38 1442.19 43.58C1418.98 48.48 1398.54 52.82 1378.85 56.99C918 154.66 868.15 165.29 365.45 79.19C219.92 54.29 99 47.44 0 50.57V51.64C98.58 48.51 219.18 55.29 364.34 80.17C868.34 166.42 918.34 155.82 1380.13 57.92L1443.47 44.51C1527.06 26.86 1599.25 12.01 1663 -0.0399878H1663.03ZM1679.32 -0.0399878H1672.92C1604.92 12.49 1527.24 28.35 1436.15 47.59C1406.43 53.87 1377.29 60.07 1349.65 65.95C910.72 159.29 858.5 170.41 364.37 85.84C219.39 61.02 98.77 54.19 0 57.29V58.37C98.4 55.29 218.65 62.06 363.25 86.81C858.63 171.6 911 160.46 1350.93 66.88C1377.84 61.15 1406.23 55.11 1437.42 48.53C1530.82 28.8 1610.1 12.62 1679.27 -0.0399878H1679.32ZM1696.64 -0.0399878H1690C1616.48 12.96 1531.56 30.17 1430.1 51.6C1391.93 59.67 1355.82 67.38 1322.1 74.6C903.6 164.04 849.28 175.65 363.38 92.48C218.86 67.76 98.59 60.94 0 64.04V65.11C98.22 62.01 218.12 68.8 362.17 93.45C849.32 176.83 903.78 165.19 1323.35 75.53C1356.67 68.41 1392.35 60.79 1431.35 52.53C1535.34 30.58 1621.9 13.08 1696.59 -0.0399878H1696.64Z" fill="white"/>
</mask>
<g mask="url(#mask2_1378_27775)">
<path d="M1696.59 -0.039978H0V176.84H1696.59V-0.039978Z" fill="#F39132"/>
</g>
<mask id="mask3_1378_27775" style="mask-type:luminance" maskUnits="userSpaceOnUse" x="0" y="-1" width="1921" height="147">
<path d="M278.64 -0.0400085H179.55C210.38 0.959991 243.36 1.01999 278.64 -0.0400085ZM389.75 -0.0400085H376.84C262.39 9.40999 168 7.60999 91.3 -0.0400085H80.65C162.17 8.79999 264.17 11.09 389.75 -0.0400085ZM454.34 -0.0400085H444.6C268 20.14 134.38 14.69 36.34 -0.0400085H28.9C129.62 15.76 268.64 21.92 454.34 -0.0400085ZM506.09 -0.0400085H497.84C270.49 31.11 109.14 21.29 0 0.689991V1.87999C110.84 22.65 274.85 32.34 506.09 -0.0400085ZM551.68 -0.0400085H544.05L528.67 2.28999C284.86 38.68 113.93 28.97 0 7.56999V8.76999C114.49 30.12 285.84 39.68 529.66 3.28999L551.68 -0.0400085ZM596.61 -0.0400085H588.94L528.94 8.95999C284.94 45.42 113.94 35.8 0.02 14.51V15.7C114.45 36.89 285.85 46.37 529.92 9.89999C552.96 6.45999 575.19 3.14666 596.61 -0.0400085ZM641.74 -0.0400085H634C602.24 4.63999 568.85 9.62999 533.47 14.96L529.16 15.6C284.9 52.07 113.85 42.53 0 21.35V22.54C114.42 43.67 285.87 53.06 530.17 16.54L534.48 15.89C572.38 10.29 608 4.92999 641.74 -0.0400085ZM687.14 -0.0400085H679.34C638.48 5.95999 594.84 12.44 547.72 19.49L529.43 22.22C284.91 58.76 113.81 49.29 0 28.29V29.48C114.38 50.48 285.89 59.8 530.42 23.26L548.71 20.53C598.46 13.04 644.35 6.17999 687.14 -0.0400085ZM733.03 -0.0400085H725.12C675.19 7.11999 621.12 15.2 561.47 24.12L529.68 28.88C284.93 65.45 113.77 56.08 0 35.13V36.29C114.34 57.2 285.9 66.41 530.67 29.84L562.46 25.08C624.86 15.78 681.21 7.34999 733 -0.0400085H733.03ZM779.7 -0.0400085H771.57C712.57 8.19999 647.77 17.89 574.74 28.83L529.93 35.53C284.94 72.14 113.73 62.86 0 42.02V43.21C114.3 64 285.92 73.14 530.93 36.52L575.74 29.82C651.73 18.44 718.8 8.39999 779.7 -0.0400085ZM827.6 -0.0400085H819.17C750.87 9.10999 675.1 20.47 587.57 33.59L530.19 42.19C285 78.83 113.69 69.64 0 48.92V50.1C114.26 70.78 285.93 79.83 531.18 43.18L588.56 34.58C679.3 20.98 757.4 9.28999 827.6 -0.0400085ZM877.6 -0.0400085H868.6C790.58 9.78999 703.41 22.88 600 38.42C577.11 41.86 553.42 45.42 530.48 48.84C285 85.52 113.64 76.43 0 55.81V56.99C114.22 77.56 286 86.52 531.43 49.84C556.43 46.1 579.08 42.7 600.96 39.41C708 23.29 797.59 9.86999 877.64 -0.0400085H877.6ZM931.12 -0.0400085H921.21C832.58 10.09 733.4 25.01 611.94 43.29C585.56 47.29 558.15 51.39 530.69 55.49C285 92.22 113.6 83.21 0 62.7V63.88C114.18 84.34 286 93.21 531.69 56.49C560.59 52.17 587.28 48.15 612.95 44.29C738.52 25.38 840.25 10.07 931.16 -0.0400085H931.12ZM991.51 -0.0400085H979.69C878.53 9.74999 766.25 26.69 623.53 48.23C593.76 52.72 562.66 57.42 530.94 62.16C285 98.91 113.56 89.99 0 69.6V70.78C114.14 91.12 286 99.9 531.94 63.15C564.77 58.24 595.3 53.63 624.53 49.22C772.44 26.9 887.57 9.52999 991.55 -0.0400085H991.51ZM1069.29 -0.0400085H1051.73C933.47 7.95999 805.73 27.32 634.73 53.21C601.73 58.21 567.03 63.46 531.2 68.81C285 105.6 113.52 96.77 0 76.49V77.67C114.09 97.91 286 106.59 532.19 69.8C568.89 64.32 603.11 59.14 635.73 54.2C814.84 27.09 946.39 7.18999 1069.33 -0.0400085H1069.29ZM1920 55.29V54.09C1847.52 41.64 1763.61 23.68 1660.88 -0.0400085H1655.51C1760.65 24.29 1846.21 42.62 1920 55.29ZM1920 58.79V57.58C1844.77 44.29 1757 25.19 1648.61 -0.0400085H1643.27C1754.11 25.78 1843.48 45.29 1920 58.75V58.79ZM1920 62.24V61.03C1842.08 46.96 1750.61 26.68 1636.48 -0.0400085H1631.16C1747.73 27.29 1840.82 47.94 1920 62.2V62.24ZM1920 65.67V64.45C1839.47 49.57 1744.29 28.14 1624.46 -0.0400085H1619.16C1741.45 28.74 1838.23 50.56 1920 65.63V65.67ZM1920 69.06V67.84C1836.92 52.14 1738.06 29.58 1612.51 -0.0400085H1607.22L1609.22 0.429991C1736.3 30.42 1836.13 53.22 1920 69.02V69.06ZM1920 72.42V71.2C1837.82 55.34 1740.07 32.87 1616.19 3.63999L1600.59 -0.0400085H1595.3L1614.75 4.53999C1739.28 33.93 1837.45 56.5 1920 72.38V72.42ZM1920 75.75V74.52C1839.14 58.61 1743 36.39 1621.73 7.74999L1588.63 -0.0400085H1583.33L1620.33 8.65999C1742.25 37.45 1838.77 59.76 1920 75.71V75.75ZM1920 79.05V77.82C1840.46 61.82 1746 39.9 1627.27 11.87C1609.84 7.75666 1592.95 3.78666 1576.58 -0.0400085H1571.26C1588.86 4.06666 1607.05 8.33999 1625.83 12.78C1745.24 40.96 1840.09 63.02 1920 79.01V79.05ZM1920 82.32V81.12C1841.77 65.12 1749 43.46 1632.8 16.03C1609.05 10.43 1586.25 5.09666 1564.39 0.0299915H1559C1582.09 5.38999 1606.15 11.03 1631.33 16.97C1748.23 44.48 1841.41 66.29 1920 82.29V82.32ZM1920 85.57V84.29C1843.08 68.29 1752 46.91 1638.34 20.08C1608 12.96 1579.33 6.28999 1552 -0.0400085H1546.61C1575.14 6.50999 1605.16 13.53 1636.92 21.02C1751.22 48 1842.73 69.5 1920 85.53V85.57ZM1920 88.79V87.52C1845 71.7 1756.45 50.8 1646.56 24.87L1643.88 24.23C1606.8 15.48 1572.07 7.39999 1539.3 -0.0400085H1533.86C1567.79 7.64999 1603.86 16.03 1642.44 25.14L1645.13 25.77C1755.64 51.85 1844.65 72.86 1920 88.75V88.79ZM1920 91.97V90.7C1850.22 75.7 1768.6 56.48 1668.94 32.96L1649.42 28.35C1605.3 17.94 1564.42 8.48999 1526.26 -0.0400085H1520.74C1560.09 8.71999 1602.28 18.47 1648 29.29L1667.52 33.9C1767.79 57.54 1849.85 76.91 1920 91.93V91.97ZM1920 95.12V93.86C1855.37 79.8 1780.54 62.13 1690.57 40.86L1655 32.47C1603.54 20.32 1556.44 9.46999 1512.8 -0.0400085H1507.2C1552 9.71999 1600.44 20.84 1653.56 33.38L1689.18 41.79C1779.72 63.19 1855 80.96 1920 95.08V95.12ZM1920 98.26V96.98C1860.48 83.86 1792.26 67.74 1711.49 48.64L1660.49 36.59C1601.3 22.59 1547.82 10.44 1498.67 -0.0400085H1493C1543.3 10.64 1598.16 23.12 1659.09 37.5C1676.63 41.6333 1693.63 45.6333 1710.09 49.5C1791.43 68.79 1860.11 85.02 1920 98.22V98.26ZM1920 101.36V100.09C1865.54 87.92 1803.78 73.29 1731.74 56.29L1666 40.71C1598.64 24.8 1538.61 11.29 1483.83 -0.0400085H1478C1533.94 11.46 1595.4 25.28 1664.62 41.61L1730.32 57.16C1802.93 74.36 1865.16 89.09 1920 101.29V101.36ZM1920 104.44V103.21C1870.57 92.03 1815.09 78.88 1751.35 63.76C1725.63 57.66 1698.59 51.24 1671.57 44.87C1595.49 26.87 1528.66 12.05 1468.13 -8.46386e-06H1462.13C1523.84 12.2 1592.13 27.36 1670.13 45.77C1699.04 52.6 1725.13 58.77 1749.9 64.66C1814.24 79.88 1870.18 93.15 1920 104.4V104.44ZM1920 107.5V106.27C1875.56 96.1 1826.21 84.38 1770.34 71.09C1740.79 64.09 1709.44 56.62 1677.11 48.98C1591.74 28.84 1517.81 12.63 1451.32 -0.0200084H1444.94C1512.69 12.73 1588.14 29.22 1675.67 49.87C1709.31 57.81 1739.98 65.1 1768.89 71.98C1825.35 85.38 1875.17 97.22 1920 107.46V107.5ZM1920 110.5V109.29C1880.52 100.16 1837.15 89.83 1788.75 78.29C1755.56 70.39 1720.06 61.92 1682.64 53.09C1587.08 30.54 1505.7 13.04 1432.9 -0.0100085H1426.25C1500.36 13.11 1583.33 30.9 1681.25 53.99C1719.62 63.05 1754.63 71.39 1787.34 79.19C1836.28 90.84 1880.12 101.29 1920 110.5ZM1920 113.5V112.29C1885.44 104.22 1847.91 95.29 1806.61 85.38C1770 76.6333 1730.53 67.24 1688.18 57.2C1581.46 32.02 1492.18 13.2 1412.64 -0.0200084H1405.45C1486.39 13.22 1577.39 32.29 1686.74 58.09C1729.74 68.25 1768.92 77.6 1805.16 86.26C1847 96.29 1885 105.36 1920 113.52V113.5ZM1920 116.5V115.29C1890.35 108.29 1858.5 100.67 1823.94 92.38C1784.29 82.87 1741.12 72.52 1693.72 61.33C1574.32 33.15 1476.43 13.12 1389.51 -0.0100085H1381.73C1470.2 13.03 1569.92 33.29 1692.28 62.21C1739.59 73.37 1782.79 83.73 1822.48 93.21C1857.59 101.67 1889.93 109.43 1920 116.51V116.5ZM1920 119.5V118.25C1895.23 112.36 1868.92 106.03 1840.77 99.25C1798.08 88.98 1751.22 77.7 1699.26 65.44C1565.11 33.78 1457.74 12.57 1362.42 -0.0200084H1353.5C1450.67 12.4 1560.1 33.85 1697.82 66.35C1749.69 78.59 1796.59 89.88 1839.31 100.16C1868 107.04 1894.8 113.49 1920 119.48V119.5ZM1920 122.5V121.24C1900.09 116.47 1879.18 111.42 1857.11 106.09C1811.53 95.09 1761.11 82.88 1704.8 69.6C1552.36 33.57 1434 11.29 1328.47 -0.0400085H1317.7C1425.6 10.96 1546.36 33.4 1703.36 70.45C1759.84 83.78 1810.17 95.94 1855.64 106.93C1878.25 112.39 1899.65 117.56 1920 122.44V122.5ZM1920 125.43V124.18C1904.93 120.54 1889.26 116.743 1873 112.79C1824.79 101.09 1771 88.03 1710.34 73.72C1532.28 31.72 1400.06 8.71999 1280.23 0.0199915H1263.5C1387.41 7.71999 1523.15 30.79 1708.9 74.63C1769.72 88.98 1823.41 102.01 1871.53 113.69L1920 125.43ZM1920 128.35V127.09L1888.44 119.4C1837.77 107.05 1780.78 93.15 1715.87 77.84C1246.46 -33 1091.08 -9.41 645.58 58.29C609.367 63.7833 571.323 69.5267 531.45 75.52C285 112.29 113.48 103.55 0 83.39V84.56C114.05 104.69 286 113.29 532.45 76.46C572.95 70.46 610.71 64.67 646.58 59.23C1091.14 -8.27001 1246.2 -31.77 1714.43 78.69C1779.43 94.04 1836.43 107.91 1886.97 120.24C1898.32 123.007 1909.33 125.69 1920 128.29V128.35ZM1920 131.25V129.99L1903.47 125.99C1850.47 112.99 1790.4 98.28 1721.41 81.99C1255.58 -28.04 1094.54 -3.50001 656.07 63.29C616.68 69.29 575.07 75.63 531.7 82.11C285 118.98 113.43 110.34 0 90.29V91.46C114 111.46 286 119.98 532.7 83.12C577.22 76.46 618.25 70.21 657.09 64.29C1094.62 -2.37001 1255.32 -26.85 1720 82.8C1789.28 99.15 1849.17 113.8 1902 126.8L1920 131.25ZM1920 134.14V132.88L1918.1 132.41C1863 118.77 1800 103.29 1727 86.01C1264.61 -23.09 1098.12 2.37 666.24 68.41C624.24 74.84 579.71 81.64 531.96 88.78C285.06 125.67 113.39 117.12 0 97.19V98.36C114 118.29 286 126.67 533 89.77C580.5 82.67 625.17 75.84 667.3 69.4C1098.3 3.49999 1264.39 -21.91 1725.56 86.92C1798.88 104.23 1861.67 119.7 1916.67 133.24L1920 134.14ZM1920 137.01V135.74C1865.86 122.34 1804.15 107.11 1732.49 90.19C1273.54 -18.18 1101.78 8.19999 676.09 73.56C631.23 80.44 583.53 87.77 532.21 95.44C285.07 132.37 113.35 123.91 0 104.09V105.29C113.93 125.08 286.05 133.4 533.2 96.47C584.31 88.83 632.13 81.47 677.1 74.58C1101.88 9.28999 1273.27 -16.99 1731.05 91.04C1803.35 108.1 1865.52 123.45 1920 136.95V137.01ZM1920 139.86V138.6C1867.23 125.47 1807.28 110.66 1738 94.31C1282.37 -13.28 1105.53 13.99 685.63 78.74C637.92 86.09 587.08 93.93 532.46 102.09C285.08 139.06 113.3 130.69 0 110.99V112.15C113.88 131.82 286.06 140.05 533.46 103.08C588.25 94.9 639.02 87.08 686.66 79.72C1105.66 15.11 1282.11 -12.09 1736.59 95.16C1806.56 111.67 1866.94 126.6 1920 139.8V139.86ZM1920 142.71V141.44C1868.64 128.6 1810.47 114.22 1743.56 98.44C1291.11 -8.4 1109.37 19.75 694.89 83.95C644.53 91.75 590.73 100.08 532.72 108.75C285.1 145.75 113.26 137.48 0 117.89V119.05C113.84 138.6 286.08 146.74 533.71 109.74C591.89 101.05 645.62 92.74 695.91 84.93C1109.5 20.87 1290.85 -7.22001 1742.12 99.29C1809.73 115.23 1868.33 129.73 1920 142.65V142.71ZM0 124.79C113.22 144.26 285.11 152.44 533 115.4C594.32 106.24 651 97.4 703.9 89.19C1113.31 25.47 1299.8 -3.55001 1749.13 102.49C1813.76 117.74 1870.13 131.68 1920.03 144.21V145.48C1869.74 132.86 1812.9 118.79 1747.69 103.4C1299.51 -2.36001 1113.42 26.6 704.9 90.17C652 98.4 595.43 107.21 534 116.4C286.13 153.4 113.84 145.4 0 125.95V124.79Z" fill="white"/>
</mask>
<g mask="url(#mask3_1378_27775)">
<path d="M1920 -33H0V153.44H1920V-33Z" fill="#F39132"/>
</g>
</g>
<defs>
<clipPath id="clip0_1378_27775">
<rect width="1920" height="326" fill="white"/>
</clipPath>
</defs>
</svg>
