<svg width="37" height="38" viewBox="0 0 37 38" fill="none" xmlns="http://www.w3.org/2000/svg">
<g clip-path="url(#clip0_5130_77401)">
<path d="M7.48902 22.2184C7.408 22.2181 7.32846 22.1967 7.25812 22.1563C7.18778 22.1159 7.12905 22.0579 7.08769 21.988L1.15976 11.8826C0.39594 10.5798 -0.00469608 9.09461 -8.26728e-05 7.58284C0.00186577 5.5741 0.797265 3.64817 2.21161 2.22755C3.62595 0.806924 5.54377 0.00763269 7.54428 0.00502277C8.88111 -0.00320505 10.1953 0.351477 11.3479 1.03156C12.5005 1.71163 13.4486 2.69183 14.092 3.86849C14.7736 5.10321 15.1154 6.49795 15.0822 7.90928C15.0489 9.3206 14.642 10.6976 13.903 11.8986L7.88916 21.9954C7.84709 22.0638 7.78819 22.1203 7.71813 22.1594C7.64806 22.1985 7.56916 22.2188 7.48902 22.2184Z" fill="#134076"/>
<path d="M7.54551 1.30518C6.72314 1.30598 5.90904 1.46969 5.14978 1.78692C4.39052 2.10415 3.70105 2.56868 3.12086 3.15388C2.54068 3.73909 2.08116 4.43348 1.76866 5.19728C1.45615 5.96108 1.29682 6.77929 1.29972 7.60503C1.30064 8.875 1.63963 10.1216 2.28158 11.2159L7.49768 20.1098L12.7874 11.2282C13.4453 10.1243 13.7928 8.86191 13.7926 7.57545C13.7907 5.91265 13.1318 4.31854 11.9606 3.14299C10.7894 1.96744 9.20151 1.30648 7.54551 1.30518Z" fill="#F49C47"/>
<path d="M7.49155 10.6959C6.70608 10.6952 5.95296 10.3818 5.39732 9.82432C4.84168 9.26685 4.52889 8.51086 4.52759 7.72216C4.61595 5.68383 6.12309 4.75586 7.49155 4.75586C8.86001 4.75586 10.3684 5.68383 10.4555 7.72216C10.4542 8.51086 10.1415 9.26685 9.58585 9.82432C9.0302 10.3818 8.27702 10.6952 7.49155 10.6959Z" fill="#134076"/>
<path d="M7.49152 6.04736C7.0497 6.04802 6.6262 6.2248 6.31412 6.53884C6.00205 6.85289 5.82695 7.27851 5.82727 7.72215C5.91809 9.94041 9.06495 9.94041 9.15578 7.72215C9.1561 7.27851 8.98099 6.85289 8.66892 6.53884C8.35685 6.2248 7.93335 6.04802 7.49152 6.04736Z" fill="#F49C47"/>
<path d="M24.2371 37.9998C23.0638 37.9998 21.6033 37.37 21.024 35.6053L20.9406 35.3514H3.95566C2.9339 35.3514 1.95402 34.9438 1.23153 34.2184C0.509034 33.4929 0.103149 32.509 0.103149 31.483C0.103149 30.457 0.509034 29.4731 1.23153 28.7476C1.95402 28.0222 2.9339 27.6146 3.95566 27.6146H14.4174C16.2461 27.5382 17.0782 26.1617 17.0782 24.9157C17.0782 23.6698 16.2448 22.2933 14.4174 22.2181H7.54437L8.10158 21.2827H14.3965C16.8745 21.3887 18.0024 23.2397 18.0024 24.917C18.0024 26.5942 16.8732 28.444 14.3965 28.55H3.96429C3.18959 28.55 2.44662 28.859 1.89882 29.409C1.35103 29.9591 1.04324 30.7051 1.04324 31.483C1.04324 32.2609 1.35103 33.0069 1.89882 33.557C2.44662 34.107 3.18959 34.416 3.96429 34.416H20.8755L20.9222 34.1018C21.0517 33.2544 21.495 32.4873 22.1634 31.9538C22.8318 31.4203 23.6761 31.1598 24.5275 31.2242C25.3789 31.2887 26.1748 31.6734 26.756 32.3014C27.3372 32.9295 27.661 33.7546 27.6626 34.612C27.6098 36.8302 25.9039 37.9998 24.2457 37.9998H24.2371Z" fill="#134076"/>
<path d="M24.2666 36.7108C23.7133 36.7108 23.1825 36.4901 22.7913 36.0972C22.4 35.7043 22.1802 35.1714 22.1802 34.6158C22.2943 31.8319 26.245 31.8331 26.3592 34.6158C26.3592 34.8914 26.305 35.1644 26.1998 35.419C26.0945 35.6735 25.9403 35.9048 25.7459 36.0994C25.5515 36.294 25.3208 36.4482 25.067 36.5531C24.8131 36.658 24.5411 36.7116 24.2666 36.7108Z" fill="#F49C47"/>
<path d="M24.7292 31.3528C24.4197 31.3183 24.1072 31.3183 23.7977 31.3528V14.5408C23.7968 14.4815 23.8078 14.4226 23.83 14.3676C23.8521 14.3126 23.8849 14.2625 23.9266 14.2204C24.017 14.1271 24.1405 14.0735 24.2702 14.0713C24.3253 14.0714 24.3799 14.0823 24.431 14.1033L36.7042 19.0328C36.7873 19.0665 36.8591 19.1237 36.9107 19.1973C36.9624 19.271 36.9918 19.358 36.9955 19.4481C36.9991 19.5381 36.9768 19.6272 36.9312 19.7048C36.8857 19.7824 36.8188 19.8452 36.7386 19.8856L24.7292 25.8749V31.3528Z" fill="#134076"/>
<path d="M25.0974 24.2346V15.7769L34.495 19.5516L25.0974 24.2346Z" fill="#F49C47"/>
</g>
<defs>
<clipPath id="clip0_5130_77401">
<rect width="37" height="38" fill="white"/>
</clipPath>
</defs>
</svg>
