<svg width="26" height="20" viewBox="0 0 26 20" fill="none" xmlns="http://www.w3.org/2000/svg">
<g clip-path="url(#clip0_1170_11771)">
<path d="M10.3957 10.0212C8.4855 10.0116 6.57533 10.0177 4.66514 10.015C3.67506 10.015 2.68427 10.0342 1.6949 10.004C1.15473 9.98821 1.02597 10.0837 1.02318 10.618C1.01571 12.2301 1.01571 13.8419 1.02318 15.4535C1.02318 15.9171 1.13792 16.0345 1.61512 15.9858C2.33398 15.9158 3.05719 15.8993 3.77859 15.9363C5.33823 16.005 6.89789 15.9913 8.45822 15.9988C8.5044 15.9988 8.55128 15.9988 8.59816 16.005C8.64544 16.0068 8.69237 16.0137 8.7381 16.0256C8.82976 16.0531 8.92771 16.0888 8.91651 16.2021C8.90602 16.3017 8.80666 16.3079 8.72689 16.3182C8.61062 16.3289 8.49377 16.3323 8.37704 16.3285C7.37577 16.3285 6.37379 16.323 5.37181 16.3333C5.20808 16.3333 4.98769 16.0957 4.91632 16.3463C6.07783 16.3463 7.24142 16.3587 8.40362 16.3601C9.14881 16.3601 9.14883 16.518 9.10965 15.8106C9.10965 15.7997 9.10965 15.788 9.10965 15.777C9.10965 14.1006 9.11734 12.4235 9.10965 10.7471C9.10965 10.4669 9.21879 10.3927 9.48047 10.4037C9.9003 10.4181 10.3201 10.3907 10.7351 10.4133C11.0254 10.4298 11.1766 10.3357 11.1871 10.0473C10.9261 9.9106 10.6581 10.0225 10.3957 10.0212ZM3.60158 12.8081C3.60929 12.6466 3.67985 12.4941 3.79871 12.3822C3.91758 12.2702 4.07567 12.2074 4.2404 12.2065C4.3219 12.2036 4.40314 12.2172 4.47911 12.2463C4.55508 12.2754 4.6242 12.3195 4.68219 12.3757C4.74018 12.432 4.78584 12.4993 4.81636 12.5736C4.84687 12.6478 4.8616 12.7274 4.85964 12.8074C4.86384 13.1693 4.62454 13.4138 4.25929 13.4207C4.17474 13.4244 4.09031 13.4113 4.01102 13.3822C3.93173 13.3532 3.85922 13.3087 3.79783 13.2516C3.73643 13.1944 3.6874 13.1256 3.65368 13.0494C3.61997 12.9732 3.60225 12.8912 3.60158 12.8081Z" fill="#F39132" fill-opacity="0.9"/>
<path d="M14.9713 3.12192C14.3115 2.39188 13.4691 1.9345 12.5755 1.56776C11.1223 0.970958 9.56684 0.880991 8.0226 0.824676C7.15287 0.793771 6.28104 0.897473 5.41621 1.01354C3.82369 1.22644 2.37951 1.78341 1.14803 2.81425C0.961772 2.95899 0.812754 3.14464 0.712975 3.35626C0.613196 3.56788 0.565448 3.79954 0.573581 4.03258C0.595272 7.87849 0.584789 11.7168 0.586188 15.5586C0.586188 15.8436 0.495209 16.2076 0.637948 16.3917C0.810075 16.6128 1.20401 16.4645 1.50069 16.47C1.73718 16.4741 1.83305 16.5387 1.82676 16.7859C1.81136 17.3456 1.82673 17.9067 1.81764 18.4664C1.81274 18.6889 1.85752 18.7954 2.12061 18.7906C2.93576 18.7755 3.75161 18.7789 4.56957 18.7906C4.77948 18.7906 4.85434 18.7288 4.84945 18.5159C4.83685 17.9665 4.84245 17.417 4.84945 16.8676C4.84945 16.7474 4.80467 16.6128 4.91942 16.5119C5.01947 16.391 5.15802 16.4473 5.27767 16.4473C6.44267 16.4418 7.60697 16.4391 8.77198 16.4473C9.01687 16.4473 9.11624 16.3677 9.08476 16.1287C9.05257 15.8766 8.85456 15.9075 8.68663 15.9041C7.23335 15.878 5.78007 15.9254 4.32539 15.8505C3.37331 15.79 2.41776 15.8067 1.4685 15.9006C1.29847 15.9192 1.14453 15.9158 1.14523 15.6678C1.15083 13.8969 1.15083 12.1252 1.14523 10.3529C1.14523 10.1428 1.24111 10.0782 1.44612 10.0816C4.47396 10.0903 7.50179 10.0956 10.5296 10.0974C10.7507 10.0974 10.9732 10.1091 11.1873 10.0391C11.1896 10.005 11.1953 9.97116 11.2042 9.93811C11.3525 9.55215 11.3532 9.55352 10.9243 9.55352C10.1686 9.55352 9.41314 9.55352 8.65793 9.55352C8.18563 9.55352 8.18425 9.55352 8.18355 9.10575C8.18355 7.9767 8.19612 6.84696 8.17583 5.71791C8.16953 5.36628 8.2885 5.27014 8.63555 5.27426C10.1119 5.29005 11.5883 5.27426 13.064 5.28731C13.3138 5.28731 13.4012 5.22481 13.3613 4.98787C13.3547 4.9194 13.3531 4.85055 13.3564 4.78184C13.1941 4.62114 12.9856 4.67196 12.7932 4.67196C9.18225 4.6683 5.57083 4.6683 1.95898 4.67196C1.81904 4.67196 1.6791 4.67196 1.53916 4.66509C1.34394 4.65342 1.25299 4.55452 1.2341 4.36154C1.18442 3.85951 1.31385 3.44951 1.75047 3.13154C2.3297 2.70567 2.96526 2.35911 3.63966 2.10138C4.72979 1.68932 5.87872 1.57806 7.03113 1.51488C7.38098 1.49634 7.72314 1.405 8.07439 1.45788C8.57048 1.53274 9.07214 1.52655 9.57103 1.56776C11.1964 1.69344 12.7057 2.12816 14.0274 3.09514C14.3458 3.32795 14.5872 3.6109 14.597 4.02983C14.597 4.15826 14.6264 4.28119 14.7544 4.35399C14.9202 4.31003 15.1945 4.49134 15.2295 4.18092C15.2708 3.80938 15.261 3.44127 14.9713 3.12192ZM3.23176 16.4762C4.27152 16.4762 4.27151 16.4762 4.27151 17.4555C4.27151 18.2274 4.27149 18.2274 3.48223 18.2274H3.3073C2.3823 18.2274 2.38232 18.2274 2.38232 17.3051C2.38232 16.4762 2.38233 16.4762 3.23176 16.4762ZM1.55248 5.27769C3.43747 5.2896 5.32267 5.2896 7.20814 5.27769C7.51461 5.27769 7.63847 5.34637 7.63288 5.67808C7.61259 6.85452 7.61608 8.03095 7.63288 9.20739C7.63707 9.48965 7.53212 9.56108 7.26974 9.55902C6.30415 9.55009 5.33783 9.55558 4.37154 9.55558C3.44094 9.55558 2.50966 9.54665 1.57906 9.56108C1.27329 9.56588 1.14662 9.4924 1.15292 9.16206C1.17321 7.99455 1.16971 6.83254 1.15292 5.66778C1.14662 5.36697 1.24461 5.27563 1.54968 5.27769H1.55248Z" fill="#174176"/>
<path d="M13.3575 4.78322C13.1952 4.77086 13.0336 4.74889 12.8719 4.74889C9.12155 4.74889 5.37138 4.74889 1.62145 4.74889C1.14495 4.74889 1.19183 4.7427 1.13166 4.2812C1.04 3.56421 1.46471 3.18854 1.98179 2.83898C3.28463 1.95991 4.74699 1.57189 6.30593 1.47437C6.80412 1.44278 7.30371 1.34388 7.7984 1.36586C8.77168 1.40912 9.74706 1.4469 10.7112 1.61241C11.8743 1.79905 12.9782 2.24548 13.9376 2.91727C14.3686 3.22151 14.752 3.53948 14.6786 4.13423C14.6744 4.21487 14.7014 4.29408 14.7541 4.35605C14.4568 4.37597 14.1573 4.42816 13.8634 4.40687C13.5535 4.38558 13.3869 4.4783 13.3575 4.78322Z" fill="#F39132" fill-opacity="0.9"/>
<path fill-rule="evenodd" clip-rule="evenodd" d="M25.0271 18.3531V12.1447C25.0271 11.6118 25.0271 11.6118 24.4673 11.6118C24.3624 11.6118 24.2574 11.6107 24.1524 11.6096H24.1524C23.9075 11.607 23.6626 11.6044 23.4178 11.6159C23.175 11.6276 23.0763 11.539 23.0133 11.3055C22.7419 10.3014 22.4536 9.30151 22.1555 8.30364C21.9085 7.46948 21.9008 7.46921 21.0321 7.43856L21.0248 7.43831H20.9898C20.7918 7.45754 20.7246 7.36963 20.7288 7.17665C20.7332 6.9659 20.7324 6.75516 20.7315 6.54434V6.5443V6.54429C20.7306 6.32024 20.7297 6.0961 20.7351 5.87178C20.7393 5.69254 20.6798 5.63622 20.4958 5.63691C18.643 5.6424 16.7904 5.6424 14.9381 5.63691C14.7135 5.63691 14.6582 5.72344 14.6631 5.92123C14.6696 6.0887 14.6674 6.25617 14.6653 6.42405V6.42405C14.6642 6.50814 14.6631 6.59233 14.6631 6.67668C14.6631 7.43968 14.6631 7.45616 13.8934 7.43213C13.5737 7.42114 13.4519 7.53171 13.3722 7.82564C13.1881 8.50379 12.9931 9.18055 12.7981 9.85739C12.6574 10.3458 12.5166 10.8343 12.38 11.3234C12.3163 11.5527 12.2036 11.6303 11.9602 11.6194C11.7119 11.6075 11.4632 11.6093 11.2144 11.6111H11.2144C11.032 11.6125 10.8495 11.6138 10.6671 11.6097C10.4425 11.6036 10.3613 11.6784 10.3613 11.9057C10.3679 14.5127 10.3679 17.1197 10.3613 19.7267C10.3613 19.9327 10.4152 20.0014 10.6356 20.0014C11.4627 19.989 12.2897 19.9904 13.1175 20.0014C13.3155 20.0014 13.3792 19.9499 13.375 19.7507C13.3694 19.512 13.3713 19.2731 13.3732 19.034C13.3758 18.7008 13.3785 18.3673 13.361 18.0338C13.3421 17.6739 13.4743 17.5936 13.8192 17.5984C14.7529 17.6119 15.687 17.6097 16.6211 17.6076H16.6212C16.9688 17.6067 17.3165 17.6059 17.6641 17.6059C18.0214 17.6059 18.3788 17.6063 18.7361 17.6067H18.7364C19.7189 17.6078 20.7014 17.6089 21.6839 17.6018C21.9267 17.6018 22.0079 17.6705 22.0016 17.9143C21.9924 18.2516 21.9937 18.5891 21.9949 18.9272V18.9273C21.9959 19.1845 21.9968 19.442 21.9932 19.6999C21.989 19.9169 22.0533 20.0048 22.2898 20.0021C23.1052 19.9902 23.9215 19.9902 24.7388 20.0021C24.9487 20.0021 25.0299 19.9382 25.025 19.7274C25.0214 19.4366 25.0232 19.1462 25.025 18.856V18.856C25.026 18.6883 25.0271 18.5207 25.0271 18.3531ZM13.4029 14.0265C13.8079 14.0265 14.0162 14.2227 14.0234 14.6108C14.0174 14.2204 13.809 14.023 13.4029 14.023C13.039 14.0237 12.783 14.2682 12.783 14.6198C12.7831 14.6339 12.7837 14.6479 12.7848 14.6618C12.7837 14.6481 12.7831 14.6344 12.783 14.6205C12.7858 14.271 13.0391 14.0265 13.4029 14.0258V14.0265ZM22.5984 14.6041C22.6026 14.684 22.5906 14.764 22.5629 14.8394C22.5352 14.9147 22.4925 14.9838 22.4372 15.0428C22.382 15.1017 22.3153 15.1492 22.241 15.1824C22.1668 15.2157 22.0866 15.2341 22.0051 15.2366C21.9204 15.241 21.8357 15.2283 21.7562 15.1993C21.7109 15.1828 21.6678 15.1612 21.6278 15.1349C21.6684 15.1618 21.7122 15.1839 21.7583 15.2007C21.8377 15.2297 21.9224 15.2423 22.0071 15.2379V15.2365C22.0888 15.2344 22.1692 15.2163 22.2436 15.1833C22.3181 15.1503 22.385 15.1029 22.4405 15.0441C22.4961 14.9853 22.5391 14.9162 22.567 14.8409C22.595 14.7655 22.6073 14.6855 22.6032 14.6054C22.5985 14.4576 22.5596 14.336 22.4899 14.2432C22.5583 14.3362 22.5956 14.4576 22.5984 14.6041ZM12.9915 11.2732C13.2593 10.3864 13.5085 9.49444 13.7577 8.60268L13.8676 8.20955C13.9137 8.04541 14.0152 8.00352 14.1747 8.00352C16.5248 8.00626 18.8755 8.00626 21.227 8.00352C21.3984 8.00352 21.4782 8.07631 21.5216 8.22878C21.655 8.69141 21.7897 9.1539 21.9243 9.6165C22.0962 10.2066 22.268 10.797 22.4375 11.3879C22.5069 11.6309 22.3523 11.6238 22.2106 11.6173H22.2106C22.1881 11.6163 22.1659 11.6152 22.145 11.6152H17.8509H17.6767C17.3096 11.6152 16.9428 11.615 16.5763 11.6147L16.575 11.6147H16.575C15.4751 11.614 14.3774 11.6132 13.2777 11.6194C13.0076 11.618 12.9027 11.5768 12.9936 11.2732H12.9915ZM12.5955 19.4458C12.1192 19.4412 11.643 19.4412 11.1667 19.4458C11.0009 19.4458 10.9379 19.3771 10.9414 19.2198C10.9451 19.0598 10.9439 18.8992 10.9426 18.7395C10.942 18.6599 10.9414 18.5805 10.9414 18.5015C10.9414 17.6087 10.9414 17.6087 11.8405 17.6087H12.6102C12.7571 17.6087 12.8201 17.6691 12.8166 17.8147C12.8131 18.2817 12.8117 18.7494 12.8166 19.2164C12.8208 19.3716 12.7641 19.4437 12.5976 19.4424L12.5955 19.4458ZM23.4842 19.4458C22.5606 19.4458 22.5606 19.4458 22.5606 18.5269C22.5606 17.6121 22.5606 17.6121 23.4733 17.6121H23.4856H23.5206C24.4526 17.6121 24.4526 17.6121 24.4526 18.5111V18.5111C24.4547 19.4403 24.4547 19.4403 23.4863 19.4403L23.4842 19.4458ZM24.4735 12.587C24.4777 12.2601 24.3651 12.1873 24.0537 12.1887C22.4642 12.1979 20.8746 12.1968 19.2848 12.1956H19.2847C18.7548 12.1952 18.2248 12.1948 17.6948 12.1948C17.1648 12.1948 16.6349 12.1953 16.105 12.1958C14.5153 12.1972 12.926 12.1986 11.336 12.1873C11.005 12.1873 10.9231 12.2889 10.9266 12.5993C10.9406 13.9598 10.9378 15.3196 10.9266 16.6794C10.9266 16.9445 10.9805 17.0668 11.2898 17.0661C15.564 17.0574 19.8383 17.0574 24.1125 17.0661C24.3924 17.0661 24.4722 16.9727 24.4701 16.7055C24.4596 15.3299 24.4553 13.9585 24.4735 12.587ZM18.3152 6.17035C18.12 6.16971 17.9246 6.16907 17.7293 6.16907L16.1563 6.1725C15.6851 6.1725 15.4532 6.1725 15.3381 6.28847C15.2236 6.40393 15.225 6.63434 15.2215 7.09415C15.2194 7.39083 15.337 7.45951 15.612 7.45951C17.0072 7.44898 18.4045 7.44898 19.8039 7.45951C20.0677 7.45951 20.1999 7.40251 20.1705 7.11613C20.1522 6.91049 20.1522 6.70367 20.1705 6.49803C20.1901 6.24049 20.0816 6.15946 19.8248 6.16426C19.323 6.17367 18.8194 6.17201 18.3152 6.17035Z" fill="#174176"/>
<path d="M17.7295 6.16913C18.4292 6.16913 19.1288 6.17737 19.825 6.16432C20.0818 6.15952 20.1903 6.24055 20.1707 6.49809C20.1524 6.70373 20.1524 6.91055 20.1707 7.11619C20.2001 7.40257 20.0679 7.45957 19.8041 7.45957C18.4047 7.44904 17.0074 7.44904 15.6121 7.45957C15.3372 7.45957 15.2196 7.39089 15.2217 7.09421C15.2287 6.17256 15.2161 6.17256 16.1565 6.17256L17.7295 6.16913Z" fill="#F39132" fill-opacity="0.9"/>
<path d="M24.4738 12.587C24.478 12.2601 24.3653 12.1873 24.0539 12.1887C21.9346 12.2011 19.8152 12.1949 17.6951 12.1949C15.575 12.1949 13.4563 12.2024 11.3362 12.1873C11.0052 12.1873 10.9234 12.289 10.9269 12.5994C10.9409 13.9599 10.9381 15.3197 10.9269 16.6795C10.9269 16.9446 10.9807 17.0668 11.29 17.0661C15.5642 17.0574 19.8385 17.0574 24.1127 17.0661C24.3926 17.0661 24.4724 16.9727 24.4703 16.7056C24.4598 15.33 24.4556 13.9585 24.4738 12.587ZM13.4045 15.2379C13.2394 15.2344 13.0822 15.1679 12.9662 15.0525C12.8503 14.9371 12.7846 14.7819 12.7832 14.6199C12.7832 14.2682 13.0393 14.0237 13.4031 14.0231C13.818 14.0231 14.0266 14.2291 14.0238 14.6363C14.0272 14.7168 14.0134 14.797 13.9834 14.8719C13.9535 14.9469 13.9078 15.0148 13.8496 15.0714C13.7913 15.1281 13.7216 15.1721 13.6449 15.2008C13.5683 15.2295 13.4864 15.2421 13.4045 15.2379ZM22.0073 15.2379C21.9227 15.2424 21.838 15.2297 21.7585 15.2007C21.679 15.1717 21.6064 15.127 21.5452 15.0694C21.4841 15.0118 21.4356 14.9425 21.4028 14.8658C21.37 14.789 21.3535 14.7065 21.3545 14.6233C21.358 14.2675 21.6036 14.0313 21.9737 14.0279C22.3635 14.0279 22.5916 14.2339 22.6035 14.6054C22.6075 14.6855 22.5952 14.7656 22.5673 14.8409C22.5393 14.9163 22.4963 14.9854 22.4408 15.0442C22.3852 15.103 22.3183 15.1503 22.2438 15.1833C22.1694 15.2164 22.089 15.2345 22.0073 15.2366V15.2379Z" fill="#F39132" fill-opacity="0.9"/>
<path d="M4.19607 11.6468C3.55235 11.6468 3.04298 12.1646 3.03948 12.8212C3.03529 12.9733 3.06255 13.1246 3.11963 13.266C3.17672 13.4074 3.26244 13.536 3.3716 13.644C3.48076 13.752 3.61109 13.8371 3.75473 13.8942C3.89836 13.9513 4.05233 13.9793 4.20728 13.9763C4.94686 13.9798 5.42616 13.519 5.41987 12.8088C5.41357 12.0987 4.93006 11.6468 4.19607 11.6468ZM4.26184 13.4207C4.17729 13.4244 4.09285 13.4114 4.01356 13.3823C3.93427 13.3533 3.86177 13.3088 3.80037 13.2516C3.73898 13.1944 3.68995 13.1257 3.65623 13.0495C3.62251 12.9733 3.6048 12.8912 3.60413 12.8081C3.61183 12.6466 3.6824 12.4942 3.80126 12.3823C3.92013 12.2703 4.07822 12.2074 4.24295 12.2065C4.32445 12.2037 4.40569 12.2173 4.48166 12.2464C4.55763 12.2755 4.62674 12.3195 4.68474 12.3758C4.74273 12.4321 4.78839 12.4994 4.8189 12.5736C4.84942 12.6479 4.86415 12.7274 4.86219 12.8075C4.86359 13.1694 4.62428 13.4139 4.25904 13.4207H4.26184Z" fill="#174176"/>
<path d="M13.4326 13.4655C12.7091 13.4558 12.2487 13.8892 12.2347 14.5924C12.2207 15.2957 12.6685 15.7641 13.378 15.7737C14.1099 15.784 14.599 15.3252 14.6011 14.6261C14.6032 13.927 14.1449 13.4751 13.4326 13.4655ZM13.4053 15.238C13.2402 15.2344 13.083 15.1679 12.967 15.0525C12.851 14.9372 12.7854 14.782 12.784 14.6199C12.784 14.2683 13.04 14.0238 13.4039 14.0231C13.8188 14.0231 14.0273 14.2291 14.0245 14.6364C14.028 14.7169 14.0142 14.7972 13.9842 14.8722C13.9542 14.9471 13.9085 15.0151 13.8501 15.0718C13.7918 15.1284 13.722 15.1725 13.6453 15.2011C13.5685 15.2297 13.4866 15.2423 13.4046 15.238H13.4053Z" fill="#174176"/>
<path d="M22.0045 13.4654C21.2873 13.4585 20.7779 13.9358 20.7793 14.6164C20.7793 15.2826 21.2621 15.7661 21.9331 15.775C22.6839 15.7846 23.1457 15.3512 23.1492 14.6336C23.1527 13.9159 22.7259 13.4729 22.0045 13.4654ZM22.0045 15.2366C21.9198 15.241 21.8351 15.2283 21.7557 15.1993C21.6762 15.1703 21.6036 15.1257 21.5424 15.068C21.4812 15.0104 21.4327 14.9411 21.3999 14.8644C21.3671 14.7876 21.3507 14.7051 21.3517 14.6219C21.3552 14.2661 21.6008 14.0299 21.9709 14.0265C22.3606 14.0265 22.5887 14.2325 22.6006 14.604C22.6049 14.6841 22.5928 14.7641 22.565 14.8395C22.5373 14.9149 22.4945 14.984 22.4392 15.043C22.3838 15.1019 22.3171 15.1494 22.2428 15.1826C22.1685 15.2158 22.0882 15.2342 22.0066 15.2366H22.0045Z" fill="#174176"/>
</g>
<defs>
<clipPath id="clip0_1170_11771">
<rect width="24.4721" height="19.1808" fill="white" transform="translate(0.557617 0.819214)"/>
</clipPath>
</defs>
</svg>
