<svg width="31" height="27" viewBox="0 0 31 27" fill="none" xmlns="http://www.w3.org/2000/svg">
<g clip-path="url(#clip0_1122_10910)">
<path d="M28.9149 5.58522C20.908 5.58522 12.9011 5.58522 4.89422 5.58522C4.51627 5.58522 4.12109 5.60998 4.22447 5.04683C4.24815 4.91762 4.40429 4.77656 4.53458 4.71303C4.66487 4.6495 4.81561 4.69688 4.96529 4.69688H28.6091V0.489929C28.5836 0.573337 28.5401 0.650129 28.4817 0.714879C28.4233 0.77963 28.3513 0.830756 28.271 0.864644C28.0987 0.931404 27.8823 0.88833 27.6852 0.88833H2.09676C1.32687 0.88833 1.32471 0.88833 1.32471 1.64207V24.685C1.32471 25.3903 1.32471 25.3925 2.03108 25.3925H28.9612C29.6611 25.3925 29.6622 25.3925 29.6632 24.6732V6.31097C29.6622 5.5863 29.6611 5.58522 28.9149 5.58522ZM23.9682 17.812C22.6448 17.812 21.6682 16.8246 21.6703 15.4948C21.6725 14.165 22.6847 13.1463 23.966 13.1517C24.2717 13.1514 24.5743 13.2118 24.8564 13.3295C25.1384 13.4472 25.3943 13.6197 25.6091 13.8371C25.8239 14.0545 25.9933 14.3124 26.1076 14.5959C26.2219 14.8794 26.2786 15.1827 26.2746 15.4883C26.2682 16.8095 25.27 17.8152 23.9682 17.812Z" fill="#F5A75B"/>
<path d="M30.5 4.70658V26.2044H0.5V0.00753333H1.65645C10.3991 0.00753333 19.1422 0.00753333 27.8856 0.00753333C28.1634 0.00753333 28.5392 -0.0796819 28.6038 0.246581C28.6174 0.326041 28.6174 0.407238 28.6038 0.486699C28.5783 0.570107 28.5348 0.646899 28.4764 0.711649C28.418 0.7764 28.346 0.827526 28.2657 0.861414C28.0934 0.928174 27.877 0.885107 27.6799 0.885107H2.09685C1.32696 0.885107 1.3248 0.885107 1.3248 1.63885V24.6818C1.3248 25.3871 1.32481 25.3893 2.03117 25.3893H28.9613C29.6612 25.3893 29.6623 25.3893 29.6633 24.67V6.31097C29.6633 5.5863 29.6633 5.58522 28.9096 5.58522C20.9027 5.58522 12.8958 5.58522 4.88892 5.58522C4.51097 5.58522 4.1158 5.60999 4.21917 5.04683C4.24286 4.91762 4.39899 4.77657 4.52928 4.71304C4.65957 4.64951 4.81032 4.69688 4.95999 4.69688L30.5 4.70658Z" fill="#174176"/>
<path d="M23.9661 13.1517C22.6847 13.1517 21.6715 14.1801 21.6704 15.4948C21.6693 16.8095 22.6395 17.8088 23.9683 17.812C25.2701 17.812 26.2682 16.8095 26.2747 15.4883C26.2787 15.1827 26.2219 14.8794 26.1077 14.5959C25.9934 14.3125 25.824 14.0545 25.6092 13.8371C25.3944 13.6197 25.1385 13.4472 24.8564 13.3295C24.5744 13.2119 24.2717 13.1514 23.9661 13.1517ZM23.9758 16.9334C23.7866 16.9382 23.5984 16.9046 23.4226 16.8347C23.2468 16.7648 23.0869 16.6599 22.9528 16.5264C22.8186 16.393 22.7129 16.2337 22.642 16.0582C22.5712 15.8828 22.5366 15.6948 22.5405 15.5056C22.5348 15.314 22.5676 15.1232 22.6369 14.9446C22.7062 14.7659 22.8106 14.6029 22.9439 14.4653C23.0772 14.3276 23.2368 14.2181 23.4132 14.1431C23.5896 14.0682 23.7792 14.0293 23.9709 14.0289C24.1625 14.0285 24.3523 14.0665 24.529 14.1406C24.7057 14.2148 24.8658 14.3236 24.9998 14.4606C25.1337 14.5977 25.2389 14.7602 25.309 14.9385C25.3791 15.1169 25.4127 15.3075 25.4079 15.4991C25.4106 15.688 25.3755 15.8756 25.3045 16.0507C25.2336 16.2258 25.1282 16.3849 24.9947 16.5186C24.8612 16.6523 24.7023 16.7579 24.5273 16.8292C24.3522 16.9004 24.1647 16.9358 23.9758 16.9334Z" fill="#174176"/>
</g>
<defs>
<clipPath id="clip0_1122_10910">
<rect width="30" height="26.2033" fill="white" transform="translate(0.5)"/>
</clipPath>
</defs>
</svg>
